<svg width="32" height="32" viewBox="0 0 32 32" version="1.1" xmlns="http://www.w3.org/2000/svg" xmlns:xlink="http://www.w3.org/1999/xlink">
<title>incon-facebook-black</title>
<desc>Created using Figma</desc>
<g id="Canvas" transform="translate(-2149 -729)">
<g id="incon-facebook-black">
<use xlink:href="#path0_fill" transform="translate(2149 729)"/>
</g>
</g>
<defs>
<path id="path0_fill" d="M 15.9999 0C 7.17759 0 0 7.17759 0 15.9999C 0 24.8216 7.17759 31.9998 15.9999 31.9998C 24.8216 31.9998 31.9998 24.8216 31.9998 15.9999C 31.9998 7.17759 24.8228 0 15.9999 0ZM 19.9789 16.5632L 17.3759 16.5632C 17.3759 20.722 17.3759 25.8411 17.3759 25.8411L 13.5186 25.8411C 13.5186 25.8411 13.5186 20.7716 13.5186 16.5632L 11.6851 16.5632L 11.6851 13.284L 13.5186 13.284L 13.5186 11.1631C 13.5186 9.64402 14.2405 7.27039 17.4113 7.27039L 20.2696 7.28135L 20.2696 10.4644C 20.2696 10.4644 18.5327 10.4644 18.195 10.4644C 17.8573 10.4644 17.3771 10.6333 17.3771 11.3577L 17.3771 13.2847L 20.316 13.2847L 19.9789 16.5632Z"/>
</defs>
</svg>
