<svg width="68" height="68" viewBox="0 0 68 68" version="1.1" xmlns="http://www.w3.org/2000/svg" xmlns:xlink="http://www.w3.org/1999/xlink">
<title>stop</title>
<desc>Created using Figma</desc>
<g id="Canvas" transform="translate(6181 193)">
<g id="stop">
<g id="Ellipse">
<mask id="mask0_outline_ins">
<use xlink:href="#path0_fill" fill="white" transform="translate(-6181 -193)"/>
</mask>
<g mask="url(#mask0_outline_ins)">
<use xlink:href="#path1_stroke_2x" transform="translate(-6181 -193)" fill="#EB8F15"/>
</g>
</g>
<g id="Rectangle">
<use xlink:href="#path2_fill" transform="translate(-6157.62 -170.769)" fill="#EB8F15"/>
</g>
</g>
</g>
<defs>
<path id="path0_fill" d="M 68 34C 68 52.7777 52.7777 68 34 68C 15.2223 68 0 52.7777 0 34C 0 15.2223 15.2223 0 34 0C 52.7777 0 68 15.2223 68 34Z"/>
<path id="path1_stroke_2x" d="M 64 34C 64 50.5685 50.5685 64 34 64L 34 72C 54.9868 72 72 54.9868 72 34L 64 34ZM 34 64C 17.4315 64 4 50.5685 4 34L -4 34C -4 54.9868 13.0132 72 34 72L 34 64ZM 4 34C 4 17.4315 17.4315 4 34 4L 34 -4C 13.0132 -4 -4 13.0132 -4 34L 4 34ZM 34 4C 50.5685 4 64 17.4315 64 34L 72 34C 72 13.0132 54.9868 -4 34 -4L 34 4Z"/>
<path id="path2_fill" d="M 0 0L 23.3849 0L 23.3849 23.5385L 0 23.5385L 0 0Z"/>
</defs>
</svg>
