<svg width="32" height="32" viewBox="0 0 32 32" version="1.1" xmlns="http://www.w3.org/2000/svg" xmlns:xlink="http://www.w3.org/1999/xlink">
<title>icon-mail</title>
<desc>Created using Figma</desc>
<g id="Canvas" transform="translate(5527 -1388)">
<g id="icon-mail">
<use xlink:href="#path0_fill" transform="translate(-5527 1388)" fill="#FFFFFF"/>
</g>
</g>
<defs>
<path id="path0_fill" d="M 15.9996 0C 7.16338 0 0 7.16359 0 15.9998C 0 24.8359 7.16338 32 15.9996 32C 24.8359 32 31.9998 24.8359 31.9998 15.9998C 31.9998 7.16359 24.8359 0 15.9996 0ZM 15.9999 5.6199L 25.4681 11.524L 6.5318 11.524L 15.9999 5.6199ZM 25.5861 20.952C 25.5861 21.899 24.8176 22.6664 23.8707 22.6664L 8.12915 22.6664C 7.18215 22.6664 6.41478 21.8989 6.41478 20.952L 6.41478 11.8996C 6.41478 11.7995 6.42502 11.7021 6.44166 11.6064L 15.4879 17.2473C 15.499 17.2543 15.5109 17.2589 15.5223 17.2653C 15.5342 17.272 15.5464 17.2784 15.5586 17.2844C 15.6224 17.3174 15.6883 17.344 15.7556 17.3613C 15.7625 17.3633 15.7694 17.3641 15.7764 17.3657C 15.8502 17.3831 15.925 17.394 15.9996 17.394C 16.0002 17.394 16.0012 17.394 16.0012 17.394C 16.0759 17.394 16.1507 17.3834 16.2245 17.3657C 16.2314 17.364 16.2383 17.3633 16.2453 17.3613C 16.3125 17.344 16.3781 17.3174 16.4423 17.2844C 16.4545 17.2784 16.4666 17.272 16.4786 17.2653C 16.4899 17.2589 16.5018 17.2543 16.5129 17.2473L 25.5592 11.6064C 25.5758 11.7021 25.5861 11.7993 25.5861 11.8996L 25.5861 20.952Z"/>
</defs>
</svg>
