<svg id="icon-instagram" xmlns="http://www.w3.org/2000/svg" viewBox="0 0 40 40"><g id="instagram"><path d="M20,16.48a3.58,3.58,0,1,0,3.58,3.57A3.58,3.58,0,0,0,20,16.48Z" style="fill:#fff"/><path d="M26,10.64H14a3.46,3.46,0,0,0-3.45,3.45V26A3.46,3.46,0,0,0,14,29.47H26A3.46,3.46,0,0,0,29.41,26V14.09A3.46,3.46,0,0,0,26,10.64ZM20,26.25a6.2,6.2,0,1,1,6.2-6.2A6.21,6.21,0,0,1,20,26.25Zm6.4-11.11a1.47,1.47,0,1,1,1.46-1.47A1.47,1.47,0,0,1,26.4,15.14Z" style="fill:#fff"/><path d="M20,0A20,20,0,1,0,40,20,20,20,0,0,0,20,0ZM32,26A6.07,6.07,0,0,1,26,32.08H14A6.07,6.07,0,0,1,8,26V14.09A6.08,6.08,0,0,1,14,8H26A6.08,6.08,0,0,1,32,14.09Z" style="fill:#fff"/></g></svg>
