<svg id="icon-android" xmlns="http://www.w3.org/2000/svg" viewBox="0 0 24 29"><g id="b-izq"><path id="path0_fill" data-name="path0 fill" d="M1.75,9.17H1.68A1.68,1.68,0,0,0,0,10.85v7.3a1.68,1.68,0,0,0,1.68,1.68h.07a1.69,1.69,0,0,0,1.68-1.68v-7.3A1.69,1.69,0,0,0,1.75,9.17Z" style="fill:#fff"/></g><g id="cuerpo"><path id="path1_fill" data-name="path1 fill" d="M4.23,21a1.54,1.54,0,0,0,1.54,1.54H7.42v3.94A1.68,1.68,0,0,0,9.1,28.13h.07a1.68,1.68,0,0,0,1.68-1.68V22.51h2.3v3.94a1.68,1.68,0,0,0,1.68,1.68h.07a1.68,1.68,0,0,0,1.68-1.68V22.51h1.65A1.55,1.55,0,0,0,19.77,21V9.44H4.23Z" style="fill:#fff"/></g><g id="b-der"><path id="path3_fill" data-name="path3 fill" d="M22.32,9.17h-.07a1.69,1.69,0,0,0-1.68,1.68v7.3a1.68,1.68,0,0,0,1.68,1.68h.07A1.68,1.68,0,0,0,24,18.15v-7.3A1.69,1.69,0,0,0,22.32,9.17Z" style="fill:#fff"/></g><g id="cabeza"><path id="path2_fill" data-name="path2 fill" d="M15.87,2.45l1.31-2A.27.27,0,0,0,17.1.05a.28.28,0,0,0-.39.08L15.36,2.22a9,9,0,0,0-6.71,0L7.29.13A.27.27,0,0,0,6.91.05a.28.28,0,0,0-.09.38l1.31,2a6.63,6.63,0,0,0-4,5.84c0,.15,0,.3,0,.45H19.8a3.39,3.39,0,0,0,0-.45A6.63,6.63,0,0,0,15.87,2.45ZM8.39,6.07a.75.75,0,1,1,0-1.5.75.75,0,0,1,0,1.5Zm7.23,0a.75.75,0,1,1,.75-.75A.75.75,0,0,1,15.62,6.07Z" style="fill:#fff"/></g></svg>
