<svg id="icon-apple" xmlns="http://www.w3.org/2000/svg" viewBox="0 0 24 30"><path id="manzana" d="M1.24,10.79C-1.24,15.1.33,21.64,3.08,25.6c1.37,2,2.76,3.76,4.66,3.76h.11A5.79,5.79,0,0,0,10,28.79a5.88,5.88,0,0,1,2.56-.61,5.57,5.57,0,0,1,2.44.59,5.29,5.29,0,0,0,2.33.56c2.14,0,3.46-2,4.62-3.66a16.32,16.32,0,0,0,2-4.14v0a.25.25,0,0,0-.13-.3h0a6.15,6.15,0,0,1-3.72-5.62,6.3,6.3,0,0,1,3-5.28h0a.26.26,0,0,0,.11-.16.23.23,0,0,0,0-.18,7,7,0,0,0-5.46-3l-.48,0a9.36,9.36,0,0,0-3.43.86,5.6,5.6,0,0,1-1.64.49,5.27,5.27,0,0,1-1.7-.5,8.19,8.19,0,0,0-3-.76H7.42A7.34,7.34,0,0,0,1.24,10.79Z" style="fill:#fff"/><path id="hoja" d="M17.74,0a6.72,6.72,0,0,0-4.43,2.27,6.26,6.26,0,0,0-1.59,4.66.24.24,0,0,0,.22.21h.31A5.7,5.7,0,0,0,16.43,5,6.62,6.62,0,0,0,18,.21.24.24,0,0,0,17.74,0Z" style="fill:#fff"/></svg>
