<svg width="32" height="32" viewBox="0 0 32 32" version="1.1" xmlns="http://www.w3.org/2000/svg" xmlns:xlink="http://www.w3.org/1999/xlink">
<title>icon-twitter-black</title>
<desc>Created using Figma</desc>
<g id="Canvas" transform="translate(-2201 -729)">
<g id="icon-twitter-black">
<use xlink:href="#path0_fill" transform="translate(2201 729)"/>
</g>
</g>
<defs>
<path id="path0_fill" d="M 15.9999 0C 7.17759 0 0 7.17759 0 15.9999C 0 24.8216 7.17759 31.9998 15.9999 31.9998C 24.8216 31.9998 31.9998 24.8216 31.9998 15.9999C 31.9998 7.17759 24.8228 0 15.9999 0ZM 23.1375 12.3379C 23.1446 12.4965 23.1485 12.6563 23.1485 12.8162C 23.1485 17.6826 19.4453 23.2922 12.6699 23.2922C 10.5901 23.2922 8.65409 22.6845 7.02485 21.6391C 7.31293 21.6733 7.60617 21.6907 7.90327 21.6907C 9.6292 21.6907 11.2166 21.1016 12.4772 20.1143C 10.866 20.0846 9.50546 19.0199 9.03692 17.5563C 9.2612 17.5989 9.49257 17.6227 9.72909 17.6227C 10.0649 17.6227 10.391 17.5789 10.6997 17.4944C 9.015 17.1567 7.74602 15.6686 7.74602 13.8834C 7.74602 13.8679 7.74602 13.8518 7.74667 13.837C 8.24292 14.1122 8.8107 14.2785 9.41394 14.2972C 8.42659 13.6379 7.77631 12.51 7.77631 11.2327C 7.77631 10.5572 7.95741 9.92437 8.2745 9.38043C 10.09 11.609 12.8046 13.0746 15.8646 13.2293C 15.8014 12.9592 15.7698 12.6789 15.7698 12.3895C 15.7698 10.3562 17.4184 8.70694 19.4517 8.70694C 20.5113 8.70694 21.467 9.15421 22.1399 9.86959C 22.9796 9.7046 23.7659 9.39912 24.4793 8.97569C 24.2022 9.83607 23.6202 10.5572 22.8578 11.0135C 23.6035 10.9246 24.315 10.7274 24.973 10.4342C 24.4819 11.1714 23.8574 11.8204 23.1375 12.3379Z"/>
</defs>
</svg>
