<svg id="icon-twitter" xmlns="http://www.w3.org/2000/svg" viewBox="0 0 40 40"><path id="twitter" d="M20,0A20,20,0,1,0,40,20,20,20,0,0,0,20,0Zm8.92,15.42c0,.2,0,.4,0,.6a13.09,13.09,0,0,1-20.16,11,10,10,0,0,0,1.1.06,9.21,9.21,0,0,0,5.72-2A4.58,4.58,0,0,1,11.3,22a4.91,4.91,0,0,0,.86.08,4.78,4.78,0,0,0,1.21-.16,4.61,4.61,0,0,1-3.69-4.52V17.3a4.59,4.59,0,0,0,2.09.57,4.58,4.58,0,0,1-2-3.83,4.64,4.64,0,0,1,.62-2.31,13.13,13.13,0,0,0,9.49,4.81,4.6,4.6,0,0,1,7.84-4.2,9.28,9.28,0,0,0,2.93-1.12,4.6,4.6,0,0,1-2,2.55A9.14,9.14,0,0,0,31.22,13,9.3,9.3,0,0,1,28.92,15.42Z" style="fill:#fff"/></svg>
