<svg width="16" height="17" viewBox="0 0 16 17" version="1.1" xmlns="http://www.w3.org/2000/svg" xmlns:xlink="http://www.w3.org/1999/xlink">
    <title>buscar</title>
    <desc>Created using Figma</desc>
    <g id="Canvas" transform="translate(6206 116)">
        <g id="buscar">
            <path d="M 15.3755 14.8334L 11.5267 10.8022C 12.5163 9.61751 13.0585 8.12694 13.0585 6.57519C 13.0585 2.94969 10.1294 0 6.52924 0C 2.92908 0 7.71578e-09 2.94969 7.71578e-09 6.57519C 7.71578e-09 10.2007 2.92908 13.1504 6.52924 13.1504C 7.8808 13.1504 9.16876 12.7399 10.2699 11.9606L 14.148 16.0223C 14.3101 16.1918 14.5281 16.2853 14.7618 16.2853C 14.9829 16.2853 15.1927 16.2004 15.352 16.046C 15.6903 15.7181 15.7011 15.1744 15.3755 14.8334ZM 6.52924 1.71527C 9.19034 1.71527 11.3552 3.89537 11.3552 6.57519C 11.3552 9.25502 9.19034 11.4351 6.52924 11.4351C 3.86815 11.4351 1.70328 9.25502 1.70328 6.57519C 1.70328 3.89537 3.86815 1.71527 6.52924 1.71527Z" transform="translate(-6206 -115.285)" fill="#050503"></path>
        </g>
    </g>
</svg>
