<svg width="33" height="32" viewBox="0 0 33 32" version="1.1" xmlns="http://www.w3.org/2000/svg" xmlns:xlink="http://www.w3.org/1999/xlink">
<title>icon-linkedin</title>
<desc>Created using Figma</desc>
<g id="Canvas" transform="translate(5480 -1388)">
<g id="icon-linkedin">
<use xlink:href="#path0_fill" transform="translate(-5479 1388)" fill="#FFFFFF"/>
<use xlink:href="#path1_fill" transform="translate(-5479 1388)" fill="#FFFFFF"/>
</g>
</g>
<defs>
<path id="path0_fill" d="M 17.71 14.0112L 17.71 14.0488L 17.6846 14.0488C 17.6914 14.0366 17.7021 14.024 17.71 14.0112Z"/>
<path id="path1_fill" fill-rule="evenodd" d="M 32 15.9999C 32 24.8364 24.8364 31.9999 16 31.9999C 7.16357 31.9999 0 24.8364 0 15.9999C 0 7.16345 7.16357 0 16 0C 24.8364 0 32 7.16345 32 15.9999ZM 25.5591 23.8839L 25.5591 17.2875C 25.5591 13.7551 23.6729 12.1111 21.1567 12.1111C 19.1245 12.1111 18.2183 13.2291 17.71 14.0112L 17.71 12.3812L 13.8848 12.3812C 13.936 13.4602 13.8848 23.8837 13.8848 23.8837L 17.7095 23.8837L 17.7095 17.4595C 17.7095 17.1146 17.7354 16.7732 17.8364 16.5273C 18.1133 15.8395 18.7412 15.129 19.7979 15.129C 21.1826 15.129 21.7349 16.1842 21.7349 17.7295L 21.7349 23.8839L 25.5591 23.8839ZM 7.71973 8.82373C 7.71973 7.69543 8.57568 6.83667 9.88379 6.83667C 11.1924 6.83667 11.9966 7.69543 12.022 8.82373C 12.022 9.9281 11.1924 10.8116 9.8584 10.8116L 9.8335 10.8116C 8.55078 10.8116 7.71973 9.9281 7.71973 8.82373ZM 11.7705 23.8839L 7.94727 23.8839L 7.94727 12.3812L 11.7705 12.3812L 11.7705 23.8839Z"/>
</defs>
</svg>
