<svg width="40" height="40" viewBox="0 0 40 40" version="1.1" xmlns="http://www.w3.org/2000/svg" xmlns:xlink="http://www.w3.org/1999/xlink">
<title>icon-rss</title>
<desc>Created using Figma</desc>
<g id="Canvas" transform="translate(6689 -3421)">
<g id="icon-rss">
<use xlink:href="#path0_fill" transform="translate(-6689 3421)" fill="#FFFFFF"/>
</g>
</g>
<defs>
<path id="path0_fill" fill-rule="evenodd" d="M 40 20C 40 8.95508 31.0449 0 20 0C 8.95361 0 0 8.95508 0 20C 0 31.0461 8.95508 40 20 40C 31.0449 40 40 31.0464 40 20ZM 12.499 24.9976C 12.499 23.615 13.6201 22.4951 15.0015 22.4951C 16.3838 22.4951 17.5039 23.615 17.5039 24.9976C 17.5039 26.3801 16.3843 27.5 15.0015 27.5C 13.6191 27.5 12.499 26.3801 12.499 24.9976ZM 12.5054 18.01C 12.5054 17.0388 13.2915 16.2524 14.2627 16.2524C 19.4966 16.2524 23.7554 20.51 23.7554 25.7439C 23.7554 26.7139 22.9663 27.5015 21.9976 27.5015C 21.0254 27.5015 20.2388 26.7139 20.2388 25.7439C 20.2388 22.4487 17.5576 19.7676 14.2627 19.7676C 13.2915 19.7676 12.5054 18.98 12.5054 18.01ZM 12.499 11.7986C 12.499 10.8062 13.3042 10.0012 14.2964 10.0012C 22.9541 10.0012 29.999 17.0449 30.0005 25.7036C 30.0005 26.6948 29.1963 27.5012 28.2026 27.5012C 27.209 27.5012 26.4053 26.6963 26.4053 25.7036C 26.4053 19.0276 20.9727 13.5962 14.2964 13.5962C 13.3042 13.5962 12.499 12.7913 12.499 11.7986Z"/>
</defs>
</svg>
