<svg width="16" height="14" viewBox="0 0 16 14" version="1.1" xmlns="http://www.w3.org/2000/svg" xmlns:xlink="http://www.w3.org/1999/xlink">
<title>Union</title>
<desc>Created using Figma</desc>
<g id="Canvas" transform="translate(5928 -740)">
<g id="Union">
<use xlink:href="#path0_fill" transform="translate(-5928 740)"/>
<use xlink:href="#path1_fill" transform="translate(-5928 740)"/>
</g>
</g>
<defs>
<path id="path0_fill" d="M 6.3042 6.32019C 6.77393 5.84949 7.33887 5.6142 8 5.6142C 8.66113 5.6142 9.22656 5.84955 9.69629 6.32019C 10.1655 6.79089 10.4004 7.35748 10.4004 8.02045C 10.4004 8.68311 10.1655 9.24982 9.69629 9.72046C 9.22656 10.191 8.66113 10.4263 8 10.4263C 7.33887 10.4263 6.77393 10.191 6.3042 9.72046C 5.83496 9.24982 5.6001 8.68311 5.6001 8.02045C 5.6001 7.35748 5.83496 6.79083 6.3042 6.32019Z"/>
<path id="path1_fill" fill-rule="evenodd" d="M 13.8667 2.13879C 14.4561 2.13879 14.9585 2.34766 15.375 2.76532C 15.7915 3.18304 16 3.68707 16 4.27747L 16 11.7629C 16 12.3533 15.7915 12.8574 15.375 13.275C 14.9585 13.6927 14.4556 13.9016 13.8667 13.9016L 2.1333 13.9016C 1.54443 13.9016 1.0415 13.6927 0.625 13.275C 0.208496 12.8574 0 12.3533 0 11.7629L 0 4.27747C 0 3.68707 0.208496 3.18304 0.625 2.76532C 1.0415 2.34766 1.54443 2.13879 2.1333 2.13879L 4 2.13879L 4.4248 1.00269C 4.53076 0.729797 4.72363 0.494446 5.00439 0.296631C 5.28467 0.098938 5.57227 0 5.8667 0L 10.1333 0C 10.4282 0 10.7153 0.098938 10.9961 0.296631C 11.2769 0.494446 11.4697 0.729797 11.5752 1.00269L 12 2.13879L 13.8667 2.13879ZM 8 11.7631C 9.02783 11.7631 9.90723 11.3968 10.6377 10.6644C 11.3682 9.93201 11.7334 9.0506 11.7334 8.02039C 11.7334 6.98987 11.3682 6.10858 10.6377 5.37622C 9.90723 4.64386 9.02783 4.27765 8 4.27765C 6.97217 4.27765 6.09326 4.6438 5.3623 5.37622C 4.63184 6.10864 4.2666 6.98987 4.2666 8.02039C 4.2666 9.0506 4.63184 9.93213 5.3623 10.6644C 6.09326 11.3968 6.97217 11.7631 8 11.7631Z"/>
</defs>
</svg>
