<svg width="139" height="80" viewBox="0 0 139 80" version="1.1" xmlns="http://www.w3.org/2000/svg" xmlns:xlink="http://www.w3.org/1999/xlink">
<title>logo-monumental</title>
<desc>Created using Figma</desc>
<g id="Canvas" transform="translate(7470 252)">
<g id="logo-monumental">
<g id="Capa 2">
<g id="Capa 1">
<g id="Vector">
<use xlink:href="#path0_fill" transform="translate(-7417.64 -241.913)" fill="url(#paint0_linear)"/>
</g>
<g id="Vector">
<use xlink:href="#path1_fill" transform="translate(-7416.47 -240.964)" fill="url(#paint1_linear)"/>
</g>
<g id="Vector">
<use xlink:href="#path2_stroke" transform="translate(-7416.47 -240.964)" fill="url(#paint2_linear)"/>
</g>
<g id="Vector">
<use xlink:href="#path3_fill" transform="translate(-7377.36 -182.122)" fill="#040006"/>
</g>
<g id="Vector">
<use xlink:href="#path4_fill" transform="translate(-7410.21 -199.023)" fill="#040006"/>
</g>
<g id="Vector">
<use xlink:href="#path5_fill" transform="translate(-7470 -199.032)" fill="#040006"/>
</g>
<g id="Vector">
<use xlink:href="#path6_fill" transform="translate(-7424.24 -182.094)" fill="#D78800"/>
</g>
<g id="Vector">
<use xlink:href="#path7_fill" transform="translate(-7437.52 -182.136)" fill="#D78800"/>
</g>
<g id="Vector">
<use xlink:href="#path8_fill" transform="translate(-7451.66 -199.072)" fill="#040006"/>
</g>
<g id="Vector">
<use xlink:href="#path9_fill" transform="translate(-7410.67 -182.105)" fill="#D78800"/>
</g>
<g id="Vector">
<use xlink:href="#path10_fill" transform="translate(-7438.08 -199.112)" fill="#040006"/>
</g>
<g id="Vector">
<use xlink:href="#path11_fill" transform="translate(-7379.27 -199.126)" fill="#040006"/>
</g>
<g id="Vector">
<use xlink:href="#path12_fill" transform="translate(-7391.96 -199.033)" fill="#040006"/>
</g>
<g id="Vector">
<use xlink:href="#path13_fill" transform="translate(-7392.42 -182.134)" fill="#040006"/>
</g>
<g id="Vector">
<use xlink:href="#path14_fill" transform="translate(-7356.8 -199.104)" fill="#040006"/>
</g>
<g id="Vector">
<use xlink:href="#path15_fill" transform="translate(-7424.13 -199.155)" fill="#040006"/>
</g>
<g id="Vector">
<use xlink:href="#path16_fill" transform="translate(-7365.76 -199.071)" fill="#040006"/>
</g>
<g id="Vector">
<use xlink:href="#path17_fill" transform="translate(-7342.28 -199.102)" fill="#040006"/>
</g>
<g id="Vector">
<use xlink:href="#path18_fill" transform="translate(-7440.88 -182.185)" fill="#D78800"/>
</g>
<g id="Vector">
<use xlink:href="#path19_fill" transform="translate(-7415.34 -240.041)" fill="url(#paint19_linear)"/>
</g>
<g id="Vector">
<use xlink:href="#path19_fill" transform="translate(-7415.34 -240.041)" fill="url(#paint20_radial)"/>
</g>
<g id="Vector">
<use xlink:href="#path20_fill" transform="translate(-7388.17 -251.977)" fill="url(#paint21_linear)"/>
</g>
<g id="Vector">
<use xlink:href="#path21_fill" transform="translate(-7388.9 -247.188)" fill="url(#paint22_linear)"/>
</g>
<g id="Vector">
<use xlink:href="#path22_fill" transform="translate(-7427.64 -218.623)" fill="url(#paint23_linear)"/>
</g>
<g id="Vector">
<use xlink:href="#path23_fill" transform="translate(-7422.89 -219.356)" fill="url(#paint24_linear)"/>
</g>
<g id="Vector">
<use xlink:href="#path24_fill" transform="translate(-7388.17 -218.658)" fill="url(#paint25_linear)"/>
</g>
<g id="Vector">
<use xlink:href="#path25_fill" transform="translate(-7388.89 -219.386)" fill="url(#paint26_linear)"/>
</g>
<g id="Vector">
<use xlink:href="#path26_fill" transform="translate(-7427.69 -252)" fill="url(#paint27_linear)"/>
</g>
<g id="Vector">
<use xlink:href="#path27_fill" transform="translate(-7422.91 -247.218)" fill="url(#paint28_linear)"/>
</g>
<g id="Vector">
<use xlink:href="#path28_fill" transform="translate(-7412.89 -235.291)" fill="#FFFFFF"/>
</g>
<g id="Vector">
<use xlink:href="#path29_stroke" transform="translate(-7415.34 -240.041)" fill="url(#paint30_linear)"/>
</g>
</g>
</g>
</g>
</g>
<defs>
<linearGradient id="paint0_linear" x1="0" y1="0" x2="1" y2="0" gradientUnits="userSpaceOnUse" gradientTransform="matrix(32.7207 25.9362 -25.882 32.7892 14.5622 -14.659)">
<stop offset="0" stop-color="#848687"/>
<stop offset="0.5" stop-color="#CDCED3"/>
<stop offset="0.6" stop-color="#C4C6CA"/>
<stop offset="0.75" stop-color="#ADAFB2"/>
<stop offset="0.95" stop-color="#888A8A"/>
<stop offset="1" stop-color="#7D7F7F"/>
</linearGradient>
<linearGradient id="paint1_linear" x1="0" y1="0" x2="1" y2="0" gradientUnits="userSpaceOnUse" gradientTransform="matrix(0 26.5693 -26.5137 0 29.0463 0.499928)">
<stop offset="0"/>
<stop offset="1"/>
</linearGradient>
<linearGradient id="paint2_linear" x1="0" y1="0" x2="1" y2="0" gradientUnits="userSpaceOnUse" gradientTransform="matrix(0 26.0583 -26.0038 0 28.7914 -0.091178)">
<stop offset="0" stop-color="#AEADB3"/>
<stop offset="1" stop-color="#AEADB3"/>
</linearGradient>
<linearGradient id="paint19_linear" x1="0" y1="0" x2="1" y2="0" gradientUnits="userSpaceOnUse" gradientTransform="matrix(0 24.6968 -24.6452 0 26.9856 0.454115)">
<stop offset="0" stop-color="#383A36"/>
<stop offset="0.25" stop-color="#2F312E"/>
<stop offset="0.66" stop-color="#181917"/>
<stop offset="1"/>
</linearGradient>
<radialGradient id="paint20_radial" cx="0.5" cy="0.5" r="0.5" gradientUnits="userSpaceOnUse" gradientTransform="matrix(29.5392 0 0 29.6011 -0.106557 -2.78744)">
<stop offset="0" stop-color="#FF8400"/>
<stop offset="1" stop-color="#FF9500" stop-opacity="0"/>
</radialGradient>
<linearGradient id="paint21_linear" x1="0" y1="0" x2="1" y2="0" gradientUnits="userSpaceOnUse" gradientTransform="matrix(14.2188 14.2486 -12.4727 12.4988 6.86275 -7.02215)">
<stop offset="0" stop-color="#848687"/>
<stop offset="0.04" stop-color="#8D8F90"/>
<stop offset="0.24" stop-color="#B3B5B8"/>
<stop offset="0.4" stop-color="#CACCD0"/>
<stop offset="0.5" stop-color="#D3D5D9"/>
<stop offset="0.59" stop-color="#CACCD0"/>
<stop offset="0.74" stop-color="#B3B5B8"/>
<stop offset="0.93" stop-color="#8E9090"/>
<stop offset="1" stop-color="#7D7F7F"/>
</linearGradient>
<linearGradient id="paint22_linear" x1="0" y1="0" x2="1" y2="0" gradientUnits="userSpaceOnUse" gradientTransform="matrix(282.25 282.842 -386.671 387.482 1513.37 1639.6)">
<stop offset="0" stop-color="#848687"/>
<stop offset="0.04" stop-color="#8D8F90"/>
<stop offset="0.24" stop-color="#B3B5B8"/>
<stop offset="0.4" stop-color="#CACCD0"/>
<stop offset="0.5" stop-color="#D3D5D9"/>
<stop offset="0.59" stop-color="#CACCD0"/>
<stop offset="0.74" stop-color="#B3B5B8"/>
<stop offset="0.93" stop-color="#8E9090"/>
<stop offset="1" stop-color="#7D7F7F"/>
</linearGradient>
<linearGradient id="paint23_linear" x1="0" y1="0" x2="1" y2="0" gradientUnits="userSpaceOnUse" gradientTransform="matrix(-542.449 -543.586 475.839 -476.836 -1821.18 -4145.3)">
<stop offset="0" stop-color="#848687"/>
<stop offset="0.04" stop-color="#8D8F90"/>
<stop offset="0.24" stop-color="#B3B5B8"/>
<stop offset="0.4" stop-color="#CACCD0"/>
<stop offset="0.5" stop-color="#D3D5D9"/>
<stop offset="0.59" stop-color="#CACCD0"/>
<stop offset="0.74" stop-color="#B3B5B8"/>
<stop offset="0.93" stop-color="#8E9090"/>
<stop offset="1" stop-color="#7D7F7F"/>
</linearGradient>
<linearGradient id="paint24_linear" x1="0" y1="0" x2="1" y2="0" gradientUnits="userSpaceOnUse" gradientTransform="matrix(-282.25 -282.842 386.671 -387.482 -491.277 -2281.65)">
<stop offset="0" stop-color="#848687"/>
<stop offset="0.04" stop-color="#8D8F90"/>
<stop offset="0.24" stop-color="#B3B5B8"/>
<stop offset="0.4" stop-color="#CACCD0"/>
<stop offset="0.5" stop-color="#D3D5D9"/>
<stop offset="0.59" stop-color="#CACCD0"/>
<stop offset="0.74" stop-color="#B3B5B8"/>
<stop offset="0.93" stop-color="#8E9090"/>
<stop offset="1" stop-color="#7D7F7F"/>
</linearGradient>
<linearGradient id="paint25_linear" x1="0" y1="0" x2="1" y2="0" gradientUnits="userSpaceOnUse" gradientTransform="matrix(-542.456 543.593 -475.832 -476.83 -3017.16 3249.71)">
<stop offset="0" stop-color="#848687"/>
<stop offset="0.04" stop-color="#8D8F90"/>
<stop offset="0.24" stop-color="#B3B5B8"/>
<stop offset="0.4" stop-color="#CACCD0"/>
<stop offset="0.5" stop-color="#D3D5D9"/>
<stop offset="0.59" stop-color="#CACCD0"/>
<stop offset="0.74" stop-color="#B3B5B8"/>
<stop offset="0.93" stop-color="#8E9090"/>
<stop offset="1" stop-color="#7D7F7F"/>
</linearGradient>
<linearGradient id="paint26_linear" x1="0" y1="0" x2="1" y2="0" gradientUnits="userSpaceOnUse" gradientTransform="matrix(-281.86 282.45 -386.083 -386.892 -1470.91 1502.82)">
<stop offset="0" stop-color="#848687"/>
<stop offset="0.04" stop-color="#8D8F90"/>
<stop offset="0.24" stop-color="#B3B5B8"/>
<stop offset="0.4" stop-color="#CACCD0"/>
<stop offset="0.5" stop-color="#D3D5D9"/>
<stop offset="0.59" stop-color="#CACCD0"/>
<stop offset="0.74" stop-color="#B3B5B8"/>
<stop offset="0.93" stop-color="#8E9090"/>
<stop offset="1" stop-color="#7D7F7F"/>
</linearGradient>
<linearGradient id="paint27_linear" x1="0" y1="0" x2="1" y2="0" gradientUnits="userSpaceOnUse" gradientTransform="matrix(542.598 -543.735 475.832 476.83 4137.84 -1606.42)">
<stop offset="0" stop-color="#848687"/>
<stop offset="0.04" stop-color="#8D8F90"/>
<stop offset="0.24" stop-color="#B3B5B8"/>
<stop offset="0.4" stop-color="#CACCD0"/>
<stop offset="0.5" stop-color="#D3D5D9"/>
<stop offset="0.59" stop-color="#CACCD0"/>
<stop offset="0.74" stop-color="#B3B5B8"/>
<stop offset="0.93" stop-color="#8E9090"/>
<stop offset="1" stop-color="#7D7F7F"/>
</linearGradient>
<linearGradient id="paint28_linear" x1="0" y1="0" x2="1" y2="0" gradientUnits="userSpaceOnUse" gradientTransform="matrix(282.27 -282.862 386.644 387.455 2273.93 -338.316)">
<stop offset="0" stop-color="#848687"/>
<stop offset="0.04" stop-color="#8D8F90"/>
<stop offset="0.24" stop-color="#B3B5B8"/>
<stop offset="0.4" stop-color="#CACCD0"/>
<stop offset="0.5" stop-color="#D3D5D9"/>
<stop offset="0.59" stop-color="#CACCD0"/>
<stop offset="0.74" stop-color="#B3B5B8"/>
<stop offset="0.93" stop-color="#8E9090"/>
<stop offset="1" stop-color="#7D7F7F"/>
</linearGradient>
<linearGradient id="paint30_linear" x1="0" y1="0" x2="1" y2="0" gradientUnits="userSpaceOnUse" gradientTransform="matrix(0 24.2354 -24.1847 0 26.7554 -0.102669)">
<stop offset="0" stop-color="#515351"/>
<stop offset="0.62" stop-color="#4A4A49"/>
<stop offset="1" stop-color="#444242"/>
</linearGradient>
<path id="path0_fill" d="M 33.9118 6.37289C 33.9118 6.28518 33.9118 6.19747 33.9118 6.10976C 33.9173 5.77167 33.8854 5.43401 33.8167 5.10297C 33.6525 4.16316 33.2719 3.27466 32.7051 2.50806C 32.1383 1.74145 31.4009 1.11787 30.5515 0.686831C 29.9324 0.359968 29.2593 0.148078 28.5649 0.0614028C 28.2064 0.0172666 27.8454 -0.00311677 27.4841 0.000385485L 8.8823 0.000385485C 8.02223 0.000385485 7.16216 0.000385485 6.3021 0.000385485C 5.96487 -0.000597389 5.62795 0.0210615 5.29361 0.0652165C 4.14831 0.218855 3.07216 0.702415 2.19584 1.45718C 1.52128 2.0154 0.975618 2.71365 0.596514 3.50373C 0.21741 4.29381 0.0138888 5.15692 -4.64552e-07 6.03348C -4.64552e-07 6.18221 -4.64552e-07 6.33476 -4.64552e-07 6.48349C -4.64552e-07 11.4081 -4.64552e-07 16.3327 -4.64552e-07 21.2573C -4.64552e-07 21.4556 -4.64552e-07 21.6387 -4.64552e-07 21.8561C 0.00512987 22.1692 0.042112 22.481 0.110366 22.7866C 0.371948 24.0823 1.04066 25.2601 2.01857 26.1474C 2.99648 27.0347 4.23221 27.585 5.54478 27.7175C 5.85474 27.7459 6.16592 27.7587 6.47716 27.7557L 27.7886 27.7557C 28.4626 27.7415 29.1303 27.6219 29.7675 27.401C 30.7688 27.0462 31.6619 26.4387 32.3606 25.637C 33.0592 24.8354 33.5397 23.8668 33.7558 22.8247C 33.8476 22.3716 33.8935 21.9104 33.8928 21.448C 33.9055 16.442 33.9118 11.417 33.9118 6.37289Z"/>
<path id="path1_fill" d="M 31.5828 5.93811C 31.5828 5.85802 31.5828 5.77412 31.5828 5.69404C 31.5883 5.37904 31.5589 5.06441 31.4953 4.75589C 31.3419 3.88008 30.9868 3.05217 30.4583 2.33788C 29.9298 1.62359 29.2425 1.0426 28.4508 0.641031C 27.8744 0.336307 27.2478 0.138628 26.6012 0.057552C 26.2667 0.0162386 25.9298 -0.0028708 25.5928 0.000348327L 8.2696 0.000348327C 7.46661 0.000348327 6.66743 0.000348327 5.86445 0.000348327C 5.55147 -0.00148064 5.23871 0.0176296 4.92827 0.057552C 3.86171 0.200714 2.85958 0.651159 2.04362 1.35417C 1.4145 1.87522 0.905899 2.52705 0.553035 3.26455C 0.20017 4.00205 0.0114734 4.80759 2.32276e-06 5.62539C 2.32276e-06 5.76649 2.32276e-06 5.90378 2.32276e-06 6.04489C 2.32276e-06 10.6212 2.32276e-06 15.2077 2.32276e-06 19.8043C 2.32276e-06 19.9912 2.32276e-06 20.1857 2.32276e-06 20.3649C 0.00485789 20.6562 0.0392816 20.9463 0.10275 21.2306C 0.349667 22.4343 0.973893 23.5275 1.88439 24.3507C 2.79489 25.174 3.94403 25.6842 5.16422 25.8069C 5.45389 25.8343 5.74476 25.847 6.03571 25.845L 25.901 25.845C 26.5283 25.8326 27.1498 25.7219 27.7429 25.5171C 28.6732 25.188 29.5034 24.6248 30.1539 23.8815C 30.8043 23.1382 31.2531 22.2398 31.4572 21.2725C 31.542 20.8508 31.5841 20.4215 31.5828 19.9912C 31.5803 15.3233 31.5803 10.639 31.5828 5.93811Z"/>
<path id="path2_stroke" d="M 31.5828 5.93811L 31.8328 5.93824L 31.8328 5.93811L 31.5828 5.93811ZM 31.5828 5.69404L 31.3328 5.68969L 31.3328 5.69404L 31.5828 5.69404ZM 31.4953 4.75589L 31.2489 4.79905L 31.2504 4.8064L 31.4953 4.75589ZM 28.4508 0.641031L 28.3339 0.862072L 28.3377 0.86399L 28.4508 0.641031ZM 26.6012 0.057552L 26.6323 -0.190506L 26.6319 -0.190563L 26.6012 0.057552ZM 25.5928 0.000348327L 25.5928 0.25036L 25.5951 0.250337L 25.5928 0.000348327ZM 5.86445 0.000348327L 5.86299 0.250348L 5.86445 0.250348L 5.86445 0.000348327ZM 4.92827 0.057552L 4.89638 -0.19041L 4.89501 -0.190226L 4.92827 0.057552ZM 2.04362 1.35417L 2.20311 1.54675L 2.2068 1.54357L 2.04362 1.35417ZM 2.32276e-06 5.62539L -0.249998 5.62188L -0.249998 5.62539L 2.32276e-06 5.62539ZM 2.32276e-06 20.3649L -0.250032 20.3649L -0.249963 20.3691L 2.32276e-06 20.3649ZM 0.10275 21.2306L 0.347687 21.1804L 0.346744 21.1761L 0.10275 21.2306ZM 5.16422 25.8069L 5.13919 26.0557L 5.14066 26.0558L 5.16422 25.8069ZM 6.03571 25.845L 6.03571 25.595L 6.03398 25.595L 6.03571 25.845ZM 25.901 25.845L 25.901 26.0951L 25.906 26.095L 25.901 25.845ZM 27.7429 25.5171L 27.8245 25.7534L 27.8263 25.7528L 27.7429 25.5171ZM 31.4572 21.2725L 31.7018 21.3242L 31.7023 21.3218L 31.4572 21.2725ZM 31.5828 19.9912L 31.3328 19.9913L 31.3328 19.9919L 31.5828 19.9912ZM 31.8328 5.93811C 31.8328 5.85802 31.8328 5.77412 31.8328 5.69404L 31.3328 5.69404C 31.3328 5.77412 31.3328 5.85802 31.3328 5.93811L 31.8328 5.93811ZM 31.8328 5.69838C 31.8381 5.36959 31.8062 5.02749 31.7401 4.70538L 31.2504 4.8064C 31.3116 5.10133 31.3384 5.3885 31.3328 5.6897L 31.8328 5.69838ZM 31.7415 4.71276C 31.5815 3.80877 31.2036 2.92772 30.6593 2.18919L 30.2574 2.48658C 30.77 3.17662 31.1022 3.95139 31.249 4.79903L 31.7415 4.71276ZM 30.6593 2.18919C 30.1123 1.45263 29.3806 0.834252 28.5639 0.418073L 28.3377 0.86399C 29.1043 1.25095 29.7474 1.79456 30.2574 2.48658L 30.6593 2.18919ZM 28.5676 0.420022C 27.9709 0.105652 27.3012 -0.105607 26.6323 -0.190506L 26.5701 0.30561C 27.1945 0.382863 27.778 0.566962 28.3339 0.86204L 28.5676 0.420022ZM 26.6319 -0.190563C 26.2891 -0.232755 25.9357 -0.252801 25.5904 -0.24964L 25.5951 0.250337C 25.9239 0.24706 26.2443 0.265232 26.5706 0.305667L 26.6319 -0.190563ZM 25.5928 -0.249652L 8.2696 -0.249652L 8.2696 0.250348L 25.5928 0.250348L 25.5928 -0.249652ZM 8.2696 -0.249652C 7.46661 -0.249652 6.66743 -0.249652 5.86445 -0.249652L 5.86445 0.250348C 6.66743 0.250348 7.46661 0.250348 8.2696 0.250348L 8.2696 -0.249652ZM 5.86591 -0.249647C 5.54457 -0.251385 5.21513 -0.231256 4.89638 -0.190406L 4.96016 0.30551C 5.26229 0.266515 5.55836 0.248424 5.86299 0.250344L 5.86591 -0.249647ZM 4.89501 -0.190226C 3.79312 -0.0396926 2.72535 0.440254 1.88043 1.16477L 2.2068 1.54357C 2.99382 0.862065 3.9303 0.44112 4.96153 0.30533L 4.89501 -0.190226ZM 1.88415 1.16163C 1.23517 1.70103 0.693348 2.39544 0.327519 3.15665L 0.778551 3.37245C 1.11845 2.65867 1.59383 2.0494 2.20308 1.54671L 1.88415 1.16163ZM 0.327519 3.15665C -0.0356692 3.91911 -0.236666 4.77715 -0.249973 5.62188L 0.249978 5.6289C 0.259613 4.83803 0.43601 4.08499 0.778551 3.37245L 0.327519 3.15665ZM -0.249998 5.62539C -0.249998 5.76649 -0.249998 5.90378 -0.249998 6.04489L 0.250002 6.04489C 0.250002 5.90378 0.250002 5.76649 0.250002 5.62539L -0.249998 5.62539ZM -0.249998 6.04489C -0.249998 10.6212 -0.249998 15.2077 -0.249998 19.8043L 0.250002 19.8043C 0.250002 15.2077 0.250002 10.6212 0.250002 6.04489L -0.249998 6.04489ZM -0.249998 19.8043C -0.249998 19.9912 -0.249998 20.1857 -0.249998 20.3649L 0.250002 20.3649C 0.250002 20.1857 0.250002 19.9912 0.250002 19.8043L -0.249998 19.8043ZM -0.249963 20.3691C -0.244575 20.6731 -0.207162 20.9883 -0.141245 21.2851L 0.346744 21.1761C 0.285725 20.9043 0.25429 20.6394 0.249968 20.3607L -0.249963 20.3691ZM -0.142151 21.2808C 0.115744 22.5225 0.779071 23.6842 1.71672 24.5362L 2.05206 24.1653C 1.16872 23.3708 0.58359 22.3461 0.34765 21.1804L -0.142151 21.2808ZM 1.71672 24.5362C 2.65862 25.3836 3.87999 25.9258 5.13919 26.0556L 5.18924 25.5582C 4.00807 25.4425 2.93115 24.9644 2.05206 24.1653L 1.71672 24.5362ZM 5.14066 26.0558C 5.43664 26.0837 5.74015 26.097 6.03743 26.095L 6.03398 25.595C 5.74936 25.5971 5.47113 25.5849 5.18777 25.558L 5.14066 26.0558ZM 6.03571 26.095L 25.901 26.095L 25.901 25.595L 6.03571 25.595L 6.03571 26.095ZM 25.906 26.095C 26.5528 26.0814 27.2127 25.9639 27.8245 25.7534L 27.6613 25.2808C 27.0869 25.4799 26.5038 25.5838 25.896 25.5951L 25.906 26.095ZM 27.8263 25.7528C 28.786 25.4111 29.669 24.8121 30.342 24.0461L 29.9657 23.7168C 29.3378 24.4375 28.5604 24.9649 27.6596 25.2814L 27.8263 25.7528ZM 30.342 24.0461C 31.0119 23.2775 31.4892 22.3221 31.7018 21.3242L 31.2126 21.2209C 31.0171 22.1574 30.5967 22.9989 29.9657 23.7168L 30.342 24.0461ZM 31.7023 21.3218C 31.7893 20.8876 31.8338 20.4333 31.8328 19.9904L 31.3328 19.9919C 31.3344 20.4096 31.2948 20.8139 31.2121 21.2233L 31.7023 21.3218ZM 31.8328 19.991C 31.8303 15.3233 31.8303 10.6391 31.8328 5.93824L 31.3328 5.93797C 31.3303 10.6389 31.3303 15.3234 31.3328 19.9913L 31.8328 19.991Z"/>
<path id="path3_fill" d="M 8.31655 8.11024C 8.46497 8.08736 8.52585 7.98058 8.59816 7.89287L 9.96058 6.25303L 14.4778 0.795783C 14.5768 0.677561 14.6719 0.555521 14.7785 0.444927C 14.8814 0.329443 15.0067 0.236098 15.1467 0.170546C 15.2866 0.104995 15.4384 0.0685999 15.5929 0.0635684C 15.7651 0.0492246 15.9382 0.0492246 16.1104 0.0635684C 16.2736 0.084603 16.4255 0.158025 16.5435 0.272834C 16.6615 0.387643 16.7392 0.537669 16.765 0.700443C 16.7784 0.77603 16.786 0.852516 16.7878 0.929255C 16.7878 1.06273 16.7878 1.20002 16.7878 1.33349C 16.7878 3.8886 16.7878 6.44371 16.7878 8.99881C 16.7878 9.17042 16.7878 9.34585 16.7878 9.51746C 16.7858 9.62374 16.7495 9.72651 16.6843 9.81038C 16.6192 9.89426 16.5286 9.95472 16.4263 9.98272C 16.0562 10.1088 15.6548 10.1088 15.2846 9.98272C 15.2005 9.95711 15.1257 9.90733 15.0696 9.83954C 15.0134 9.77175 14.9784 9.68893 14.9688 9.60136C 14.9479 9.41017 14.9402 9.21775 14.9459 9.0255C 14.9459 7.24583 14.9459 5.45853 14.9459 3.6636C 14.9459 3.49199 14.9459 3.32037 14.9459 3.14495C 14.9467 3.13507 14.9451 3.12515 14.9415 3.11595C 14.9378 3.10676 14.932 3.09853 14.9247 3.0919C 14.9173 3.08527 14.9086 3.08042 14.8991 3.07772C 14.8895 3.07501 14.8795 3.07453 14.8698 3.07631C 14.8538 3.07079 14.8364 3.07079 14.8203 3.07631C 14.6948 3.21741 14.5616 3.35851 14.4398 3.50724L 10.0291 8.90347L 9.51912 9.52509C 9.33976 9.75347 9.0939 9.92024 8.81566 10.0022C 8.53743 10.0843 8.24061 10.0774 7.96643 9.98272C 7.74249 9.92314 7.5412 9.7984 7.38798 9.62424C 7.22053 9.43737 7.0645 9.24288 6.90467 9.0522L 2.1819 3.34326C 2.10959 3.25554 2.02587 3.17546 1.94595 3.09538C 1.94595 3.09538 1.9117 3.09538 1.89267 3.09538C 1.87364 3.09538 1.85081 3.09537 1.85081 3.12207C 1.85081 3.27461 1.82797 3.42715 1.82797 3.5797C 1.82797 5.3848 1.82797 7.19117 1.82797 8.99881C 1.82797 9.15135 1.82797 9.30771 1.82797 9.46025C 1.82695 9.53647 1.81543 9.6122 1.79373 9.68526C 1.77574 9.75026 1.74303 9.81022 1.69815 9.86049C 1.65327 9.91076 1.59741 9.94997 1.53494 9.97509C 1.15261 10.1141 0.733721 10.1141 0.351394 9.97509C 0.268643 9.94649 0.195198 9.8959 0.138897 9.82874C 0.0825949 9.76157 0.0455512 9.68035 0.0317243 9.59373C 0.0159741 9.51849 0.00832008 9.44178 0.00889155 9.36491C 0.00889155 9.23144 0.00889155 9.09415 0.00889155 8.96067C 0.00889155 6.41828 0.00889155 3.87589 0.00889155 1.33349C -0.00296416 1.14173 -0.00296416 0.949411 0.00889155 0.757644C 0.0168374 0.622565 0.0604989 0.492033 0.135401 0.379445C 0.210303 0.266857 0.313746 0.176262 0.435118 0.116958C 0.467581 0.0979551 0.502042 0.0826094 0.537872 0.0711972C 0.795067 -0.0122456 1.07032 -0.0225624 1.33302 0.0413977C 1.59571 0.105358 1.83555 0.241086 2.02587 0.433487C 2.13243 0.544081 2.22376 0.666119 2.32271 0.788154L 8.03113 7.7327C 8.12246 7.89287 8.23282 8.00346 8.31655 8.11024Z"/>
<path id="path4_fill" d="M 1.78692 3.08262C 1.78692 3.26948 1.78692 3.46398 1.78692 3.65466C 1.78692 5.43433 1.78692 7.21401 1.78692 8.99368C 1.78692 9.16529 1.78692 9.34072 1.78692 9.51233C 1.78097 9.61819 1.74051 9.71917 1.67176 9.79978C 1.60302 9.88038 1.50978 9.93615 1.40635 9.95852C 1.07296 10.0533 0.719837 10.0533 0.386447 9.95852C 0.284947 9.93235 0.193956 9.87548 0.125862 9.79564C 0.0577672 9.7158 0.0158758 9.61688 0.0058853 9.51233C 0.000168834 9.43617 0.000168834 9.35968 0.0058853 9.28351C 0.0058853 9.16911 0.0058853 9.0547 0.0058853 8.93648C 0.0058853 6.39409 0.0058853 3.85932 0.0058853 1.33218C -0.00196301 1.17847 -0.00196301 1.02445 0.0058853 0.870736C 0.0195105 0.740528 0.0489015 0.612467 0.0934128 0.489377C 0.133516 0.38019 0.200659 0.283008 0.288531 0.20696C 0.376402 0.130912 0.48212 0.0784941 0.595757 0.0546285C 0.875261 -0.0182108 1.16871 -0.0182108 1.44822 0.0546285C 1.67179 0.115041 1.87286 0.239647 2.02667 0.413107C 2.14083 0.542769 2.2512 0.676245 2.36156 0.794466L 7.8759 7.51401C 8.01422 7.69877 8.16556 7.87337 8.32876 8.03647C 8.38489 8.0153 8.4375 7.98572 8.48479 7.94876C 8.61418 7.80765 8.73596 7.65893 8.86535 7.5102L 14.4444 0.748705C 14.5319 0.645738 14.6118 0.538958 14.7032 0.439805C 14.8154 0.307504 14.9547 0.200898 15.1116 0.12721C 15.2685 0.0535213 15.4394 0.0144647 15.6127 0.0126788C 15.7652 0.00781236 15.9178 0.0141867 16.0694 0.0317479C 16.2426 0.051957 16.4037 0.131165 16.5256 0.25612C 16.6475 0.381075 16.7229 0.544197 16.7392 0.718195C 16.7458 0.832507 16.7458 0.947104 16.7392 1.06142C 16.7392 3.7894 16.7392 6.51612 16.7392 9.24156C 16.7413 9.35641 16.7337 9.47124 16.7163 9.58479C 16.7051 9.66185 16.6729 9.73431 16.6232 9.79419C 16.5735 9.85407 16.5083 9.89906 16.4347 9.9242C 16.0359 10.0736 15.5967 10.0736 15.1979 9.9242C 15.1077 9.88913 15.0342 9.82095 14.9924 9.73352C 14.9366 9.63177 14.9065 9.51785 14.9049 9.40174C 14.9049 9.2492 14.9049 9.09284 14.9049 8.94029C 14.9049 7.19367 14.9049 5.44577 14.9049 3.69661C 14.9049 3.50593 14.9049 3.31525 14.9049 3.12076C 14.9049 3.07118 14.882 3.0483 14.8326 3.0483C 14.8165 3.04278 14.7991 3.04278 14.7831 3.0483C 14.6537 3.1894 14.5243 3.3305 14.4025 3.47923L 10.5246 8.2119L 9.61126 9.32546C 9.52753 9.42843 9.44 9.53521 9.34867 9.63055C 9.2068 9.76632 9.03878 9.87167 8.85489 9.94014C 8.671 10.0086 8.4751 10.0388 8.27918 10.0288C 8.08326 10.0188 7.89143 9.96884 7.71543 9.88201C 7.53943 9.79518 7.38296 9.67328 7.25558 9.52377L 6.38029 8.45597L 2.14464 3.29618C 2.07213 3.20907 1.99327 3.12749 1.90869 3.05211C 1.90869 3.05211 1.83639 3.05974 1.78692 3.08262Z"/>
<path id="path5_fill" d="M 16.8182 5.13252C 16.8182 6.43931 16.8182 7.74483 16.8182 9.04907C 16.8182 9.22069 16.8182 9.39611 16.8182 9.56772C 16.8111 9.655 16.7779 9.73811 16.7229 9.80616C 16.6679 9.8742 16.5937 9.92402 16.51 9.94908C 16.1256 10.0837 15.707 10.0837 15.3226 9.94908C 15.2587 9.92765 15.2008 9.8912 15.1538 9.84277C 15.1068 9.79433 15.072 9.73533 15.0524 9.67069C 15.0238 9.57916 15.0072 9.4843 15.0029 9.38848C 15.0029 9.23594 15.0029 9.07959 15.0029 8.92704C 15.0029 7.16008 15.0029 5.39311 15.0029 3.62615C 15.0029 3.45454 15.0029 3.28293 14.9801 3.11132C 14.9801 3.11132 14.9801 3.08081 14.9496 3.07318C 14.9436 3.06527 14.9358 3.05886 14.9269 3.05445C 14.918 3.05004 14.9082 3.04775 14.8983 3.04775C 14.8883 3.04775 14.8785 3.05004 14.8696 3.05445C 14.8607 3.05886 14.8529 3.06527 14.8469 3.07318C 14.6756 3.27911 14.4968 3.48123 14.3255 3.68717L 9.75879 9.25501C 9.64843 9.38849 9.54187 9.52196 9.42009 9.63637C 9.27829 9.78141 9.10475 9.89138 8.91319 9.95757C 8.72164 10.0238 8.51734 10.0444 8.31646 10.0177C 8.13381 10.0094 7.95488 9.96308 7.79108 9.88167C 7.62727 9.80025 7.48219 9.68554 7.36506 9.54484L 6.9845 9.10246L 2.27695 3.37827L 2.05623 3.11132C 2.00676 3.05411 1.93445 3.02742 1.90781 3.06174C 1.88363 3.0874 1.86657 3.11895 1.85834 3.15327C 1.85834 3.32488 1.85834 3.5003 1.85834 3.67192C 1.85834 5.45159 1.85834 7.23762 1.85834 9.03001C 1.8671 9.20278 1.8671 9.37588 1.85834 9.54865C 1.84936 9.64761 1.80848 9.74094 1.74188 9.81456C 1.67528 9.88818 1.58659 9.93807 1.48919 9.95671C 1.13596 10.0665 0.757825 10.0665 0.404593 9.95671C 0.308785 9.93375 0.221746 9.88327 0.154147 9.81147C 0.086548 9.73966 0.0413279 9.64965 0.0240313 9.55247C 0.0118688 9.49607 0.005493 9.43856 0.00500327 9.38086C 0.00500327 9.26645 0.00500327 9.15204 0.00500327 9.03382C 0.00500327 6.44058 0.00500327 3.84734 0.00500327 1.2541C -0.00166776 1.13851 -0.00166776 1.02265 0.00500327 0.907064C 0.0208633 0.777913 0.0475979 0.650338 0.0849212 0.525705C 0.112738 0.422664 0.166566 0.328533 0.241218 0.252388C 0.315871 0.176244 0.408833 0.12065 0.51115 0.0909556C 0.75537 -0.000762242 1.02 -0.0236619 1.2763 0.0247462C 1.53259 0.0731543 1.77075 0.19102 1.96489 0.365535C 2.08748 0.484805 2.2019 0.612213 2.3074 0.746893L 7.78368 7.42067L 8.26318 7.99271C 8.27602 8.0067 8.29161 8.01786 8.30896 8.0255C 8.32632 8.03313 8.34508 8.03707 8.36403 8.03707C 8.38299 8.03707 8.40174 8.03313 8.4191 8.0255C 8.43646 8.01786 8.45205 8.0067 8.46488 7.99271C 8.60188 7.83254 8.74269 7.67237 8.87589 7.5122L 14.4854 0.781214C 14.5843 0.662993 14.6795 0.540959 14.7822 0.430365C 14.8892 0.311386 15.0194 0.215527 15.1646 0.148646C 15.3099 0.0817648 15.4672 0.0452647 15.627 0.0413771C 15.7986 0.0344707 15.9705 0.0421242 16.1408 0.0642577C 16.3028 0.0889472 16.4526 0.165376 16.5677 0.282182C 16.6829 0.398988 16.7574 0.549932 16.7801 0.712567C 16.7989 0.884778 16.8065 1.05802 16.803 1.23122C 16.8131 2.52529 16.8182 3.82573 16.8182 5.13252Z"/>
<path id="path6_fill" d="M 1.22502 5.06189C 1.22502 5.01613 1.20599 4.97418 1.17935 4.9513C 1.12238 4.90052 1.06128 4.8546 0.99668 4.81401C 0.749005 4.64659 0.543688 4.42362 0.397033 4.1628C 0.250378 3.90197 0.166422 3.61048 0.151834 3.31146C 0.0896493 2.83333 0.12067 2.34765 0.24317 1.88136C 0.397923 1.31871 0.766888 0.839424 1.27069 0.546605C 1.58701 0.36619 1.93001 0.237456 2.28678 0.165246C 2.85012 0.0493173 3.42426 -0.00566225 3.99931 0.0012586C 5.45559 0.0012586 6.91187 0.0012586 8.36815 0.0012586C 8.94375 -0.00944982 9.51859 0.0481536 10.0807 0.172869C 10.3037 0.226776 10.5224 0.296878 10.7352 0.382618C 11.106 0.520763 11.4337 0.754764 11.685 1.06086C 11.9363 1.36696 12.1023 1.73425 12.1662 2.12543C 12.2736 2.65433 12.2593 3.20081 12.1243 3.72333C 12.0227 4.13709 11.7805 4.5025 11.4393 4.7568C 11.348 4.82545 11.2528 4.89028 11.1653 4.96655C 11.1424 4.98562 11.1463 5.0352 11.1348 5.07714C 11.2642 5.15723 11.3936 5.2335 11.5154 5.32121C 11.716 5.45224 11.8873 5.62364 12.0183 5.82453C 12.1494 6.02543 12.2373 6.25142 12.2765 6.48818C 12.3651 6.96156 12.3573 7.44798 12.2537 7.91827C 12.181 8.23866 12.0418 8.54009 11.8451 8.80293C 11.6484 9.06578 11.3986 9.28412 11.112 9.44371C 10.7968 9.6266 10.4534 9.75549 10.0959 9.82507C 9.74129 9.90957 9.37933 9.95938 9.01511 9.9738C 8.70686 9.9738 8.40241 9.99286 8.09415 9.99286L 4.22004 9.99286C 3.87373 9.99286 3.53122 9.99286 3.18491 9.96617C 2.74433 9.94071 2.30852 9.86131 1.8872 9.72973C 1.62983 9.65264 1.38404 9.54103 1.15652 9.39794C 0.829578 9.20981 0.554207 8.94349 0.354991 8.62275C 0.155775 8.302 0.0389126 7.93682 0.0148341 7.55979C -0.004943 7.27285 -0.004943 6.98487 0.0148341 6.69792C 0.0279643 6.4285 0.103593 6.16587 0.235714 5.93086C 0.367836 5.69585 0.552813 5.49495 0.775957 5.3441C 0.935793 5.24113 1.06899 5.15342 1.22502 5.06189ZM 6.13807 8.49412L 8.26541 8.49412C 8.57366 8.49412 8.87811 8.49412 9.18636 8.47124C 9.4166 8.46046 9.64381 8.41415 9.85996 8.33395C 10.0087 8.29285 10.143 8.2106 10.2473 8.09662C 10.3516 7.98264 10.4218 7.84154 10.4498 7.68946C 10.5286 7.31073 10.5169 6.91869 10.4156 6.54538C 10.384 6.424 10.3259 6.31114 10.2457 6.21488C 10.1654 6.11862 10.0649 6.04134 9.95129 5.98859C 9.78045 5.90126 9.5967 5.84203 9.40709 5.81317C 9.04704 5.7553 8.6833 5.72344 8.31868 5.71783L 4.064 5.71783C 3.69907 5.71649 3.33477 5.7484 2.9756 5.81317C 2.82563 5.84111 2.67804 5.88063 2.53415 5.93139C 2.35888 5.98801 2.20427 6.09536 2.08981 6.23992C 1.97535 6.38448 1.90617 6.55978 1.891 6.74369C 1.85164 7.02962 1.85164 7.31962 1.891 7.60556C 1.90661 7.76975 1.97017 7.92569 2.07372 8.05388C 2.17728 8.18207 2.31625 8.27684 2.47326 8.32632C 2.68852 8.41072 2.91599 8.45966 3.14686 8.47124C 3.41705 8.47124 3.68345 8.49412 3.94984 8.49412L 6.13807 8.49412ZM 6.17232 4.21528L 8.35293 4.21528C 8.61933 4.21528 8.88953 4.21527 9.15592 4.19621C 9.38263 4.19108 9.60723 4.15121 9.8219 4.07799C 9.96936 4.03364 10.1022 3.95044 10.2067 3.83708C 10.3111 3.72371 10.3832 3.58433 10.4156 3.43349C 10.515 3.05864 10.515 2.66426 10.4156 2.28941C 10.3849 2.16818 10.3276 2.05532 10.248 1.95902C 10.1683 1.86271 10.0683 1.78538 9.9551 1.73263C 9.76799 1.63546 9.56373 1.57586 9.35381 1.5572C 9.01131 1.53432 8.66499 1.5 8.32249 1.5C 6.9068 1.5 5.49111 1.5 4.07542 1.5C 3.73292 1.5 3.38661 1.53432 3.0441 1.5572C 2.83362 1.57422 2.62828 1.63117 2.43901 1.725C 2.32451 1.77452 2.22262 1.84926 2.14092 1.94368C 2.05922 2.03809 1.99981 2.14975 1.96711 2.27034C 1.85943 2.65962 1.85943 3.07091 1.96711 3.46019C 2.00177 3.60066 2.07226 3.7297 2.17166 3.83466C 2.27106 3.93962 2.39597 4.01689 2.53415 4.05892C 2.7489 4.13997 2.97479 4.18757 3.20394 4.20002C 3.47033 4.20002 3.74053 4.21909 4.00692 4.2229L 6.17232 4.21528Z"/>
<path id="path7_fill" d="M 6.07376 0.0317475C 6.62938 0.0317475 7.185 0.0317475 7.74062 0.0317475C 8.22012 0.0317475 8.69963 0.058442 9.17533 0.0965779C 9.65359 0.134086 10.1233 0.244688 10.5682 0.424547C 10.8172 0.517851 11.0517 0.646263 11.2646 0.805906C 11.493 0.983142 11.681 1.20713 11.8162 1.46294C 11.9514 1.71874 12.0306 2.00049 12.0486 2.28939C 12.0486 2.461 12.0486 2.63643 12.0486 2.80804C 12.0486 4.28771 12.0486 5.76739 12.0486 7.24706C 12.0486 7.38053 12.0486 7.51782 12.0486 7.6513C 12.0409 8.00861 11.9412 8.35787 11.7591 8.66522C 11.5771 8.97257 11.3189 9.22759 11.0096 9.40555C 10.6285 9.62996 10.2113 9.78611 9.77662 9.867C 9.3827 9.95328 8.98105 9.99928 8.57785 10.0043L 7.43617 10.0043L 4.27751 10.0043C 3.89695 10.0043 3.55064 10.0043 3.1853 9.97759C 2.72534 9.95294 2.27023 9.87095 1.8305 9.73352C 1.51655 9.64326 1.21864 9.50429 0.947597 9.32165C 0.71263 9.1708 0.512159 8.97185 0.35934 8.73787C 0.206522 8.50389 0.104811 8.24017 0.0608887 7.96401C 0.0241066 7.7562 0.00374827 7.54579 3.48414e-07 7.33477C 3.48414e-07 5.77882 3.48414e-07 4.22288 3.48414e-07 2.66694C 0.00464925 2.45579 0.0262838 2.24536 0.0646951 2.03769C 0.109776 1.7615 0.212795 1.49803 0.366953 1.26466C 0.521112 1.0313 0.722904 0.833347 0.959014 0.683874C 1.34731 0.435814 1.77838 0.262506 2.23009 0.172848C 2.85649 0.0481561 3.49435 -0.00937064 4.1329 0.00123812C 4.78366 0.00123812 5.43822 0.00123812 6.08898 0.00123812L 6.07376 0.0317475ZM 6.05093 8.53224L 7.42856 8.53224L 8.57024 8.53224C 8.83812 8.52231 9.10328 8.47481 9.358 8.39113C 9.61832 8.31871 9.8539 8.17627 10.0392 7.97927C 10.1487 7.87002 10.2161 7.72548 10.2295 7.57122C 10.2295 7.3996 10.2295 7.22799 10.2295 7.05257C 10.2295 5.72798 10.2295 4.40339 10.2295 3.07881C 10.2295 2.94533 10.2295 2.81186 10.2295 2.67457C 10.2338 2.53115 10.2011 2.38904 10.1344 2.26207C 10.0677 2.1351 9.96937 2.02758 9.84893 1.94998C 9.56158 1.75751 9.23042 1.64077 8.88611 1.61057C 8.60066 1.57534 8.31359 1.55498 8.02604 1.54955C 6.70422 1.54955 5.38241 1.54955 4.06059 1.54955C 3.75388 1.55342 3.44765 1.57507 3.14344 1.61438C 2.79792 1.64479 2.46681 1.76724 2.18442 1.96905C 2.06281 2.0482 1.96381 2.15765 1.8971 2.28667C 1.83038 2.4157 1.79826 2.55987 1.80386 2.70507C 1.80386 2.78134 1.80386 2.85762 1.80386 2.93389C 1.80386 4.35509 1.80386 5.77501 1.80386 7.19367C 1.80386 7.26994 1.80386 7.34621 1.80386 7.42249C 1.80178 7.54745 1.82893 7.67118 1.88311 7.78375C 1.9373 7.89633 2.01703 7.99463 2.11592 8.07079C 2.3096 8.22833 2.53378 8.3439 2.77429 8.4102C 3.12637 8.50573 3.49045 8.54941 3.85509 8.53986C 4.59718 8.53605 5.32405 8.53224 6.05093 8.53224Z"/>
<path id="path8_fill" d="M 6.01287 9.99584L 3.65339 9.99584C 3.05896 9.99519 2.46742 9.91307 1.8952 9.75177C 1.5993 9.67109 1.31618 9.54913 1.05416 9.38948C 0.777662 9.23283 0.541912 9.01307 0.36603 8.74803C 0.190148 8.483 0.0790899 8.18014 0.0418624 7.86405C 0.0163147 7.6744 0.00233463 7.48336 4.06483e-07 7.29201C 4.06483e-07 5.76657 4.06483e-07 4.24876 4.06483e-07 2.73858C 0.00233957 2.52796 0.0188671 2.31773 0.0494723 2.10934C 0.0874595 1.82224 0.187504 1.5469 0.342624 1.30253C 0.497744 1.05817 0.704203 0.850663 0.947597 0.694497C 1.31798 0.453423 1.72951 0.282775 2.16159 0.191101C 2.76131 0.0583661 3.37414 -0.0056046 3.98828 0.000421044C 5.34816 0.000421044 6.7093 0.000421044 8.07171 0.000421044C 8.68566 -0.00581714 9.29837 0.0568642 9.8984 0.187289C 10.2919 0.271999 10.6696 0.418739 11.0173 0.622038C 11.2513 0.755287 11.4566 0.933805 11.6212 1.14723C 11.7859 1.36065 11.9065 1.60472 11.9763 1.86527C 12.0098 1.99022 12.0327 2.11779 12.0448 2.24662C 12.0448 2.41824 12.0448 2.59366 12.0448 2.76527C 12.0448 4.24495 12.0448 5.72462 12.0448 7.20429C 12.0448 7.35683 12.0448 7.51319 12.0448 7.66574C 12.0324 8.01357 11.932 8.35253 11.7529 8.65074C 11.5738 8.94895 11.322 9.19661 11.0211 9.37041C 10.6061 9.61254 10.1511 9.77789 9.67768 9.85855C 9.18723 9.9514 8.68875 9.99484 8.18968 9.98821L 6.01287 9.98821L 6.01287 9.99584ZM 6.05473 8.50091L 6.9148 8.50091L 8.41041 8.50091C 8.69855 8.49634 8.98497 8.45533 9.26287 8.37888C 9.52593 8.31051 9.76871 8.17971 9.97071 7.99752C 10.0524 7.92994 10.1195 7.8464 10.1679 7.75198C 10.2163 7.65757 10.245 7.55427 10.2523 7.44837C 10.2523 7.31489 10.2523 7.18141 10.2523 7.04412C 10.2523 5.6814 10.2523 4.31868 10.2523 2.95595C 10.2523 2.84154 10.2523 2.72714 10.2523 2.60892C 10.246 2.46875 10.2055 2.33226 10.1346 2.2113C 10.0636 2.09035 9.96425 1.98858 9.84512 1.91484C 9.57344 1.73229 9.26105 1.61964 8.93558 1.58688C 8.61238 1.5451 8.28716 1.52091 7.96135 1.51442C 6.67759 1.51442 5.39382 1.51442 4.11006 1.51442C 3.76501 1.52057 3.42062 1.54732 3.07874 1.5945C 2.75285 1.6286 2.44172 1.74831 2.17681 1.94154C 2.05625 2.02177 1.95805 2.13143 1.89147 2.26019C 1.82489 2.38896 1.79212 2.53259 1.79625 2.67756C 1.79625 2.7729 1.79625 2.86824 1.79625 2.96358C 1.79625 4.3263 1.79625 5.68903 1.79625 7.05175C 1.79625 7.16616 1.79625 7.28057 1.79625 7.39879C 1.79624 7.5242 1.82508 7.64793 1.88052 7.76036C 1.93596 7.8728 2.01651 7.97091 2.11592 8.0471C 2.30874 8.20511 2.5333 8.31958 2.77429 8.38269C 3.12681 8.47631 3.49044 8.52121 3.85509 8.51617L 6.05473 8.50091Z"/>
<path id="path9_fill" d="M 6.0319 -4.65526e-07C 6.58752 -4.65526e-07 7.14314 -4.65526e-07 7.69876 -4.65526e-07C 8.17826 -4.65526e-07 8.65777 0.026694 9.13348 0.0648298C 9.61241 0.100915 10.0832 0.208899 10.5301 0.38517C 10.7818 0.478007 11.0188 0.606427 11.2342 0.766529C 11.4513 0.926669 11.6333 1.12982 11.7688 1.36336C 11.9043 1.59691 11.9905 1.85587 12.0219 2.12417C 12.049 2.33412 12.063 2.54554 12.0638 2.75722C 12.0638 4.25469 12.0638 5.75344 12.0638 7.25345C 12.0627 7.46512 12.0488 7.67654 12.0219 7.8865C 11.9902 8.15475 11.904 8.41363 11.7685 8.64714C 11.633 8.88065 11.4511 9.08384 11.2342 9.24414C 10.9434 9.46444 10.6144 9.62866 10.2637 9.72846C 9.82392 9.86613 9.36893 9.94938 8.90894 9.97635C 8.58166 9.97635 8.25818 10.003 7.9309 10.003L 4.12529 10.003C 3.77898 10.003 3.43647 10.003 3.09016 9.97253C 2.56996 9.94003 2.05721 9.83213 1.56791 9.65219C 1.29508 9.55552 1.03845 9.41794 0.806791 9.24414C 0.574241 9.07255 0.381659 8.85239 0.242359 8.59889C 0.10306 8.34538 0.0203681 8.06458 2.32276e-06 7.77591C 2.32276e-06 7.58523 2.32276e-06 7.39455 2.32276e-06 7.20006C 2.32276e-06 5.74072 2.32276e-06 4.28012 2.32276e-06 2.81824C 2.32276e-06 2.62756 2.32276e-06 2.43688 2.32276e-06 2.24239C 0.021338 1.9441 0.108958 1.65437 0.256453 1.39439C 0.403948 1.13441 0.607582 0.910772 0.852456 0.739837C 1.24798 0.467106 1.69465 0.277682 2.16539 0.18305C 2.79128 0.0542153 3.42932 -0.0058862 4.0682 0.00381103C 4.71896 0.00381103 5.37352 0.00381103 6.02428 0.00381103L 6.0319 -4.65526e-07ZM 6.0319 8.49668C 6.6446 8.49668 7.25731 8.49668 7.87001 8.49668C 8.15543 8.49668 8.44465 8.49668 8.73008 8.46235C 9.09428 8.43871 9.44771 8.32894 9.7614 8.14201C 9.91422 8.06018 10.0405 7.93631 10.1255 7.78497C 10.2104 7.63364 10.2505 7.46114 10.2409 7.28777C 10.2409 7.19243 10.2409 7.09709 10.2409 6.99794C 10.2409 5.67335 10.2409 4.34877 10.2409 3.02418C 10.2409 2.90977 10.2409 2.79536 10.2409 2.67714C 10.2473 2.51264 10.2081 2.34958 10.1274 2.20615C 10.0468 2.06272 9.92797 1.94456 9.78423 1.86484C 9.50753 1.68993 9.19303 1.584 8.86708 1.55594C 8.5436 1.52162 8.21632 1.49493 7.89284 1.49493C 6.6243 1.49493 5.35577 1.49493 4.08723 1.49493C 3.76157 1.49939 3.43638 1.52103 3.11299 1.55976C 2.76788 1.59195 2.43722 1.71423 2.15398 1.91442C 2.04205 1.98993 1.94933 2.09066 1.88324 2.20854C 1.81715 2.32642 1.77954 2.45817 1.77341 2.59324C 1.77341 2.66951 1.77341 2.74578 1.77341 2.82205C 1.77341 4.26105 1.77341 5.70131 1.77341 7.14285C 1.77341 7.23819 1.77341 7.33353 1.77341 7.42887C 1.7817 7.54423 1.8137 7.65664 1.8674 7.75901C 1.9211 7.86139 1.99535 7.95154 2.08548 8.02379C 2.2632 8.17091 2.46914 8.27993 2.69057 8.34413C 3.00301 8.43757 3.32733 8.4851 3.65339 8.48524L 6.0319 8.49668Z"/>
<path id="path10_fill" d="M 10.5188 7.52266C 10.5188 7.33579 10.5188 7.1413 10.5188 6.95443C 10.5188 4.99425 10.5188 3.03406 10.5188 1.07388C 10.5188 0.902267 10.5188 0.726841 10.5188 0.55523C 10.5161 0.437972 10.5552 0.323575 10.6291 0.232673C 10.7031 0.14177 10.8071 0.0803414 10.9222 0.059462C 11.2396 -0.0198225 11.5715 -0.0198225 11.8889 0.059462C 12.0135 0.0819548 12.1261 0.147885 12.2069 0.245591C 12.2877 0.343297 12.3314 0.466486 12.3303 0.593368C 12.3303 0.688708 12.3303 0.784047 12.3303 0.879387C 12.3303 1.12727 12.3303 1.37897 12.3303 1.64211C 12.3303 4.0828 12.3303 6.52222 12.3303 8.96038C 12.3303 9.13199 12.3303 9.30742 12.3303 9.47903C 12.3238 9.57488 12.3059 9.66962 12.277 9.76123C 12.2586 9.82648 12.2243 9.8861 12.1771 9.93471C 12.1299 9.98331 12.0714 10.0194 12.0068 10.0396C 11.733 10.1334 11.4418 10.1647 11.1544 10.1312C 10.9816 10.1174 10.8159 10.0567 10.6749 9.95572C 10.5226 9.84132 10.3666 9.72691 10.222 9.60106L 2.70211 3.17135L 2.39385 2.90821C 2.01329 2.58787 1.92576 2.52686 1.8839 2.59931C 1.80861 2.77338 1.78868 2.96646 1.82682 3.15228C 1.82682 5.13154 1.82682 7.11079 1.82682 9.09004C 1.82941 9.28226 1.82178 9.47449 1.80398 9.66589C 1.79776 9.75516 1.76347 9.84015 1.70604 9.90867C 1.6486 9.97719 1.57098 10.0257 1.48431 10.0473C 1.11411 10.1731 0.712833 10.1731 0.342629 10.0473C 0.268042 10.0266 0.200558 9.98577 0.14754 9.92928C 0.0945218 9.87279 0.0580075 9.80278 0.0419847 9.72691C 0.01992 9.63294 0.00591479 9.53726 0.000122705 9.44089C 0.000122705 9.28835 0.000122705 9.13199 0.000122705 8.97945C 0.000122705 6.36587 0.000122705 3.75356 0.000122705 1.14252C 0.000122705 0.951841 0.000122705 0.759892 0.000122705 0.56667C -0.00250648 0.44886 0.0371495 0.33402 0.11188 0.243036C 0.186609 0.152053 0.291448 0.0909694 0.407323 0.0709023C 0.647842 0.00214324 0.900412 -0.0133459 1.1475 0.0255077C 1.39459 0.0643613 1.63029 0.156631 1.83823 0.295908C 2.00949 0.417943 2.16932 0.555233 2.32916 0.677267L 6.73606 4.46797L 10.0964 7.35867C 10.1834 7.43232 10.2763 7.49865 10.3742 7.55698C 10.4199 7.56461 10.4694 7.53791 10.5188 7.52266Z"/>
<path id="path11_fill" d="M 12.3454 5.09251C 12.3454 6.43744 12.3454 7.78237 12.3454 9.12729C 12.3454 9.27984 12.3454 9.43619 12.3454 9.58873C 12.3428 9.70507 12.3 9.8169 12.2244 9.9052C 12.1488 9.9935 12.0449 10.0528 11.9306 10.0731C 11.7455 10.1216 11.5549 10.146 11.3636 10.1455C 11.0888 10.154 10.8197 10.0663 10.6024 9.89764C 10.4807 9.8023 10.3627 9.70696 10.2447 9.6078L 2.66012 3.15902L 2.04362 2.64419C 2.02416 2.62443 1.99905 2.61125 1.97176 2.60646C 1.94448 2.60168 1.91638 2.60553 1.89139 2.61749C 1.82669 2.648 1.8305 2.71283 1.8305 2.76622C 1.8305 2.93783 1.8305 3.11326 1.8305 3.28487C 1.8305 5.22472 1.8305 7.16457 1.8305 9.10441C 1.8305 9.29509 1.8305 9.48577 1.80386 9.68026C 1.79788 9.76903 1.76415 9.85365 1.70744 9.92211C 1.65074 9.99057 1.57396 10.0394 1.488 10.0616C 1.11784 10.1877 0.716468 10.1877 0.346311 10.0616C 0.260349 10.0394 0.183564 9.99057 0.126862 9.92211C 0.0701603 9.85365 0.0364236 9.76903 0.0304442 9.68026C 0.0105372 9.48895 0.000375047 9.29676 -1.39366e-06 9.10441C -1.39366e-06 6.41456 -1.39366e-06 3.72598 -1.39366e-06 1.03867C -1.39366e-06 0.92426 -1.39366e-06 0.806043 -1.39366e-06 0.691636C 0.00887951 0.596646 0.0241405 0.502362 0.0456699 0.409428C 0.0561277 0.350751 0.0801635 0.295348 0.115852 0.247663C 0.151541 0.199979 0.197886 0.161339 0.251171 0.134849C 0.299169 0.103727 0.351854 0.0805518 0.407202 0.0662073C 0.647683 -0.00108264 0.899724 -0.0161618 1.14649 0.0219823C 1.39325 0.0601263 1.62904 0.15061 1.83811 0.28739C 2.02459 0.420866 2.21867 0.569596 2.3747 0.722139L 6.65222 4.39844L 10.0544 7.32728L 10.2295 7.47601C 10.2546 7.50384 10.2851 7.5263 10.3191 7.54203C 10.3531 7.55776 10.3899 7.56644 10.4274 7.56754C 10.4807 7.56754 10.5035 7.51414 10.5073 7.37304C 10.5111 7.23194 10.5073 7.026 10.5073 6.85439C 10.5073 4.91455 10.5073 2.9747 10.5073 1.03486C 10.5073 0.863245 10.5073 0.687819 10.5073 0.516208C 10.5113 0.418675 10.5464 0.324985 10.6073 0.248827C 10.6682 0.172669 10.7519 0.118034 10.846 0.0928994C 11.2165 -0.0309668 11.6172 -0.0309668 11.9877 0.0928994C 12.0709 0.120755 12.1448 0.171116 12.2012 0.238417C 12.2576 0.305718 12.2943 0.387338 12.3074 0.474258C 12.3235 0.549499 12.3324 0.626125 12.334 0.703076C 12.334 0.836552 12.334 0.97384 12.334 1.10732C 12.3441 2.43444 12.3479 3.76284 12.3454 5.09251Z"/>
<path id="path12_fill" d="M 6.38962 5.80809L 2.48126 5.80809C 2.30973 5.80659 2.13823 5.81422 1.9675 5.83097C 1.92564 5.83097 1.87236 5.892 1.85333 5.93776C 1.8342 5.9915 1.82643 6.04864 1.8305 6.10555C 1.8305 6.50979 1.8305 6.91404 1.8305 7.31447C 1.82737 7.45874 1.86061 7.60146 1.92713 7.72945C 1.99365 7.85743 2.0913 7.96654 2.21106 8.04667C 2.39595 8.18548 2.60696 8.28537 2.83138 8.34032C 3.09074 8.41242 3.35774 8.45338 3.62675 8.46235L 4.38787 8.46235L 10.2523 8.46235C 10.4236 8.46235 10.5986 8.46235 10.7699 8.46235C 10.8672 8.47305 10.9579 8.51666 11.0271 8.586C 11.0962 8.65533 11.1398 8.74624 11.1504 8.84371C 11.2087 9.10748 11.2087 9.3808 11.1504 9.64456C 11.1343 9.72046 11.0953 9.78961 11.0389 9.84277C 10.9825 9.89592 10.9112 9.93055 10.8346 9.94203C 10.7205 9.94814 10.6062 9.94814 10.4921 9.94203L 3.80561 9.94203C 3.17329 9.94689 2.54329 9.86477 1.93325 9.69796C 1.63753 9.61676 1.35449 9.49483 1.09221 9.33566C 0.815006 9.17946 0.578509 8.9599 0.401948 8.69483C 0.225387 8.42977 0.113747 8.12668 0.0761111 7.81023C 0.0407275 7.63769 0.0153156 7.46325 0 7.28777C 0 5.76233 0 4.2458 0 2.73816C 0.00256694 2.52755 0.0190962 2.31733 0.0494748 2.10891C 0.0881869 1.81234 0.192712 1.52823 0.355377 1.27745C 0.518041 1.02667 0.734712 0.815603 0.989462 0.659749C 1.34785 0.436658 1.74171 0.276722 2.15398 0.186868C 2.71643 0.0629289 3.29061 0.000274264 3.86651 -2.32763e-07C 4.55532 -2.32763e-07 5.24794 -2.32763e-07 5.93676 -2.32763e-07C 6.4353 -2.32763e-07 6.57229 0.160171 6.61035 0.655938C 6.62908 0.848694 6.60303 1.04318 6.53424 1.22416C 6.51502 1.28903 6.47749 1.34694 6.42617 1.39092C 6.37486 1.4349 6.31194 1.46308 6.24501 1.47205C 6.09342 1.48963 5.94095 1.49854 5.78834 1.49874C 5.27078 1.49874 4.75321 1.49874 4.23565 1.49874C 3.85509 1.49874 3.50878 1.53306 3.14724 1.57501C 2.95766 1.60065 2.77137 1.64668 2.59162 1.7123C 2.39039 1.77922 2.20782 1.89291 2.05884 2.04408C 1.91521 2.17479 1.82901 2.35713 1.81908 2.55129C 1.81908 3.08901 1.81908 3.62672 1.81908 4.16444C 1.82121 4.20269 1.83635 4.23907 1.86196 4.26751C 1.88758 4.29596 1.92213 4.31476 1.95989 4.3208C 2.15017 4.3208 2.34045 4.3208 2.53454 4.3208L 10.2752 4.3208C 10.4464 4.3208 10.6215 4.3208 10.7927 4.3208C 10.8789 4.32357 10.962 4.35342 11.0303 4.40612C 11.0986 4.45881 11.1486 4.53169 11.1733 4.61444C 11.2763 4.90688 11.2763 5.22583 11.1733 5.51826C 11.1517 5.59327 11.1076 5.65982 11.047 5.70893C 10.9864 5.75803 10.9123 5.78732 10.8346 5.79284C 10.6622 5.80162 10.4894 5.80162 10.317 5.79284L 6.38962 5.80809Z"/>
<path id="path13_fill" d="M 3.11835 7.46933C 3.0118 7.62187 2.93569 7.72865 2.86338 7.85069L 1.82445 9.45621L 1.60753 9.79562C 1.53812 9.91189 1.43627 10.0053 1.31455 10.0642C 1.19283 10.1232 1.05655 10.1451 0.922514 10.1274C 0.631739 10.1124 0.358437 9.98373 0.161391 9.76893C 0.0768484 9.68858 0.0218421 9.58198 0.00526671 9.4664C -0.0113087 9.35082 0.0115203 9.23302 0.0700602 9.13206C 0.13095 9.01383 0.207058 8.89943 0.279364 8.78884L 5.53111 0.734537C 5.57297 0.669706 5.61864 0.608689 5.6567 0.543858C 5.74325 0.404638 5.85943 0.286296 5.99693 0.197297C 6.13442 0.108298 6.28984 0.0508366 6.45207 0.0290207C 6.6596 -0.00967419 6.87247 -0.00967419 7.08 0.0290207C 7.23212 0.0523675 7.37796 0.106291 7.50876 0.187556C 7.63956 0.26882 7.75261 0.375748 7.84112 0.501908L 8.07327 0.833688L 13.5191 8.68587C 13.618 8.82697 13.717 8.96807 13.8045 9.1168C 13.8675 9.21547 13.8951 9.33273 13.8827 9.44921C 13.8702 9.5657 13.8185 9.67444 13.736 9.75748C 13.6095 9.90322 13.4467 10.0128 13.2642 10.0751C 13.0818 10.1374 12.8861 10.1502 12.6971 10.1122C 12.5454 10.0856 12.4095 10.0025 12.3165 9.87952C 12.2366 9.77274 12.1605 9.66215 12.0844 9.55155L 10.9769 7.93078C 10.9008 7.82018 10.8247 7.70959 10.7448 7.60281C 10.7232 7.57063 10.6944 7.5439 10.6607 7.52471C 10.627 7.50553 10.5894 7.49441 10.5507 7.49222L 10.2653 7.49222L 3.11835 7.49222L 3.11835 7.46933ZM 4.19534 5.9439C 4.30571 5.9439 4.41988 5.9439 4.53404 5.9439L 9.18069 5.9439L 9.46612 5.9439C 9.48436 5.94076 9.50153 5.93307 9.51604 5.92154C 9.53054 5.91001 9.54192 5.89501 9.54913 5.87791C 9.55633 5.86082 9.55912 5.84219 9.55725 5.82373C 9.55538 5.80527 9.54891 5.78758 9.53842 5.77229C 9.48895 5.6922 9.43948 5.6083 9.3862 5.52822L 7.04194 2.05404C 6.98866 1.97395 6.93158 1.89768 6.87449 1.82141C 6.85321 1.80339 6.82624 1.79352 6.79838 1.79352C 6.77052 1.79352 6.74356 1.80339 6.72227 1.82141C 6.68397 1.86359 6.64838 1.90818 6.61572 1.95488L 4.26004 5.64262C 4.2187 5.70691 4.18547 5.77608 4.1611 5.84856C 4.13826 5.86762 4.1649 5.90958 4.18012 5.95534L 4.19534 5.9439Z"/>
<path id="path14_fill" d="M 10.6735 7.51907C 10.2206 7.46949 7.35117 7.45424 3.53414 7.48094C 3.38192 7.48094 3.22969 7.48093 3.06986 7.5C 2.9595 7.6678 2.85293 7.82415 2.75018 7.98433L 1.78736 9.48688C 1.71505 9.60129 1.64275 9.71188 1.56664 9.82248C 1.49588 9.92694 1.39759 10.0097 1.2827 10.0615C 1.16782 10.1134 1.04084 10.1323 0.91588 10.1161C 0.625856 10.1014 0.35292 9.97418 0.154757 9.76146C 0.0759806 9.67697 0.0244098 9.57067 0.00676203 9.45639C -0.0108858 9.34212 0.00620323 9.22517 0.0558072 9.12077C 0.110026 9.01969 0.169738 8.92166 0.234671 8.82713L 5.56253 0.685116L 5.65767 0.540198C 5.76027 0.377123 5.90233 0.242676 6.07066 0.149336C 6.23898 0.0559967 6.42811 0.00679383 6.62049 0.00629763C 6.73451 -0.00209859 6.84898 -0.00209859 6.96299 0.00629763C 7.12635 0.0147557 7.28598 0.0582913 7.43109 0.133957C 7.57619 0.209622 7.70339 0.315647 7.80404 0.444858C 7.87635 0.536384 7.93724 0.631726 8.00574 0.727066L 13.5543 8.76611C 13.619 8.86145 13.6875 8.95298 13.7446 9.05213C 13.8302 9.18227 13.8618 9.34072 13.8327 9.49383C 13.8035 9.64694 13.716 9.78262 13.5886 9.87205C 13.3906 10.0255 13.1499 10.1135 12.8998 10.1237C 12.7749 10.135 12.6492 10.1135 12.5351 10.0613C 12.421 10.0091 12.3224 9.92816 12.249 9.82629C 12.1691 9.71951 12.0968 9.6051 12.0207 9.49451L 10.9208 7.87755C 10.8485 7.74026 10.7534 7.63347 10.6735 7.51907ZM 6.76511 1.79868C 6.64293 1.89126 6.54607 2.01325 6.48349 2.15335C 5.76804 3.26438 5.05511 4.37667 4.34473 5.49024C 4.29145 5.57033 4.23818 5.65041 4.18871 5.73431C 4.17154 5.76903 4.15628 5.80468 4.14303 5.84109C 4.1202 5.89067 4.14304 5.97457 4.20013 5.97838C 4.25717 5.9816 4.31433 5.9816 4.37137 5.97838L 9.31867 5.97838C 9.37537 5.98014 9.43196 5.97241 9.48612 5.9555C 9.50164 5.94654 9.51466 5.93381 9.52397 5.91848C 9.53328 5.90315 9.53859 5.88571 9.5394 5.86778C 9.52877 5.81177 9.50674 5.75854 9.4747 5.71142L 6.90591 1.89783C 6.86348 1.85555 6.81622 1.81843 6.76511 1.78724L 6.76511 1.79868Z"/>
<path id="path15_fill" d="M 12.2846 4.2525C 12.2846 5.25166 12.2846 6.25082 12.2846 7.24999C 12.2846 7.45973 12.2846 7.6733 12.2617 7.88304C 12.2392 8.18138 12.1503 8.47087 12.0014 8.73024C 11.8526 8.9896 11.6476 9.21224 11.4017 9.38178C 11.1042 9.59353 10.7718 9.75103 10.4198 9.84704C 9.97832 9.9752 9.52387 10.0532 9.065 10.0797C 8.83667 10.0797 8.60453 10.0797 8.37619 10.0797L 3.88937 10.0797C 3.39045 10.0867 2.89206 10.0445 2.40137 9.95382C 2.02494 9.88349 1.65827 9.76826 1.30916 9.6106C 1.09941 9.51137 0.904671 9.38299 0.73071 9.22924C 0.341193 8.90743 0.0915217 8.44668 0.0342848 7.94406C 0.0107373 7.73387 -0.000699977 7.52251 3.27434e-05 7.311C 3.27434e-05 5.19828 3.27434e-05 3.08554 3.27434e-05 0.972815C 0.00329792 0.781366 0.0185514 0.590311 0.0457012 0.400777C 0.0577767 0.344162 0.0825568 0.291046 0.118163 0.245454C 0.153768 0.199863 0.199266 0.162991 0.251205 0.137638C 0.284712 0.118053 0.3205 0.102685 0.357761 0.0918773C 0.728505 -0.030627 1.1287 -0.030627 1.49945 0.0918773C 1.58329 0.116144 1.65757 0.165837 1.71209 0.234125C 1.7666 0.302412 1.79867 0.385942 1.80389 0.473236C 1.80389 0.663916 1.82673 0.854599 1.82673 1.04909C 1.82673 3.02707 1.82673 5.00505 1.82673 6.98304C 1.82673 7.15465 1.82673 7.33007 1.82673 7.50168C 1.83362 7.60744 1.86138 7.71077 1.90842 7.80569C 1.95545 7.90061 2.02082 7.98523 2.10073 8.05465C 2.28592 8.22376 2.5092 8.34544 2.75149 8.40931C 2.99009 8.48253 3.23677 8.52609 3.48597 8.53898C 3.67625 8.53898 3.86654 8.53898 4.06062 8.53898L 8.2468 8.53898C 8.65004 8.55227 9.05323 8.51122 9.44557 8.41694C 9.66865 8.36068 9.87998 8.26513 10.0697 8.13474C 10.1879 8.05396 10.2845 7.94526 10.3509 7.81822C 10.4172 7.69119 10.4514 7.54973 10.4502 7.40634C 10.4502 7.2538 10.4502 7.09998 10.4502 6.9449C 10.4502 4.98726 10.4502 3.02834 10.4502 1.06816C 10.4502 0.858408 10.4502 0.644851 10.4807 0.435104C 10.4842 0.356844 10.5116 0.281546 10.5592 0.219455C 10.6069 0.157363 10.6725 0.11149 10.7471 0.0880658C 10.8336 0.0470867 10.9261 0.0200563 11.0211 0.00797784C 11.2494 0.00797784 11.4816 0.00797784 11.7099 0.00797784C 11.7861 0.0170471 11.8605 0.0376203 11.9306 0.0689967C 12.0146 0.0935833 12.0891 0.143264 12.1442 0.211407C 12.1993 0.279549 12.2323 0.36291 12.2389 0.450356C 12.2389 0.621967 12.2617 0.793579 12.2617 0.969004C 12.2769 2.08257 12.2846 3.17707 12.2846 4.2525Z"/>
<path id="path16_fill" d="M 5.55789 0.00762625L 10.1589 0.00762625C 10.3301 0.00762625 10.5052 0.00762625 10.6764 0.00762625C 10.7705 0.0151301 10.8592 0.0542394 10.9283 0.118613C 10.9974 0.182988 11.0427 0.268856 11.057 0.362293C 11.1248 0.623623 11.1248 0.898002 11.057 1.15933C 11.04 1.24747 10.9925 1.32677 10.9229 1.38328C 10.8533 1.43978 10.766 1.46986 10.6764 1.46823C 10.5052 1.46823 10.3301 1.46823 10.1589 1.46823L 7.05349 1.46823C 6.90127 1.46823 6.74904 1.46823 6.59681 1.49111C 6.55892 1.49764 6.52422 1.51649 6.49808 1.54475C 6.47195 1.57301 6.45582 1.60911 6.4522 1.64747C 6.4522 1.83815 6.4522 2.02883 6.4522 2.22332C 6.4522 4.4708 6.4522 6.71827 6.4522 8.96575C 6.4522 9.15643 6.4522 9.34711 6.4522 9.5416C 6.44694 9.63847 6.41086 9.73111 6.34922 9.80592C 6.28758 9.88074 6.20363 9.93378 6.10969 9.95728C 5.75889 10.066 5.38351 10.066 5.03271 9.95728C 4.9372 9.93504 4.85027 9.88527 4.78264 9.81412C 4.71502 9.74296 4.66966 9.65354 4.65215 9.55686C 4.6366 9.48159 4.62894 9.4049 4.62932 9.32804C 4.62932 9.17549 4.62932 9.01913 4.62932 8.86659C 4.62932 6.61912 4.62932 4.37164 4.62932 2.12417C 4.62932 1.42247 4.67498 1.4606 3.98236 1.4606L 0.876975 1.4606C 0.705723 1.4606 0.53067 1.46061 0.359417 1.43391C 0.294979 1.42976 0.232896 1.40802 0.179903 1.37105C 0.126909 1.33408 0.0850216 1.28328 0.0587706 1.22416C 0.0303936 1.15341 0.0124402 1.0789 0.00548642 1.00297C -0.00183624 0.887411 -0.00183624 0.771498 0.00548642 0.655935C 0.00548642 0.160169 0.165322 0.0152518 0.671469 -2.56039e-06L 5.56169 -2.56039e-06L 5.55789 0.00762625Z"/>
<path id="path17_fill" d="M 6.9409 10.0259L 3.94969 10.0259C 3.4319 10.0366 2.91432 9.99576 2.4046 9.90389C 2.06458 9.84457 1.73257 9.74603 1.41515 9.61025C 1.22328 9.52461 1.03981 9.42119 0.867138 9.30135C 0.622184 9.12984 0.418068 8.90622 0.269387 8.64647C 0.120706 8.38673 0.0311288 8.09727 0.0070658 7.79879C -0.0023565 7.62604 -0.0023565 7.4529 0.0070658 7.28014C 0.0070658 5.16742 0.0070658 3.05341 0.0070658 0.938142C -0.000677737 0.784425 -0.000677737 0.630418 0.0070658 0.476701C 0.0138184 0.379857 0.0503949 0.287494 0.111741 0.212358C 0.173087 0.137222 0.256178 0.0830138 0.349569 0.0572041C 0.420004 0.0275626 0.494357 0.00829719 0.570301 2.56039e-06C 0.798638 2.56039e-06 1.03078 2.56039e-06 1.25912 2.56039e-06C 1.35327 0.0146301 1.44448 0.0442393 1.52931 0.0877135C 1.59111 0.115149 1.64567 0.156676 1.68862 0.208983C 1.73157 0.26129 1.76171 0.322928 1.77667 0.388984C 1.79849 0.462145 1.81127 0.537714 1.81473 0.613991C 1.81473 0.766534 1.81473 0.922888 1.81473 1.07543C 1.81473 3.05341 1.81473 5.03267 1.81473 7.01319C 1.81473 7.1848 1.81473 7.36023 1.81473 7.53184C 1.82484 7.68652 1.8896 7.83253 1.99741 7.9437C 2.19255 8.15882 2.44673 8.31139 2.72808 8.38227C 2.9849 8.46158 3.25107 8.50645 3.51965 8.51574C 3.78985 8.51574 4.05624 8.51574 4.32644 8.51574L 10.3089 8.51574C 10.4801 8.51574 10.6552 8.51574 10.8264 8.51574C 10.9319 8.51668 11.0336 8.55579 11.1126 8.62586C 11.1916 8.69594 11.2427 8.79226 11.2565 8.8971C 11.2903 9.12594 11.2903 9.35853 11.2565 9.58737C 11.247 9.69123 11.1993 9.78784 11.1226 9.85835C 11.0459 9.92886 10.9457 9.96821 10.8416 9.96873C 10.6894 9.96873 10.5334 9.96873 10.3812 9.96873L 6.92948 9.96873L 6.9409 10.0259Z"/>
<path id="path18_fill" d="M 1.84544 5.08055C 1.84544 6.44327 1.84544 7.806 1.84544 9.16872C 1.85076 9.34183 1.8444 9.51511 1.82641 9.68737C 1.81727 9.7751 1.78239 9.85816 1.72617 9.92603C 1.66995 9.99391 1.59491 10.0436 1.51054 10.0687C 1.14057 10.196 0.738822 10.196 0.368856 10.0687C 0.283761 10.0423 0.207709 9.99256 0.149227 9.9252C 0.0907458 9.85784 0.0521508 9.77548 0.0377694 9.68737C 0.0199488 9.61232 0.00974791 9.53565 0.00732378 9.45855C 0.00732378 9.36321 0.00732378 9.26787 0.00732378 9.17253C 0.00732378 6.44708 0.00732378 3.72164 0.00732378 0.996193C -0.00244064 0.842534 -0.00244064 0.688412 0.00732378 0.534752C 0.0141032 0.428306 0.0547003 0.326831 0.123177 0.245172C 0.191654 0.163513 0.284416 0.105959 0.387885 0.0809344C 0.737508 -0.0269788 1.11144 -0.0269788 1.46107 0.0809344C 1.55431 0.106396 1.6372 0.160614 1.69798 0.235902C 1.75877 0.311191 1.79438 0.403736 1.79977 0.500432C 1.79977 0.672043 1.79977 0.843655 1.79977 1.01908C 1.83021 2.3818 1.84544 3.73562 1.84544 5.08055Z"/>
<path id="path19_fill" d="M 29.3451 5.50712C 29.3451 5.43085 29.3451 5.35458 29.3451 5.27831C 29.3492 4.98627 29.3211 4.69467 29.2614 4.40881C 29.1178 3.59684 28.7875 2.82952 28.2967 2.1676C 27.8059 1.50569 27.1681 0.967349 26.4338 0.595217C 25.8977 0.312148 25.315 0.128679 24.7137 0.0536885C 24.4031 0.0152644 24.0904 -0.00257086 23.7775 0.000298508L 7.67212 0.000298508C 6.911 0.000298508 6.18032 0.000298508 5.43822 0.000298508C 5.14687 -0.00138384 4.85572 0.0164524 4.56674 0.0536885C 3.58154 0.190151 2.65657 0.608586 1.90281 1.25878C 1.31704 1.74324 0.843452 2.34958 0.51488 3.03576C 0.186308 3.72194 0.0106202 4.47153 -9.29105e-07 5.23254C -9.29105e-07 5.36221 -9.29105e-07 5.49187 -9.29105e-07 5.6139C -9.29105e-07 9.87749 -9.29105e-07 14.1411 -9.29105e-07 18.4047C -9.29105e-07 18.5763 -9.29105e-07 18.7517 -9.29105e-07 18.9233C 0.00437455 19.1941 0.0362524 19.4637 0.0951394 19.728C 0.321262 20.8506 0.900397 21.8711 1.7476 22.6398C 2.59481 23.4085 3.66551 23.8849 4.80268 23.9992C 5.07087 24.0242 5.34014 24.0357 5.60948 24.0335L 24.0781 24.0335C 24.6613 24.0219 25.2392 23.919 25.7906 23.7284C 26.6555 23.4224 27.4273 22.8986 28.0318 22.2074C 28.6362 21.5162 29.0531 20.6807 29.2423 19.7814C 29.3218 19.3885 29.3613 18.9886 29.3603 18.5877C 29.3476 14.2402 29.3426 9.88004 29.3451 5.50712Z"/>
<path id="path20_fill" d="M 11.5158 14.4041C 11.3388 11.4406 10.0844 8.6447 7.98986 6.54506C 5.89531 4.44541 3.10571 3.1875 0.148421 3.00911C 0.109709 3.00913 0.0725183 2.99398 0.0447912 2.96691C 0.0170641 2.93984 0.000995183 2.90298 2.55504e-06 2.8642L 0.129392 0.12604C 0.129392 0.0497686 0.220728 -0.00362162 0.327286 0.00019197C 4.01869 0.222011 7.50106 1.79149 10.116 4.41187C 12.7309 7.03226 14.2971 10.5219 14.5184 14.2211C 14.5184 14.3278 14.4689 14.4194 14.3928 14.4194L 11.6604 14.549C 11.6224 14.5481 11.5861 14.5325 11.5592 14.5055C 11.5323 14.4785 11.5168 14.4422 11.5158 14.4041Z"/>
<path id="path21_fill" d="M 7.47042 10.3432C 7.34295 8.43923 6.5306 6.64626 5.1841 5.29694C 3.83761 3.94762 2.04838 3.13357 0.14842 3.00583C 0.109707 3.00585 0.0725227 2.9907 0.0447956 2.96363C 0.0170685 2.93656 0.000993789 2.8997 1.16138e-06 2.86092L 0.129391 0.122759C 0.129391 0.0464876 0.232143 -0.00690258 0.350117 0.000724599C 2.97708 0.176768 5.45107 1.30204 7.31276 3.16764C 9.17445 5.03323 10.2974 7.5124 10.4731 10.1449C 10.4731 10.2631 10.4236 10.3622 10.3513 10.3661L 7.61884 10.4957C 7.59903 10.4957 7.57941 10.4918 7.56115 10.484C 7.54289 10.4763 7.52636 10.465 7.51252 10.4508C 7.49869 10.4366 7.48784 10.4198 7.48061 10.4013C 7.47338 10.3828 7.46991 10.363 7.47042 10.3432Z"/>
<path id="path22_fill" d="M 2.9836 0.144917C 3.16109 3.11155 4.41813 5.90993 6.51663 8.01002C 8.61513 10.1101 11.4093 11.366 14.37 11.5399C 14.4087 11.5399 14.4459 11.5551 14.4736 11.5821C 14.5013 11.6092 14.5174 11.6461 14.5184 11.6848L 14.389 14.423C 14.389 14.4993 14.2977 14.5527 14.1911 14.5488C 10.4997 14.327 7.01736 12.7575 4.40246 10.1372C 1.78755 7.51678 0.221355 4.02711 -8.12967e-07 0.327968C -8.12967e-07 0.221187 0.0494729 0.129662 0.125585 0.129662L 2.85802 -1.2802e-06C 2.89266 0.00540015 2.92427 0.0229155 2.94726 0.0494405C 2.97024 0.0759655 2.98312 0.109789 2.9836 0.144917Z"/>
<path id="path23_fill" d="M 3.00263 0.152544C 3.1301 2.05649 3.94245 3.84946 5.28895 5.19878C 6.63544 6.5481 8.42467 7.36215 10.3246 7.48989C 10.3633 7.48988 10.4005 7.50502 10.4283 7.53209C 10.456 7.55917 10.4721 7.59603 10.473 7.63481L 10.3437 10.373C 10.3437 10.4492 10.2409 10.5026 10.1229 10.495C 7.49597 10.319 5.02198 9.19368 3.16029 7.32808C 1.2986 5.46249 0.175677 2.98332 1.27752e-06 0.350849C 1.27752e-06 0.232628 0.0494741 0.133477 0.121781 0.129663L 2.85421 -5.73868e-07C 2.87402 -7.10245e-06 2.89364 0.00396367 2.9119 0.0116754C 2.93016 0.0193871 2.94669 0.030685 2.96053 0.0449023C 2.97436 0.0591196 2.98521 0.0759674 2.99244 0.0944547C 2.99967 0.112942 3.00314 0.132694 3.00263 0.152544Z"/>
<path id="path24_fill" d="M 0.144616 11.5437C 3.10258 11.3662 5.8931 10.1087 7.98844 8.009C 10.0838 5.90926 11.3387 3.11289 11.5158 0.14873C 11.5158 0.109936 11.5309 0.0726737 11.5579 0.0448885C 11.5849 0.0171033 11.6217 0.000994825 11.6604 1.16382e-07L 14.3928 0.129661C 14.4689 0.129661 14.5222 0.221189 14.5184 0.327969C 14.2971 4.02711 12.7309 7.51678 10.116 10.1372C 7.50106 12.7575 4.01869 14.327 0.327283 14.5488C 0.220726 14.5488 0.12939 14.4993 0.12939 14.423L 4.64552e-07 11.6848C 0.00190881 11.6474 0.0178678 11.612 0.0446846 11.5859C 0.0715014 11.5597 0.107198 11.5446 0.144616 11.5437Z"/>
<path id="path25_fill" d="M 0.137003 7.48608C 2.03697 7.35834 3.82619 6.54429 5.17269 5.19497C 6.51919 3.84565 7.33153 2.05268 7.459 0.148731C 7.45899 0.109938 7.4741 0.0726723 7.50112 0.0448871C 7.52813 0.0171019 7.56492 0.000993428 7.60362 -1.2802e-06L 10.336 0.129662C 10.4122 0.129662 10.4654 0.23263 10.4578 0.350851C 10.279 2.97817 9.15671 5.45169 7.2985 7.31379C 5.44028 9.1759 2.97194 10.3006 0.350116 10.4797C 0.232142 10.4797 0.133196 10.4302 0.12939 10.3577L 6.96829e-07 7.61955C 0.00349535 7.5847 0.0191517 7.5522 0.0442145 7.52778C 0.0692772 7.50336 0.102138 7.4886 0.137003 7.48608Z"/>
<path id="path26_fill" d="M 14.374 3.00892C 11.4166 3.18631 8.62662 4.44329 6.53137 6.54224C 4.43612 8.64118 3.18083 11.4366 3.00282 14.4001C 3.00283 14.4389 2.98772 14.4762 2.9607 14.504C 2.93369 14.5317 2.89691 14.5478 2.85821 14.5488L 0.125778 14.4192C 0.0496655 14.4192 -0.00361381 14.3277 0.000191801 14.2209C 0.22164 10.5211 1.78837 7.03095 4.40407 4.41047C 7.01976 1.79 10.5031 0.220921 14.1951 0C 14.3017 3.38715e-16 14.393 0.0495767 14.393 0.125848L 14.5224 2.86401C 14.5214 2.90279 14.5053 2.93964 14.4776 2.96672C 14.4499 2.99379 14.4127 3.00893 14.374 3.00892Z"/>
<path id="path27_fill" d="M 10.3177 3.00892C 8.41778 3.13666 6.62855 3.95071 5.28205 5.30003C 3.93556 6.64935 3.12321 8.44232 2.99574 10.3463C 2.99576 10.3851 2.98064 10.4223 2.95362 10.4501C 2.92661 10.4779 2.88983 10.494 2.85113 10.495L 0.122503 10.3653C 0.0463905 10.3653 -0.00688798 10.2624 0.000723243 10.1441C 0.176399 7.51168 1.29932 5.03251 3.16101 3.16691C 5.02271 1.30132 7.49669 0.176044 10.1237 -1.45477e-08C 10.2416 -1.45477e-08 10.3406 0.0495765 10.3444 0.122035L 10.4738 2.86019C 10.4738 2.88038 10.4697 2.90037 10.4618 2.91893C 10.4539 2.93749 10.4422 2.95424 10.4276 2.96815C 10.413 2.98207 10.3958 2.99286 10.3769 2.99987C 10.358 3.00688 10.3379 3.00996 10.3177 3.00892Z"/>
<path id="path28_fill" d="M 24.4302 13.3455C 24.4302 13.5095 24.4302 13.6697 24.4302 13.8337C 24.4294 13.9215 24.4113 14.0084 24.377 14.0892C 24.35 14.1599 24.3087 14.2242 24.2557 14.278C 24.2026 14.3319 24.1389 14.3741 24.0687 14.4019C 23.9096 14.4759 23.7378 14.5187 23.5626 14.5277C 23.3114 14.5277 23.064 14.5277 22.8014 14.5277C 22.6386 14.5236 22.4776 14.4914 22.3257 14.4324C 22.2101 14.4009 22.1076 14.3332 22.033 14.2392C 21.9584 14.1453 21.9156 14.0299 21.9109 13.9099C 21.9109 13.7727 21.9109 13.6354 21.8919 13.4981C 21.8919 13.0214 21.8919 12.5485 21.8919 12.0718C 21.8919 9.60822 21.8919 7.14591 21.8919 4.68487C 21.8919 4.53614 21.8919 4.3836 21.8919 4.23487C 21.8853 4.19884 21.868 4.16563 21.8424 4.13953C 21.8325 4.13419 21.8213 4.13139 21.8101 4.13139C 21.7988 4.13139 21.7877 4.13419 21.7777 4.13953C 21.735 4.16522 21.6965 4.19738 21.6635 4.23487L 21.1612 4.84123L 17.6296 9.16202L 13.8811 13.7383C 13.7776 13.864 13.6657 13.9825 13.5462 14.093C 13.3445 14.2778 13.0999 14.4089 12.8345 14.4744C 12.8 14.4878 12.7643 14.498 12.728 14.5049C 12.347 14.5523 11.9607 14.5329 11.5863 14.4477C 11.3436 14.3761 11.1226 14.245 10.9431 14.0663C 10.8183 13.9457 10.7002 13.8184 10.5892 13.6849C 10.064 13.0493 9.5414 12.4137 9.0213 11.7781L 4.94929 6.87006L 3.00082 4.49419C 2.90568 4.37978 2.80293 4.26919 2.70398 4.15478C 2.68495 4.1319 2.61265 4.12427 2.60123 4.15478C 2.58479 4.17252 2.57188 4.19322 2.56317 4.2158C 2.55932 4.25256 2.55932 4.28963 2.56317 4.32639C 2.56317 4.40267 2.56317 4.47512 2.56317 4.5514L 2.56317 6.72514C 2.56317 8.94974 2.56317 11.1743 2.56317 13.3989C 2.56971 13.5989 2.55052 13.7988 2.50609 13.9938C 2.48388 14.0983 2.43399 14.1949 2.36167 14.2734C 2.28935 14.352 2.19726 14.4095 2.09508 14.44C 1.94309 14.4987 1.78221 14.531 1.61938 14.5354C 1.39485 14.5354 1.17032 14.5354 0.945785 14.5354C 0.782975 14.5308 0.622121 14.4986 0.470083 14.44C 0.36707 14.4121 0.273638 14.3564 0.199865 14.2791C 0.126091 14.2018 0.0747821 14.1058 0.0514691 14.0015C 0.0224903 13.9061 0.00586123 13.8074 0.00199427 13.7078C 0.00199427 13.6201 0.00199427 13.5324 0.00199427 13.4447C 0.00199427 9.45821 0.00199427 5.47047 0.00199427 1.48146C -0.00659675 1.26885 0.0125917 1.05602 0.0590762 0.848401C 0.107612 0.639795 0.21851 0.450992 0.376952 0.30721C 0.535394 0.163428 0.733836 0.0715108 0.945785 0.0437338C 1.25403 -0.0126659 1.56992 -0.0126659 1.87816 0.0437338C 2.15662 0.0875553 2.41891 0.203208 2.63928 0.37933C 2.78922 0.503157 2.92572 0.642488 3.04649 0.795011L 4.99496 3.17088L 8.37434 7.31625L 11.5825 11.229L 11.963 11.6904L 12.0392 11.7743C 12.1229 11.862 12.2066 11.8582 12.2941 11.7743L 12.3931 11.6637L 12.7736 11.2023L 17.0245 6.06539L 21.1955 1.02383C 21.3401 0.852215 21.4847 0.680602 21.6407 0.516618C 21.9277 0.213538 22.3203 0.033198 22.7367 0.0132244C 22.9609 -0.0044089 23.1861 -0.0044089 23.4103 0.0132244C 23.5217 0.0251421 23.6307 0.0534115 23.7338 0.0971238C 23.9299 0.165935 24.1004 0.292897 24.2228 0.461145C 24.3451 0.629393 24.4135 0.830965 24.4188 1.03908C 24.4188 1.21451 24.4188 1.38993 24.4188 1.56536C 24.4188 3.52808 24.4188 5.49081 24.4188 7.45354C 24.4188 9.41627 24.4226 11.3803 24.4302 13.3455Z"/>
<path id="path29_stroke" d="M 29.3451 5.50712L 29.5951 5.50727L 29.5951 5.50712L 29.3451 5.50712ZM 29.3451 5.27831L 29.0951 5.2748L 29.0951 5.27831L 29.3451 5.27831ZM 29.2614 4.40881L 29.0151 4.45237L 29.0167 4.45995L 29.2614 4.40881ZM 26.4338 0.595217L 26.317 0.81632L 26.3208 0.818219L 26.4338 0.595217ZM 24.7137 0.0536885L 24.7446 -0.19439L 24.7444 -0.19442L 24.7137 0.0536885ZM 23.7775 0.000298508L 23.7775 0.250309L 23.7798 0.250288L 23.7775 0.000298508ZM 5.43822 0.000298508L 5.43678 0.250299L 5.43822 0.250299L 5.43822 0.000298508ZM 4.56674 0.0536885L 4.53479 -0.194273L 4.53243 -0.193947L 4.56674 0.0536885ZM 1.90281 1.25878L 2.06217 1.45147L 2.0661 1.44809L 1.90281 1.25878ZM -9.29105e-07 5.23254L -0.250001 5.22905L -0.250001 5.23254L -9.29105e-07 5.23254ZM -9.29105e-07 18.9233L -0.250034 18.9233L -0.249968 18.9274L -9.29105e-07 18.9233ZM 0.0951394 19.728L 0.340269 19.6786L 0.339156 19.6736L 0.0951394 19.728ZM 4.80268 23.9992L 4.77768 24.248L 4.77948 24.2481L 4.80268 23.9992ZM 5.60948 24.0335L 5.60948 23.7835L 5.6075 23.7835L 5.60948 24.0335ZM 24.0781 24.0335L 24.0781 24.2836L 24.0831 24.2835L 24.0781 24.0335ZM 25.7906 23.7284L 25.8723 23.9647L 25.874 23.9641L 25.7906 23.7284ZM 29.2423 19.7814L 29.487 19.8329L 29.4874 19.8309L 29.2423 19.7814ZM 29.3603 18.5877L 29.6103 18.5871L 29.6103 18.587L 29.3603 18.5877ZM 29.5951 5.50712C 29.5951 5.43085 29.5951 5.35458 29.5951 5.27831L 29.0951 5.27831C 29.0951 5.35458 29.0951 5.43085 29.0951 5.50712L 29.5951 5.50712ZM 29.5951 5.28181C 29.599 4.97603 29.5683 4.65706 29.5061 4.35767L 29.0167 4.45995C 29.0739 4.73228 29.0994 4.99651 29.0951 5.2748L 29.5951 5.28181ZM 29.5075 4.36527C 29.3573 3.52517 29.0042 2.70481 28.4975 2.0187L 28.0959 2.3165C 28.5708 2.95422 28.8783 3.6685 29.0152 4.45235L 29.5075 4.36527ZM 28.4975 2.0187C 27.9882 1.33457 27.3062 0.758925 26.5468 0.372216L 26.3208 0.818219C 27.0301 1.17577 27.6237 1.6768 28.0959 2.3165L 28.4975 2.0187ZM 26.5505 0.374146C 25.994 0.0814384 25.3682 -0.11559 24.7446 -0.19439L 24.6827 0.301767C 25.2617 0.372948 25.8014 0.542857 26.3171 0.816288L 26.5505 0.374146ZM 24.7444 -0.19442C 24.4256 -0.233723 24.0963 -0.252499 23.7752 -0.249691L 23.7798 0.250288C 24.0844 0.247358 24.3806 0.264252 24.683 0.301797L 24.7444 -0.19442ZM 23.7775 -0.249701L 7.67212 -0.249701L 7.67212 0.250299L 23.7775 0.250299L 23.7775 -0.249701ZM 7.67212 -0.249701C 6.911 -0.249701 6.18032 -0.249701 5.43822 -0.249701L 5.43822 0.250299C 6.18032 0.250299 6.911 0.250299 7.67212 0.250299L 7.67212 -0.249701ZM 5.43967 -0.249697C 5.13994 -0.251288 4.83209 -0.232428 4.53479 -0.194262L 4.59868 0.301639C 4.87935 0.265333 5.15379 0.24852 5.43678 0.250294L 5.43967 -0.249697ZM 4.53243 -0.193947C 3.51216 -0.0500272 2.52202 0.397881 1.73951 1.06948L 2.0661 1.44809C 2.79112 0.819291 3.65093 0.43033 4.60104 0.301324L 4.53243 -0.193947ZM 1.74348 1.06613C 1.13782 1.56895 0.630955 2.21788 0.289398 2.92779L 0.740362 3.14373C 1.05595 2.48128 1.49627 1.91753 2.06214 1.45143L 1.74348 1.06613ZM 0.289398 2.92779C -0.0495136 3.63894 -0.237519 4.44108 -0.249977 5.22905L 0.249975 5.23603C 0.258759 4.50198 0.42213 3.80493 0.740362 3.14373L 0.289398 2.92779ZM -0.250001 5.23254C -0.250001 5.36221 -0.250001 5.49187 -0.250001 5.6139L 0.249999 5.6139C 0.249999 5.49187 0.249999 5.36221 0.249999 5.23254L -0.250001 5.23254ZM -0.250001 5.6139C -0.250001 9.87749 -0.250001 14.1411 -0.250001 18.4047L 0.249999 18.4047C 0.249999 14.1411 0.249999 9.87749 0.249999 5.6139L -0.250001 5.6139ZM -0.250001 18.4047C -0.250001 18.5763 -0.250001 18.7517 -0.250001 18.9233L 0.249999 18.9233C 0.249999 18.7517 0.249999 18.5763 0.249999 18.4047L -0.250001 18.4047ZM -0.249968 18.9274C -0.245066 19.2108 -0.210209 19.5056 -0.148877 19.7824L 0.339156 19.6736C 0.282713 19.4218 0.253815 19.1774 0.249966 18.9193L -0.249968 18.9274ZM -0.149938 19.7774C 0.0870663 20.9381 0.705231 22.0273 1.57962 22.8249L 1.91559 22.4546C 1.09556 21.7149 0.555458 20.7631 0.340217 19.6786L -0.149938 19.7774ZM 1.57962 22.8249C 2.45828 23.6179 3.60138 24.1265 4.77768 24.248L 4.82768 23.7505C 3.72964 23.6433 2.73135 23.1991 1.91559 22.4546L 1.57962 22.8249ZM 4.77948 24.2481C 5.05395 24.2736 5.33582 24.2856 5.61145 24.2835L 5.6075 23.7835C 5.34447 23.7857 5.08779 23.7748 4.82589 23.7503L 4.77948 24.2481ZM 5.60948 24.2835L 24.0781 24.2835L 24.0781 23.7835L 5.60948 23.7835L 5.60948 24.2835ZM 24.0831 24.2835C 24.6858 24.2707 25.3021 24.1609 25.8723 23.9647L 25.709 23.4922C 25.1762 23.677 24.6369 23.7731 24.0731 23.7836L 24.0831 24.2835ZM 25.874 23.9641C 26.7683 23.6455 27.5929 23.0859 28.2199 22.372L 27.8436 22.0428C 27.2616 22.7114 26.5427 23.1993 25.7073 23.4928L 25.874 23.9641ZM 28.2199 22.372C 28.8439 21.6554 29.2892 20.7629 29.487 19.8329L 28.9977 19.7299C 28.817 20.5985 28.4286 21.3769 27.8436 22.0428L 28.2199 22.372ZM 29.4874 19.8309C 29.569 19.4256 29.611 19.0006 29.6103 18.5871L 29.1103 18.5883C 29.1116 18.9766 29.0745 19.3514 28.9973 19.7318L 29.4874 19.8309ZM 29.6103 18.587C 29.5976 14.2397 29.5926 9.87996 29.5951 5.50727L 29.0951 5.50698C 29.0926 9.88011 29.0976 14.2407 29.1103 18.5885L 29.6103 18.587Z"/>
</defs>
</svg>
