<svg id="Layer_1" data-name="Layer 1" xmlns="http://www.w3.org/2000/svg" viewBox="0 0 157.88 31.93"><title>russia</title><path d="M124.86,13.24h-.07c-5.07,0-7.48,3.44-8.23,7.81-1.42,8.3,2.88,10.82,8.23,10.82h.07c5.34,0,9.64-2.52,8.22-10.82-.75-4.37-3.15-7.81-8.22-7.81m0,16.79h0c-2.81,0-5.06-2.05-4.32-8.7.4-3.5,1.66-6.24,4.32-6.24h0c2.65,0,3.92,2.74,4.31,6.24C129.89,28,127.64,30,124.84,30Zm28-7.9s3.56-.7,3.56-4.15a3.84,3.84,0,0,0-1.69-3.16,7,7,0,0,0-4.35-1.32h-.16a6.92,6.92,0,0,0-4.34,1.32A3.82,3.82,0,0,0,144.13,18c0,3.45,3.56,4.13,3.56,4.15s-5.09.61-5.09,4.57c0,4.51,5.11,5.23,7.65,5.23s7.63-.72,7.63-5.23C157.88,22.74,152.8,22.13,152.8,22.13ZM153,29.6a4.15,4.15,0,0,1-5.47,0,3.93,3.93,0,0,1-.75-2.68c0-1,.51-3.74,3-4.08V21.47c-1.13-.21-2.33-1.11-2.33-3.34,0-2.81,1.86-3.4,2.85-3.4s2.83.59,2.83,3.4c0,2.11-1.06,3-2.13,3.29v1.46c2.28.46,2.74,3.09,2.77,4A3.93,3.93,0,0,1,153,29.6ZM16.52,18.38C16.52,14,11.59,14,8.23,14H0V31.4H3.64v-16H8.23c1,0,4.08,0,4.08,3,0,2.38-5.17,5.17-7.64,6.48v2.82c1.17-.55,2.78-1.31,3.66-1.74l4.53,5.46H17l-5.81-6.94C14.77,22.32,16.52,20.32,16.52,18.38ZM33.37,14H30s.17,1.23.23,1.65a78.09,78.09,0,0,1,.89,10,4.58,4.58,0,0,1-4.57,4.73h0a4.58,4.58,0,0,1-4.57-4.73,78.09,78.09,0,0,1,.89-10c.06-.42.23-1.65.23-1.65H19.67l-.32,1.7a83.52,83.52,0,0,0-1.29,9.1c0,4.37,3.24,7.08,8.44,7.08h0c5.2,0,8.44-2.71,8.44-7.08a83.52,83.52,0,0,0-1.29-9.1Zm36.8,17.63h3.64V14H70.17ZM113,15.55c-2.83-2.93-10.14-2.78-12,.9a4.76,4.76,0,0,0,.15,4.4l1.43-.63a3.69,3.69,0,0,1,2.77-4.94A3.8,3.8,0,0,1,110,20c-1.35,3.48-7.71,8.31-10.44,10.2V31.4h15.15V29.24l-10.43,0C109.65,27.08,118.32,21.06,113,15.55Zm24.37-.78a9,9,0,0,1-2.73.56v1.1h.55a1.38,1.38,0,0,1,1.46,1.4v13.5h3.64V14h-1.46A11.63,11.63,0,0,1,137.38,14.77ZM48.22,22.15c-.83-.42-2-.93-3.67-1.59-1.26-.48-2.2-.87-2.79-1.15a4.24,4.24,0,0,1-1.36-.93,1.76,1.76,0,0,1-.5-1.24,1.74,1.74,0,0,1,.8-1.48,4.6,4.6,0,0,1,2.45-.59A13.53,13.53,0,0,1,49,16.45L50,15a13.3,13.3,0,0,0-6.9-1.53c-3.15,0-4.92,1.46-5.51,2.68a4.58,4.58,0,0,0,1.61,5.88,33.8,33.8,0,0,0,5.27,2.66l.13.05a11,11,0,0,1,1.52.78,3.1,3.1,0,0,1,.82.79,2.36,2.36,0,0,1-.64,3.17,4,4,0,0,1-2.48.7A29,29,0,0,1,37,29l-.92,1.46a27.11,27.11,0,0,0,8.11,1.41c4.49,0,6.89-2.1,7.33-4.05C52,25.66,51,23.55,48.22,22.15Zm16.16,0c-.83-.42-2-.93-3.66-1.59-1.27-.48-2.2-.87-2.79-1.15a4.13,4.13,0,0,1-1.36-.93,1.76,1.76,0,0,1,.3-2.72,4.6,4.6,0,0,1,2.45-.59,13.46,13.46,0,0,1,5.83,1.28l1-1.42a13.33,13.33,0,0,0-6.9-1.53c-3.16,0-4.93,1.46-5.51,2.68a4.58,4.58,0,0,0,1.61,5.88,33.8,33.8,0,0,0,5.27,2.66l.12.05a9.92,9.92,0,0,1,1.52.78,3,3,0,0,1,.82.79,2.34,2.34,0,0,1-.64,3.17,4,4,0,0,1-2.48.7A29.14,29.14,0,0,1,53.13,29l-.91,1.46a27.09,27.09,0,0,0,8.1,1.41c4.5,0,6.89-2.1,7.33-4.05C68.14,25.66,67.14,23.55,64.38,22.15ZM88.87,14H85.42C84,15.49,73.23,28.63,77.54,31.35c3,1.88,8.47-1.63,11.12-3.51l-1-1.74c-1.88,1.56-5.32,3.27-6.6,2.08C79.21,26.47,85.6,16,85.6,16c.65,2.17,4.24,11.77,5.06,13.34l.93,1.83h3.86c-.37-.68-.72-1.37-1.06-2.07A73.14,73.14,0,0,1,88.87,14Z" style="fill:#fff"/><path d="M52.51.15,49.7,8h2.36l.31-1.06h2.75L55.44,8h2.44L55.05.15H52.51m.29,5.28.94-3.26,1,3.26ZM70.29.13,68.54,8H65.85L64.74,2h0l-1,6H61L59.22.13h2.15l1,6h0l1.06-6h2.65l1.1,6h0l1-6ZM40.93.13h2.44V8H40.92Zm-6.78,0h6l-.64,1.71h-2.9V3.42H39l-.68,1.72H36.63V8H34.15ZM49.92,3.42l-.67,1.72H47.53V8H45.06V.13h6l-.63,1.71H47.53V3.42ZM114.74.13h2.1V5c0,2.14-1.4,3.11-3.45,3.11S110,7.15,110,5V.13h2.1V4.65c0,1,.28,1.92,1.34,1.92s1.35-.88,1.35-1.92ZM95.36.13H92.5V8h2.86C98,8,100,7,100,4S98.09.13,95.36.13Zm0,6.3h-.8V1.69h.8a2.18,2.18,0,0,1,2.45,2.37A2.17,2.17,0,0,1,95.4,6.43Zm13.83-.27.1,1.64a8.46,8.46,0,0,1-2.32.32c-2.1,0-4.51-1.06-4.51-4C102.5,1.36,104.41,0,107,0a8,8,0,0,1,2.34.41l-.18,1.69a4.11,4.11,0,0,0-2-.55,2.39,2.39,0,0,0-2.46,2.54,2.41,2.41,0,0,0,2.62,2.48A5.44,5.44,0,0,0,109.23,6.16Zm11-6h-2.49V8h2.09V5.24h.81c1.95,0,3.11-1,3.11-2.53C123.73.94,122.61.13,120.21.13Zm.14,3.62h-.54V1.62h.54c.72,0,1.29.25,1.29,1.06S121.07,3.75,120.35,3.75Zm-32,2.68h3.24V8H86.26V.13h2.09Zm-4.8-2.32v0a1.82,1.82,0,0,0,1.5-2c0-1.35-1.13-2-2.52-2H78.79V8h2.1V4.88h.44c.77,0,1,.33,1.46,1.69L83.25,8h2.18l-.77-2.15C84.27,4.89,84.23,4.29,83.55,4.11ZM81.44,3.4h-.55V1.62h.55c.8,0,1.52.13,1.52.86C83,3.37,82.11,3.4,81.44,3.4ZM74.17,0c-2.59,0-3.94,1.54-3.94,4.06s1.37,4.06,3.94,4.06,3.94-1.57,3.94-4.06S76.76,0,74.17,0Zm0,6.57c-1.27,0-1.77-1.21-1.77-2.51s.5-2.51,1.77-2.51S76,2.7,76,4.06,75.44,6.57,74.17,6.57Z" style="fill:#fff"/></svg>