<?xml version="1.0" encoding="UTF-8" standalone="no"?>
<!-- Created with Inkscape (http://www.inkscape.org/) -->
<svg xmlns:dc="http://purl.org/dc/elements/1.1/" xmlns:cc="http://creativecommons.org/ns#" xmlns:rdf="http://www.w3.org/1999/02/22-rdf-syntax-ns#" xmlns:svg="http://www.w3.org/2000/svg" xmlns="http://www.w3.org/2000/svg" xmlns:inkscape="http://www.inkscape.org/namespaces/inkscape" version="1.1" width="625" height="416.3725" id="svg2" xml:space="preserve"><metadata id="metadata8"><rdf:RDF><cc:Work rdf:about=""><dc:format>image/svg+xml</dc:format><dc:type rdf:resource="http://purl.org/dc/dcmitype/StillImage"/></cc:Work></rdf:RDF></metadata><defs id="defs6"><clipPath id="clipPath20"><path d="m 0,333.098 500,0 L 500,0 0,0 0,333.098 z" inkscape:connector-curvature="0" id="path22"/></clipPath></defs><g transform="matrix(1.25,0,0,-1.25,0,416.3725)" id="g10"><path d="m 0.01,0 499.991,0 0,333.097 -499.991,0 L 0.01,0 z" inkscape:connector-curvature="0" id="path12" style="fill:#74acdf;fill-opacity:1;fill-rule:nonzero;stroke:none"/><path d="m 0.01,118.891 499.991,0 0,104.17 -499.991,0 0,-104.17 z" inkscape:connector-curvature="0" id="path14" style="fill:#ffffff;fill-opacity:1;fill-rule:nonzero;stroke:none"/><g id="g16"><g clip-path="url(#clipPath20)" id="g18"><g transform="translate(251.5576,156.7207)" id="g24"><path d="m 0,0 c -0.217,-5.893 3.407,-9.133 2.934,-14.395 -0.473,-5.263 2.417,-8.238 3.087,-10.285 0.67,-2.047 -0.725,-3.269 -0.125,-3.56 0.603,-0.291 1.919,1.326 1.491,4.234 -0.429,2.91 -2.638,3.774 -2.118,10.199 C 5.787,-7.379 2.64,-5.881 3.405,-0.02 M -3.524,13.439 14.26,-25.307 c 0,0 0.305,-0.74 0.8,-0.535 0.493,0.203 0.186,0.944 0.186,0.944 L 0.425,15.075" inkscape:connector-curvature="0" id="path26" style="fill:#f6b40e;fill-opacity:1;fill-rule:nonzero;stroke:#85340a;stroke-width:1.11199999;stroke-linecap:butt;stroke-linejoin:miter;stroke-miterlimit:4;stroke-opacity:1;stroke-dasharray:none"/></g><g transform="translate(245.9829,157.2129)" id="g28"><path d="m 0,0 c -2.455,-5.361 -0.347,-9.742 -2.798,-14.422 -2.451,-4.682 -0.919,-8.535 -1.083,-10.682 -0.164,-2.148 -1.922,-2.744 -1.477,-3.244 0.444,-0.5 2.279,0.491 2.997,3.344 0.716,2.852 -0.993,4.494 1.945,10.234 2.939,5.739 0.604,8.327 3.555,13.45 M 1.888,13.766 3.491,-28.836 c 0,0 -10e-4,-0.801 0.534,-0.803 0.534,0 0.534,0.803 0.534,0.803 l 1.603,42.602" inkscape:connector-curvature="0" id="path30" style="fill:#f6b40e;fill-opacity:1;fill-rule:nonzero;stroke:#85340a;stroke-width:1.11199999;stroke-linecap:butt;stroke-linejoin:miter;stroke-miterlimit:4;stroke-opacity:1;stroke-dasharray:none"/></g><g transform="translate(241.0215,159.8008)" id="g32"><path d="m 0,0 c -4.319,-4.012 -4.048,-8.867 -8.104,-12.252 -4.056,-3.387 -4.116,-7.535 -5.089,-9.455 -0.973,-1.922 -2.825,-1.801 -2.605,-2.432 0.219,-0.631 2.293,-0.42 4.048,1.942 1.753,2.361 0.802,4.533 5.713,8.711 4.912,4.177 3.745,7.461 8.432,11.064 M 7.012,11.996 -7.81,-27.977 c 0,0 -0.308,-0.74 0.186,-0.945 0.494,-0.205 0.8,0.537 0.8,0.537 L 10.961,10.36" inkscape:connector-curvature="0" id="path34" style="fill:#f6b40e;fill-opacity:1;fill-rule:nonzero;stroke:#85340a;stroke-width:1.11199999;stroke-linecap:butt;stroke-linejoin:miter;stroke-miterlimit:4;stroke-opacity:1;stroke-dasharray:none"/></g><g transform="translate(237.4282,164.0918)" id="g36"><path d="m 0,0 c -5.527,-2.055 -7.134,-6.645 -12.176,-8.219 -5.043,-1.578 -6.686,-5.386 -8.32,-6.789 -1.633,-1.402 -3.298,-0.582 -3.337,-1.248 -0.039,-0.668 1.958,-1.265 4.482,0.244 2.523,1.51 2.476,3.881 8.613,5.862 6.136,1.98 6.314,5.461 12.024,6.996 m 9.782,11.552 -28.99,-31.257 c 0,0 -0.567,-0.567 -0.19,-0.944 0.378,-0.379 0.945,0.188 0.945,0.188 L 14.09,5.375" inkscape:connector-curvature="0" id="path38" style="fill:#f6b40e;fill-opacity:1;fill-rule:nonzero;stroke:#85340a;stroke-width:1.11199999;stroke-linecap:butt;stroke-linejoin:miter;stroke-miterlimit:4;stroke-opacity:1;stroke-dasharray:none"/></g><g transform="translate(249.0215,170.5122)" id="g40"><path d="M 0,0 12.179,-26.612 1.974,0.818 M 3.681,-14.79 c 0.283,-5.658 3.492,-8.164 2.862,-13.322 1.383,4.078 -1.952,7.24 -1.763,13.264" inkscape:connector-curvature="0" id="path42" style="fill:#85340a;fill-opacity:1;fill-rule:nonzero;stroke:none"/></g><g transform="translate(248.917,170.9253)" id="g44"><path d="M 0,0 1.069,-29.246 2.138,0.001 m -4.396,-15.073 c -1.904,-5.336 0.102,-8.879 -2.454,-13.402 2.839,3.238 0.967,7.435 3.447,12.928" inkscape:connector-curvature="0" id="path46" style="fill:#85340a;fill-opacity:1;fill-rule:nonzero;stroke:none"/></g><g transform="translate(248.9805,171.3472)" id="g48"><path d="m 0,0 -10.205,-27.429 12.18,26.612 m -9.829,-12.245 c -3.802,-4.201 -3.305,-8.242 -7.397,-11.441 3.862,1.904 3.739,6.498 8.132,10.623" inkscape:connector-curvature="0" id="path50" style="fill:#85340a;fill-opacity:1;fill-rule:nonzero;stroke:none"/></g><g transform="translate(249.1992,171.7124)" id="g52"><path d="M 0,0 -19.924,-21.435 1.512,-1.51 m -13.766,-7.55 c -5.12,-2.428 -6.207,-6.352 -11.213,-7.742 4.297,0.283 5.942,4.574 11.579,6.703" inkscape:connector-curvature="0" id="path54" style="fill:#85340a;fill-opacity:1;fill-rule:nonzero;stroke:none"/></g><g transform="translate(235.7505,169.4302)" id="g56"><path d="m 0,0 c -5.893,0.217 -9.133,-3.409 -14.395,-2.935 -5.263,0.474 -8.237,-2.417 -10.283,-3.087 -2.047,-0.67 -3.271,0.727 -3.562,0.125 -0.292,-0.602 1.325,-1.92 4.235,-1.49 2.909,0.429 3.772,2.638 10.199,2.119 6.428,-0.52 7.925,2.628 13.787,1.861 M 13.439,3.524 -25.306,-14.26 c 0,0 -0.74,-0.307 -0.536,-0.801 0.204,-0.492 0.945,-0.186 0.945,-0.186 l 39.972,14.822" inkscape:connector-curvature="0" id="path58" style="fill:#f6b40e;fill-opacity:1;fill-rule:nonzero;stroke:#85340a;stroke-width:1.11199999;stroke-linecap:butt;stroke-linejoin:miter;stroke-miterlimit:4;stroke-opacity:1;stroke-dasharray:none"/></g><g transform="translate(236.2432,175.0044)" id="g60"><path d="m 0,0 c -5.361,2.455 -9.742,0.347 -14.422,2.798 -4.681,2.451 -8.536,0.92 -10.682,1.083 -2.148,0.164 -2.744,1.922 -3.244,1.478 -0.499,-0.445 0.491,-2.28 3.343,-2.997 2.852,-0.717 4.495,0.993 10.234,-1.946 5.739,-2.938 8.327,-0.604 13.45,-3.555 m 15.087,1.252 -42.602,-1.604 c 0,0 -0.802,10e-4 -0.802,-0.533 -10e-4,-0.535 0.801,-0.535 0.801,-0.535 l 42.603,-1.603" inkscape:connector-curvature="0" id="path62" style="fill:#f6b40e;fill-opacity:1;fill-rule:nonzero;stroke:#85340a;stroke-width:1.11199999;stroke-linecap:butt;stroke-linejoin:miter;stroke-miterlimit:4;stroke-opacity:1;stroke-dasharray:none"/></g><g transform="translate(238.8315,179.9658)" id="g64"><path d="m 0,0 c -4.013,4.319 -8.868,4.048 -12.253,8.104 -3.387,4.056 -7.534,4.116 -9.455,5.089 -1.922,0.973 -1.8,2.825 -2.431,2.606 -0.632,-0.22 -0.419,-2.295 1.941,-4.048 2.361,-1.753 4.533,-0.802 8.711,-5.714 4.177,-4.912 7.462,-3.745 11.065,-8.432 M 11.995,-7.012 -27.978,7.81 c 0,0 -0.739,0.308 -0.944,-0.186 -0.205,-0.493 0.536,-0.8 0.536,-0.8 L 10.359,-10.96" inkscape:connector-curvature="0" id="path66" style="fill:#f6b40e;fill-opacity:1;fill-rule:nonzero;stroke:#85340a;stroke-width:1.11199999;stroke-linecap:butt;stroke-linejoin:miter;stroke-miterlimit:4;stroke-opacity:1;stroke-dasharray:none"/></g><g transform="translate(243.1216,183.5591)" id="g68"><path d="m 0,0 c -2.055,5.526 -6.644,7.134 -8.22,12.176 -1.576,5.043 -5.385,6.686 -6.787,8.32 -1.403,1.634 -0.582,3.298 -1.248,3.337 -0.668,0.04 -1.266,-1.958 0.244,-4.482 1.51,-2.524 3.881,-2.476 5.86,-8.613 1.981,-6.136 5.462,-6.314 6.997,-12.024 m 11.553,-9.782 -31.258,28.99 c 0,0 -0.566,0.567 -0.944,0.19 -0.379,-0.378 0.188,-0.945 0.188,-0.945 L 5.376,-14.09" inkscape:connector-curvature="0" id="path70" style="fill:#f6b40e;fill-opacity:1;fill-rule:nonzero;stroke:#85340a;stroke-width:1.11199999;stroke-linecap:butt;stroke-linejoin:miter;stroke-miterlimit:4;stroke-opacity:1;stroke-dasharray:none"/></g><g transform="translate(249.542,171.9663)" id="g72"><path d="M 0,0 -26.611,-12.179 0.818,-1.974 M -14.79,-3.682 c -5.658,-0.283 -8.164,-3.491 -13.321,-2.86 4.078,-1.385 7.239,1.951 13.263,1.762" inkscape:connector-curvature="0" id="path74" style="fill:#85340a;fill-opacity:1;fill-rule:nonzero;stroke:none"/></g><g transform="translate(249.9551,172.0698)" id="g76"><path d="M 0,0 -29.246,-1.069 0.001,-2.137 m -15.073,4.396 c -5.336,1.904 -8.879,-0.102 -13.403,2.453 3.239,-2.838 7.435,-0.966 12.928,-3.446" inkscape:connector-curvature="0" id="path78" style="fill:#85340a;fill-opacity:1;fill-rule:nonzero;stroke:none"/></g><g transform="translate(250.377,172.0073)" id="g80"><path d="m 0,0 -27.429,10.205 26.612,-12.18 m -12.244,9.829 c -4.202,3.801 -8.242,3.305 -11.443,7.396 1.905,-3.861 6.499,-3.738 10.625,-8.131" inkscape:connector-curvature="0" id="path82" style="fill:#85340a;fill-opacity:1;fill-rule:nonzero;stroke:none"/></g><g transform="translate(250.7422,171.7886)" id="g84"><path d="M 0,0 -21.436,19.923 -1.51,-1.512 m -7.551,13.766 c -2.427,5.12 -6.35,6.207 -7.741,11.213 0.282,-4.297 4.574,-5.942 6.703,-11.579" inkscape:connector-curvature="0" id="path86" style="fill:#85340a;fill-opacity:1;fill-rule:nonzero;stroke:none"/></g><g transform="translate(248.46,185.2368)" id="g88"><path d="m 0,0 c 0.217,5.893 -3.408,9.133 -2.934,14.395 0.474,5.263 -2.417,8.237 -3.087,10.284 -0.671,2.047 0.725,3.27 0.124,3.561 -0.602,0.291 -1.919,-1.325 -1.49,-4.234 0.429,-2.91 2.637,-3.774 2.119,-10.2 C -5.787,7.378 -2.64,5.882 -3.406,0.02 M 3.523,-13.439 -14.26,25.306 c 0,0 -0.306,0.74 -0.8,0.536 -0.494,-0.203 -0.187,-0.945 -0.187,-0.945 l 14.822,-39.972" inkscape:connector-curvature="0" id="path90" style="fill:#f6b40e;fill-opacity:1;fill-rule:nonzero;stroke:#85340a;stroke-width:1.11199999;stroke-linecap:butt;stroke-linejoin:miter;stroke-miterlimit:4;stroke-opacity:1;stroke-dasharray:none"/></g><g transform="translate(254.0342,184.7441)" id="g92"><path d="m 0,0 c 2.455,5.361 0.347,9.742 2.799,14.422 2.45,4.681 0.919,8.536 1.082,10.682 0.164,2.147 1.922,2.745 1.477,3.243 -0.444,0.5 -2.28,-0.49 -2.996,-3.342 C 1.645,22.153 3.355,20.51 0.416,14.771 -2.522,9.032 -0.188,6.444 -3.139,1.321 m 1.251,-15.086 -1.602,42.602 c 0,0 0,0.801 -0.534,0.802 -0.535,0 -0.535,-0.802 -0.535,-0.802 l -1.603,-42.602" inkscape:connector-curvature="0" id="path94" style="fill:#f6b40e;fill-opacity:1;fill-rule:nonzero;stroke:#85340a;stroke-width:1.11199999;stroke-linecap:butt;stroke-linejoin:miter;stroke-miterlimit:4;stroke-opacity:1;stroke-dasharray:none"/></g><g transform="translate(258.9951,182.1558)" id="g96"><path d="m 0,0 c 4.32,4.014 4.049,8.868 8.104,12.253 4.056,3.387 4.117,7.535 5.089,9.455 0.973,1.922 2.826,1.8 2.606,2.431 -0.22,0.632 -2.294,0.42 -4.047,-1.941 C 9.997,19.837 10.948,17.665 6.037,13.487 1.126,9.31 2.293,6.025 -2.395,2.422 M -7.012,-11.995 7.811,27.978 c 0,0 0.307,0.74 -0.187,0.945 -0.493,0.204 -0.8,-0.537 -0.8,-0.537 l -17.783,-38.745" inkscape:connector-curvature="0" id="path98" style="fill:#f6b40e;fill-opacity:1;fill-rule:nonzero;stroke:#85340a;stroke-width:1.11199999;stroke-linecap:butt;stroke-linejoin:miter;stroke-miterlimit:4;stroke-opacity:1;stroke-dasharray:none"/></g><g transform="translate(262.5889,177.8662)" id="g100"><path d="m 0,0 c 5.526,2.054 7.134,6.643 12.177,8.219 5.042,1.577 6.684,5.386 8.318,6.788 1.635,1.403 3.3,0.581 3.339,1.248 0.038,0.668 -1.959,1.266 -4.482,-0.244 C 16.827,14.5 16.875,12.13 10.738,10.15 4.602,8.17 4.424,4.689 -1.285,3.154 m -9.783,-11.553 28.99,31.257 c 0,0 0.567,0.567 0.189,0.945 -0.377,0.378 -0.944,-0.189 -0.944,-0.189 L -14.09,-5.376" inkscape:connector-curvature="0" id="path102" style="fill:#f6b40e;fill-opacity:1;fill-rule:nonzero;stroke:#85340a;stroke-width:1.11199999;stroke-linecap:butt;stroke-linejoin:miter;stroke-miterlimit:4;stroke-opacity:1;stroke-dasharray:none"/></g><g transform="translate(250.9961,171.4458)" id="g104"><path d="M 0,0 -12.179,26.611 -1.974,-0.819 M -3.682,14.79 c -0.283,5.658 -3.491,8.164 -2.861,13.32 -1.383,-4.077 1.952,-7.239 1.762,-13.262" inkscape:connector-curvature="0" id="path106" style="fill:#85340a;fill-opacity:1;fill-rule:nonzero;stroke:none"/></g><g transform="translate(251.0996,171.0322)" id="g108"><path d="M 0,0 -1.069,29.246 -2.137,-0.001 M 2.259,15.073 C 4.162,20.409 2.157,23.951 4.712,28.475 1.874,25.237 3.745,21.04 1.266,15.547" inkscape:connector-curvature="0" id="path110" style="fill:#85340a;fill-opacity:1;fill-rule:nonzero;stroke:none"/></g><g transform="translate(251.0371,170.6108)" id="g112"><path d="M 0,0 10.204,27.429 -1.975,0.817 m 9.829,12.244 c 3.801,4.201 3.304,8.242 7.396,11.443 -3.861,-1.905 -3.738,-6.5 -8.132,-10.625" inkscape:connector-curvature="0" id="path114" style="fill:#85340a;fill-opacity:1;fill-rule:nonzero;stroke:none"/></g><g transform="translate(250.8184,170.2456)" id="g116"><path d="M 0,0 19.924,21.436 -1.513,1.51 m 13.768,7.551 c 5.118,2.426 6.206,6.35 11.212,7.741 -4.298,-0.282 -5.943,-4.574 -11.579,-6.704" inkscape:connector-curvature="0" id="path118" style="fill:#85340a;fill-opacity:1;fill-rule:nonzero;stroke:none"/></g><g transform="translate(264.2666,172.5273)" id="g120"><path d="M 0,0 C 5.893,-0.216 9.133,3.408 14.396,2.934 19.657,2.461 22.633,5.351 24.679,6.021 26.726,6.692 27.949,5.296 28.24,5.897 28.531,6.5 26.915,7.816 24.005,7.387 21.096,6.958 20.232,4.75 13.806,5.269 7.379,5.788 5.881,2.64 0.019,3.406 M -13.439,-3.523 25.306,14.26 c 0,0 0.74,0.306 0.536,0.801 -0.204,0.493 -0.945,0.186 -0.945,0.186 L -15.075,0.425" inkscape:connector-curvature="0" id="path122" style="fill:#f6b40e;fill-opacity:1;fill-rule:nonzero;stroke:#85340a;stroke-width:1.11199999;stroke-linecap:butt;stroke-linejoin:miter;stroke-miterlimit:4;stroke-opacity:1;stroke-dasharray:none"/></g><g transform="translate(263.7744,166.9536)" id="g124"><path d="m 0,0 c 5.36,-2.456 9.741,-0.348 14.422,-2.799 4.681,-2.451 8.535,-0.918 10.682,-1.082 2.147,-0.164 2.744,-1.922 3.243,-1.477 0.5,0.443 -0.491,2.279 -3.342,2.996 C 22.152,-1.645 20.51,-3.356 14.771,-0.416 9.031,2.522 6.443,0.187 1.32,3.139 M -13.766,1.888 28.836,3.49 c 0,0 0.801,-0.001 0.802,0.534 10e-4,0.534 -0.802,0.534 -0.802,0.534 l -42.602,1.603" inkscape:connector-curvature="0" id="path126" style="fill:#f6b40e;fill-opacity:1;fill-rule:nonzero;stroke:#85340a;stroke-width:1.11199999;stroke-linecap:butt;stroke-linejoin:miter;stroke-miterlimit:4;stroke-opacity:1;stroke-dasharray:none"/></g><g transform="translate(261.1855,161.9922)" id="g128"><path d="m 0,0 c 4.014,-4.32 8.868,-4.049 12.253,-8.104 3.388,-4.056 7.535,-4.117 9.455,-5.089 1.922,-0.973 1.8,-2.825 2.431,-2.606 0.632,0.219 0.42,2.293 -1.941,4.047 -2.361,1.754 -4.533,0.803 -8.711,5.715 C 9.31,-1.125 6.025,-2.293 2.422,2.395 M -11.995,7.011 27.978,-7.811 c 0,0 0.739,-0.308 0.944,0.186 0.205,0.494 -0.536,0.801 -0.536,0.801 L -10.358,10.96" inkscape:connector-curvature="0" id="path130" style="fill:#f6b40e;fill-opacity:1;fill-rule:nonzero;stroke:#85340a;stroke-width:1.11199999;stroke-linecap:butt;stroke-linejoin:miter;stroke-miterlimit:4;stroke-opacity:1;stroke-dasharray:none"/></g><g transform="translate(256.8955,158.3984)" id="g132"><path d="m 0,0 c 2.055,-5.527 6.644,-7.135 8.22,-12.176 1.576,-5.043 5.384,-6.685 6.787,-8.32 1.403,-1.635 0.582,-3.299 1.249,-3.338 0.667,-0.039 1.265,1.959 -0.244,4.482 -1.511,2.524 -3.881,2.477 -5.862,8.614 -1.98,6.136 -5.461,6.314 -6.996,12.023 m -11.552,9.783 31.256,-28.99 c 0,0 0.567,-0.568 0.945,-0.189 0.379,0.377 -0.189,0.943 -0.189,0.943 L -5.376,14.09" inkscape:connector-curvature="0" id="path134" style="fill:#f6b40e;fill-opacity:1;fill-rule:nonzero;stroke:#85340a;stroke-width:1.11199999;stroke-linecap:butt;stroke-linejoin:miter;stroke-miterlimit:4;stroke-opacity:1;stroke-dasharray:none"/></g><g transform="translate(250.4756,169.9917)" id="g136"><path d="M 0,0 26.61,12.179 -0.818,1.974 M 14.789,3.681 C 20.447,3.964 22.953,7.173 28.11,6.543 24.032,7.926 20.871,4.591 14.848,4.78" inkscape:connector-curvature="0" id="path138" style="fill:#85340a;fill-opacity:1;fill-rule:nonzero;stroke:none"/></g><g transform="translate(250.0615,169.8872)" id="g140"><path d="M 0,0 29.246,1.069 -0.001,2.137 m 15.074,-4.395 c 5.336,-1.903 8.879,0.102 13.402,-2.453 -3.239,2.838 -7.435,0.966 -12.927,3.446" inkscape:connector-curvature="0" id="path142" style="fill:#85340a;fill-opacity:1;fill-rule:nonzero;stroke:none"/></g><g transform="translate(249.6406,169.9507)" id="g144"><path d="M 0,0 27.429,-10.205 0.817,1.975 m 12.244,-9.83 c 4.201,-3.801 8.242,-3.305 11.442,-7.396 -1.905,3.861 -6.499,3.74 -10.624,8.132" inkscape:connector-curvature="0" id="path146" style="fill:#85340a;fill-opacity:1;fill-rule:nonzero;stroke:none"/></g><g transform="translate(249.2754,170.1694)" id="g148"><path d="M 0,0 21.436,-19.923 1.51,1.512 m 7.551,-13.767 c 2.426,-5.12 6.349,-6.205 7.741,-11.211 -0.283,4.297 -4.573,5.941 -6.704,11.578" inkscape:connector-curvature="0" id="path150" style="fill:#85340a;fill-opacity:1;fill-rule:nonzero;stroke:none"/></g><g transform="translate(250.0088,188.3398)" id="g152"><path d="m 0,0 c 9.588,0 17.361,-7.773 17.361,-17.361 0,-9.588 -7.773,-17.362 -17.361,-17.362 -9.589,0 -17.361,7.774 -17.361,17.362 C -17.361,-7.773 -9.589,0 0,0" inkscape:connector-curvature="0" id="path154" style="fill:#f6b40e;fill-opacity:1;fill-rule:nonzero;stroke:none"/></g><g transform="translate(250.0088,188.3398)" id="g156"><path d="m 0,0 c 9.588,0 17.361,-7.773 17.361,-17.361 0,-9.588 -7.773,-17.362 -17.361,-17.362 -9.589,0 -17.361,7.774 -17.361,17.362 C -17.361,-7.773 -9.589,0 0,0 z" inkscape:connector-curvature="0" id="path158" style="fill:none;stroke:#85340a;stroke-width:1.5;stroke-linecap:butt;stroke-linejoin:miter;stroke-miterlimit:4;stroke-opacity:1;stroke-dasharray:none"/></g><g transform="translate(255.9082,174.4175)" id="g160"><path d="M 0,0 C 1.153,0.021 2.231,-0.509 2.383,-1.035 1.047,-2.503 -1.087,-2.376 -2.422,-1.309 -1.838,-0.373 -0.897,-0.016 0,0 m 0.02,0.273 c -1.186,0 -2.322,-0.513 -2.989,-1.582 1.335,-1.201 4.285,-1.332 6.289,0.137 -0.868,0.936 -2.116,1.445 -3.3,1.445" inkscape:connector-curvature="0" id="path162" style="fill:#843511;fill-opacity:1;fill-rule:nonzero;stroke:none"/></g><g transform="translate(256.1523,175.5161)" id="g164"><path d="m 0,0 c -1.735,0 -2.137,-0.401 -2.938,-1.068 -0.802,-0.668 -1.202,-0.535 -1.335,-0.668 -0.133,-0.134 0,-0.535 0.266,-0.4 0.267,0.134 0.802,0.4 1.603,1.068 0.801,0.669 1.601,0.667 2.403,0.667 2.404,0 3.739,-2.002 4.006,-1.869 C 4.271,-2.136 2.67,0 -0.001,0 L 0,0 z" inkscape:connector-curvature="0" id="path166" style="fill:#85340a;fill-opacity:1;fill-rule:nonzero;stroke:none"/></g><g transform="translate(260.958,174.7163)" id="g168"><path d="m 0,0 c -3.07,2.671 -6.943,3.072 -9.081,1.068 -0.523,-0.701 -0.858,-1.45 -0.995,-2.231 -0.27,-1.521 0.206,-3.164 1.397,-4.848 -0.134,0.001 -0.402,-0.133 -0.535,-0.266 -1.06,2.028 -1.435,4.11 -1.088,6.09 0.091,0.518 0.234,1.027 0.419,1.523 C -6.945,3.739 -2.939,4.007 -0.001,0 L 0,0 z" inkscape:connector-curvature="0" id="path170" style="fill:#85340a;fill-opacity:1;fill-rule:nonzero;stroke:none"/></g><g transform="translate(255.8848,174.5869)" id="g172"><path d="m 0,0 c 0.664,0 1.202,-0.538 1.202,-1.202 0,-0.663 -0.538,-1.202 -1.202,-1.202 -0.663,0 -1.202,0.539 -1.202,1.202 C -1.202,-0.538 -0.663,0 0,0" inkscape:connector-curvature="0" id="path174" style="fill:#85340a;fill-opacity:1;fill-rule:nonzero;stroke:none"/></g><g transform="translate(259.3584,172.5786)" id="g176"><path d="M 0,0 C -2.271,-1.736 -4.541,-1.603 -5.876,-0.801 -7.212,0 -7.212,0.267 -6.945,0.267 -6.678,0.267 -6.411,0 -5.343,-0.534 -4.273,-1.068 -2.672,-1.068 -0.002,0 L 0,0 z" inkscape:connector-curvature="0" id="path178" style="fill:#85340a;fill-opacity:1;fill-rule:nonzero;stroke:none"/></g><g transform="translate(247.3525,168.5786)" id="g180"><path d="m 0,0 c -0.571,-0.104 -0.977,-0.61 -0.977,-1.191 0,-0.663 0.548,-1.192 1.211,-1.192 0.391,0 0.752,0.186 0.977,0.508 0.462,-0.348 1.103,-0.384 1.445,-0.391 0.053,-10e-4 0.12,0 0.157,0 0.341,0.007 0.982,0.043 1.445,0.391 0.224,-0.322 0.585,-0.508 0.976,-0.508 0.662,0 1.211,0.529 1.211,1.192 0,0.581 -0.406,1.087 -0.976,1.191 0.32,-0.113 0.527,-0.423 0.527,-0.762 0,-0.442 -0.357,-0.8 -0.801,-0.8 -0.425,0 -0.775,0.337 -0.8,0.761 -0.131,-0.26 -0.647,-1.034 -1.661,-1.074 -1.013,0.04 -1.529,0.814 -1.66,1.074 -0.025,-0.424 -0.375,-0.761 -0.801,-0.761 -0.443,0 -0.8,0.358 -0.8,0.8 0,0.339 0.207,0.649 0.527,0.762" inkscape:connector-curvature="0" id="path182" style="fill:#85340a;fill-opacity:1;fill-rule:nonzero;stroke:none"/></g><g transform="translate(248.6592,165.0234)" id="g184"><path d="m 0,0 c -1.336,0 -1.865,-1.211 -3.067,-2.012 0.668,0.266 1.193,0.793 2.129,1.328 0.935,0.534 1.732,-0.117 2.266,-0.117 l 0.02,0 c 0.533,0 1.33,0.651 2.265,0.117 0.935,-0.535 1.48,-1.062 2.149,-1.328 C 4.559,-1.211 4.012,0 2.676,0 2.408,0 1.881,-0.145 1.348,-0.41 l -0.02,0 C 0.794,-0.145 0.266,0 0,0" inkscape:connector-curvature="0" id="path186" style="fill:#85340a;fill-opacity:1;fill-rule:nonzero;stroke:none"/></g><g transform="translate(248.209,163.4414)" id="g188"><path d="m 0,0 c -0.528,-0.023 -1.225,-0.129 -2.227,-0.43 2.405,0.534 2.935,-0.273 4.004,-0.273 l 0.019,0 c 1.069,0 1.6,0.807 4.004,0.273 -2.671,0.801 -3.202,0.274 -4.004,0.274 l -0.019,0 C 1.276,-0.156 0.879,0.039 -0.001,0 L 0,0 z" inkscape:connector-curvature="0" id="path190" style="fill:#85340a;fill-opacity:1;fill-rule:nonzero;stroke:none"/></g><g transform="translate(246.1025,163.0293)" id="g192"><path d="m 0,0 c -0.155,-0.002 -0.324,-0.004 -0.508,-0.02 2.805,-0.267 1.456,-1.875 4.395,-1.875 l 0.019,0 c 2.938,0 1.61,1.608 4.414,1.875 C 5.382,0.246 6.311,-1.484 3.906,-1.484 l -0.019,0 C 1.632,-1.484 2.327,0.029 0,0" inkscape:connector-curvature="0" id="path194" style="fill:#85340a;fill-opacity:1;fill-rule:nonzero;stroke:none"/></g><g transform="translate(252.415,158.6914)" id="g196"><path d="M 0,0 C 0,1.326 -1.077,2.404 -2.404,2.404 -3.731,2.404 -4.808,1.326 -4.808,0 -4.544,1.113 -3.548,1.898 -2.404,1.898 -1.258,1.898 -0.264,1.113 0,0" inkscape:connector-curvature="0" id="path198" style="fill:#85340a;fill-opacity:1;fill-rule:nonzero;stroke:none"/></g><g transform="translate(239.2148,174.7163)" id="g200"><path d="m 0,0 c 3.072,2.671 6.944,3.072 9.081,1.068 0.523,-0.701 0.858,-1.45 0.996,-2.231 0.269,-1.521 -0.207,-3.164 -1.398,-4.848 0.135,0.001 0.402,-0.133 0.536,-0.266 1.06,2.028 1.434,4.11 1.087,6.09 C 10.211,0.331 10.069,0.84 9.884,1.336 6.946,3.739 2.94,4.007 0.002,0 L 0,0 z" inkscape:connector-curvature="0" id="path202" style="fill:#85340a;fill-opacity:1;fill-rule:nonzero;stroke:none"/></g><g transform="translate(244.0215,175.5161)" id="g204"><path d="m 0,0 c 1.735,0 2.136,-0.401 2.938,-1.068 0.801,-0.668 1.202,-0.535 1.335,-0.668 0.133,-0.134 0,-0.535 -0.267,-0.4 -0.266,0.134 -0.802,0.4 -1.602,1.068 C 1.603,-0.399 0.802,-0.401 0,-0.401 -2.404,-0.401 -3.739,-2.403 -4.005,-2.27 -4.272,-2.136 -2.67,0 0,0 z" inkscape:connector-curvature="0" id="path206" style="fill:#85340a;fill-opacity:1;fill-rule:nonzero;stroke:none"/></g><g transform="translate(243.9199,174.4175)" id="g208"><path d="M 0,0 C 1.153,0.021 2.232,-0.509 2.383,-1.035 1.047,-2.503 -1.086,-2.376 -2.422,-1.309 -1.838,-0.373 -0.898,-0.016 0,0 m 0.02,0.273 c -1.187,0 -2.322,-0.513 -2.989,-1.582 1.336,-1.201 4.285,-1.332 6.289,0.137 -0.868,0.936 -2.115,1.445 -3.301,1.445 l 0.001,0 z" inkscape:connector-curvature="0" id="path210" style="fill:#843511;fill-opacity:1;fill-rule:nonzero;stroke:none"/></g><g transform="translate(244.0962,174.5869)" id="g212"><path d="m 0,0 c 0.664,0 1.202,-0.538 1.202,-1.202 0,-0.663 -0.538,-1.202 -1.202,-1.202 -0.664,0 -1.202,0.539 -1.202,1.202 C -1.202,-0.538 -0.664,0 0,0" inkscape:connector-curvature="0" id="path214" style="fill:#85340a;fill-opacity:1;fill-rule:nonzero;stroke:none"/></g><g transform="translate(240.8149,172.5786)" id="g216"><path d="M 0,0 C 2.271,-1.736 4.541,-1.603 5.876,-0.801 7.211,0 7.211,0.267 6.945,0.267 6.678,0.267 6.411,0 5.342,-0.534 4.274,-1.068 2.672,-1.068 0.001,0 L 0,0 z" inkscape:connector-curvature="0" id="path218" style="fill:#85340a;fill-opacity:1;fill-rule:nonzero;stroke:none"/></g></g></g></g></svg>