<?xml version="1.0" encoding="UTF-8" standalone="no"?>
<!-- Created with Inkscape (http://www.inkscape.org/) -->
<svg xmlns:dc="http://purl.org/dc/elements/1.1/" xmlns:cc="http://creativecommons.org/ns#" xmlns:rdf="http://www.w3.org/1999/02/22-rdf-syntax-ns#" xmlns:svg="http://www.w3.org/2000/svg" xmlns="http://www.w3.org/2000/svg" xmlns:inkscape="http://www.inkscape.org/namespaces/inkscape" version="1.1" width="625" height="416.3725" id="svg2" xml:space="preserve"><metadata id="metadata8"><rdf:RDF><cc:Work rdf:about=""><dc:format>image/svg+xml</dc:format><dc:type rdf:resource="http://purl.org/dc/dcmitype/StillImage"/></cc:Work></rdf:RDF></metadata><defs id="defs6"/><g transform="matrix(1.25,0,0,-1.25,0,416.3725)" id="g10"><path d="m 0.247,0 499.754,0 0,333.097 -499.754,0 L 0.247,0 z" inkscape:connector-curvature="0" id="path12" style="fill:#00008b;fill-opacity:1;fill-rule:nonzero;stroke:none"/><g transform="translate(125.2466,114.0469)" id="g14"><path d="M 0,0 7.231,-22.484 29.318,-14.119 16.249,-33.791 36.56,-45.846 13.03,-47.893 16.271,-71.287 0,-54.168 l -16.271,-17.119 3.24,23.394 -23.529,2.047 20.311,12.055 -13.069,19.672 22.087,-8.365 L 0,0 z" inkscape:connector-curvature="0" id="path16" style="fill:#ffffff;fill-opacity:1;fill-rule:nonzero;stroke:none"/></g><g transform="translate(375.2471,105.5703)" id="g18"><path d="m 0,0 3.443,-10.707 10.518,3.984 -6.225,-9.369 9.672,-5.74 -11.203,-0.975 1.543,-11.14 -7.748,8.152 -7.748,-8.152 1.543,11.14 -11.205,0.975 9.672,5.74 -6.223,9.369 10.516,-3.984 L 0,0 z" inkscape:connector-curvature="0" id="path20" style="fill:#ffffff;fill-opacity:1;fill-rule:nonzero;stroke:none"/></g><g transform="translate(312.7471,204.5278)" id="g22"><path d="m 0,0 3.443,-10.707 10.518,3.984 -6.225,-9.368 9.672,-5.74 -11.203,-0.974 1.543,-11.141 -7.748,8.152 -7.748,-8.152 1.543,11.141 -11.205,0.974 9.672,5.74 -6.223,9.368 10.516,-3.984 L 0,0 z" inkscape:connector-curvature="0" id="path24" style="fill:#ffffff;fill-opacity:1;fill-rule:nonzero;stroke:none"/></g><g transform="translate(375.2471,292.2363)" id="g26"><path d="m 0,0 3.443,-10.707 10.518,3.984 -6.225,-9.368 9.672,-5.74 -11.203,-0.975 1.543,-11.14 -7.748,8.152 -7.748,-8.152 1.543,11.14 -11.205,0.975 9.672,5.74 -6.223,9.368 10.516,-3.984 L 0,0 z" inkscape:connector-curvature="0" id="path28" style="fill:#ffffff;fill-opacity:1;fill-rule:nonzero;stroke:none"/></g><g transform="translate(430.8018,241.1948)" id="g30"><path d="m 0,0 3.443,-10.707 10.518,3.983 -6.223,-9.367 9.672,-5.74 -11.205,-0.975 1.543,-11.14 -7.748,8.152 -7.748,-8.152 1.543,11.14 -11.205,0.975 9.674,5.74 -6.225,9.367 10.518,-3.983 L 0,0 z" inkscape:connector-curvature="0" id="path32" style="fill:#ffffff;fill-opacity:1;fill-rule:nonzero;stroke:none"/></g><g transform="translate(400.2471,171.0464)" id="g34"><path d="m 0,0 2.721,-6.671 7.185,-0.528 -5.504,-4.648 1.721,-6.996 -6.123,3.797 -6.123,-3.797 1.719,6.996 -5.504,4.648 7.185,0.528 L 0,0 z" inkscape:connector-curvature="0" id="path36" style="fill:#ffffff;fill-opacity:1;fill-rule:nonzero;stroke:none"/></g><g transform="translate(104.4135,333.0972)" id="g38"><path d="m 0,0 0,-54.734 -104.167,0 0,-55.733 104.167,0 0,-55.733 41.666,0 0,55.733 104.167,0 0,55.733 -104.167,0 L 41.666,0 0,0 z" inkscape:connector-curvature="0" id="path40" style="fill:#ffffff;fill-opacity:1;fill-rule:nonzero;stroke:none"/></g><g transform="translate(0.2466,333.0972)" id="g42"><path d="m 0,0 0,-17.694 222.049,-148.506 27.951,0 0,18.692 L 29.447,0 0,0 z" inkscape:connector-curvature="0" id="path44" style="fill:#ffffff;fill-opacity:1;fill-rule:nonzero;stroke:none"/></g><g transform="translate(220.7991,333.0972)" id="g46"><path d="m 0,0 -220.553,-147.508 0,-18.692 27.951,0 L 29.448,-17.694 29.448,0 0,0 z" inkscape:connector-curvature="0" id="path48" style="fill:#ffffff;fill-opacity:1;fill-rule:nonzero;stroke:none"/></g><g transform="translate(112.7466,333.0972)" id="g50"><path d="m 0,0 0,-65.88 -112.5,0 0,-33.44 112.5,0 0,-66.88 25,0 0,66.88 112.5,0 0,33.44 -112.5,0 L 25,0 0,0 z" inkscape:connector-curvature="0" id="path52" style="fill:#ff0000;fill-opacity:1;fill-rule:nonzero;stroke:none"/></g><g transform="translate(230.1168,333.0972)" id="g54"><path d="m 0,0 -81.837,-54.734 18.633,0 L 18.634,0 0,0 z m -229.87,0 0,-11.462 64.699,-43.272 18.634,0 L -228.374,0 -229.87,0 z" inkscape:connector-curvature="0" id="path56" style="fill:#ff0000;fill-opacity:1;fill-rule:nonzero;stroke:none"/></g><g transform="translate(166.9131,222.6303)" id="g58"><path d="m 0,0 83.334,-55.733 0,12.462 L 18.634,0 0,0 z m -83.334,0 -83.333,-55.733 18.634,0 L -64.699,0 -83.334,0 z" inkscape:connector-curvature="0" id="path60" style="fill:#ff0000;fill-opacity:1;fill-rule:nonzero;stroke:none"/></g></g></svg>