<?xml version="1.0" encoding="UTF-8"?>
<!-- Generator: Adobe Illustrator 16.0.0, SVG Export Plug-In . SVG Version: 6.00 Build 0)  -->
<!DOCTYPE svg PUBLIC "-//W3C//DTD SVG 1.1//EN" "http://www.w3.org/Graphics/SVG/1.1/DTD/svg11.dtd">
<svg version="1.1" xmlns="http://www.w3.org/2000/svg" xmlns:xlink="http://www.w3.org/1999/xlink" x="0px" y="0px" width="500px" height="350px" viewBox="0 0 500 350" enable-background="new 0 0 500 350" xml:space="preserve">
<g id="Fondo">
	<path fill-rule="evenodd" clip-rule="evenodd" fill="#008F3C" d="M457.41,174.9L249.9,307.4L42.59,175.1L249.9,42.6L457.41,174.9z    M500,0v350H0V0H500z"/>
	<path fill-rule="evenodd" clip-rule="evenodd" fill="#FFC000" d="M337.44,174.9c0,48.86-39.67,87.55-87.54,87.55   c-33.8,0-72.68-20.32-84.99-66.83c-0.39-1.37-2.35-12.12-2.35-16.22v-8.8c0.2-5.66,1.37-12.31,2.74-17.78   c2.73-11.53,8.6-24.04,18.76-35.37c20.12-22.67,44.74-29.9,65.84-29.9C298.75,87.55,337.44,127.02,337.44,174.9z M457.21,174.9   L249.9,307.4L42.99,175.29v-0.58L249.9,42.8L457.21,174.9z"/>
	<path fill-rule="evenodd" clip-rule="evenodd" fill="#232071" d="M278.04,146.57c0.78,0.19,1.76,0.19,2.54,0.19   c-0.78,0.39-2.15,1.17-2.15,1.56c0,0.59,0.59,1.57,0.78,2.35c-0.59-0.39-1.56-1.37-2.15-1.37c-0.39,0-1.37,0.98-1.95,1.37   c0.19-0.78,0.78-1.76,0.78-2.35c0-0.39-1.37-0.97-2.15-1.56c0.78,0,1.76,0,2.54-0.19c0.39-0.59,0.78-1.57,0.98-2.15   C277.45,145.2,277.65,145.98,278.04,146.57z M255.96,87.74c52.95,4.89,81.48,47.49,81.48,87.16c0,2.35-0.98,11.34-0.98,12.12   c-36.93-30.29-74.83-43.97-111.57-48.27c-4.49-0.39-13.48-1.17-14.07-1.17h-21.49l-18.95,1.95v-0.78   c1.76-3.71,3.71-7.62,6.06-11.14c17.78-27.16,44.94-38.5,67.41-39.87H255.96z"/>
	<path fill-rule="evenodd" clip-rule="evenodd" fill="#232071" d="M250.88,243.1c-0.39,0.2-0.78,0.4-0.39,1.18   c-0.2-0.2,0-0.39-0.59-0.39c-0.39,0-0.39,0.19-0.39,0.39c0-0.2,0.2-0.2,0.2-0.59c0-0.59-0.39-0.39-0.39-0.39   c0.39-0.2,0.58-0.59,0.58-0.78C250.1,242.71,249.9,242.91,250.88,243.1z M295.82,239.98c-0.39,0.19-0.98,0.58-1.37,0.97   c0.2,0.4,0.39,0.98,0.59,1.57c-0.39-0.39-0.78-0.98-1.37-0.98c-0.39,0-0.78,0.59-1.17,0.78c0-0.39,0.39-0.78,0.39-1.37   c0-0.39-0.98-0.78-1.37-0.97c0.78,0.19,2.34-0.59,2.15-1.57C293.47,239.39,294.84,240.17,295.82,239.98z M278.82,233.14   c-0.59,0.39-1.56,0.78-1.56,1.37c0,0.39,0.39,1.17,0.58,1.75c-0.58-0.39-1.17-1.17-1.76-1.17c-0.39,0-0.97,0.78-1.56,1.17   c0.2-0.58,0.59-1.36,0.59-1.75c0-0.59-0.98-0.98-1.57-1.37c0.59,0,1.18,0,1.76-0.2c0.39-0.39,0.78-1.17,0.98-1.76   C275.89,232.36,277.65,233.53,278.82,233.14z M296.6,230.99c-0.59,0.39-1.76,0.78-1.76,1.17c0,0.59,0.39,1.37,0.59,1.96   c-0.59-0.4-1.17-1.18-1.76-1.18c-0.39,0-0.98,0.78-1.56,1.18c0.19-0.59,0.58-1.18,0.58-1.76c0-0.39-0.97-0.98-1.56-1.37   c1.37,0.39,2.54-0.59,2.73-2.15C293.67,230.4,295.04,231.38,296.6,230.99z M285.85,225.52c-0.39,0.19-1.36,0.58-1.36,0.97   c0,0.59,0.39,0.98,0.39,1.37c-0.39-0.19-0.78-0.78-1.18-0.78c-0.58,0-0.78,0.59-1.17,0.78c0-0.39,0.39-0.78,0.39-1.37   c0-0.39-0.97-0.78-1.36-0.97c0.78,0.19,2.34-0.59,2.14-1.57C283.31,224.93,284.88,225.71,285.85,225.52z M304.61,224.15   c-0.39,0.39-1.17,0.78-1.17,1.17c0,0.59,0.19,0.98,0.39,1.37c-0.39-0.2-0.78-0.78-1.37-0.78c-0.39,0-0.78,0.39-1.17,0.78   c0-0.39,0.39-0.78,0.39-1.37c0-0.39-0.98-0.98-1.37-1.17c0.59,0.19,2.54-0.59,2.15-1.56C302.27,223.56,303.63,224.34,304.61,224.15   z M271.4,223.37c-0.4,0.39-1.18,0.78-1.18,1.17c0,0.59,0.2,0.98,0.39,1.37c-0.39-0.39-0.97-0.98-1.36-0.98   c-0.59,0-0.98,0.78-1.37,0.98c0.19-0.39,0.58-0.98,0.58-1.37c0-0.59-0.78-0.78-1.36-1.17c0.78,0.19,2.34-0.59,2.15-1.57   C269.05,222.78,270.42,223.56,271.4,223.37z M295.62,222.59c-0.39,0.19-1.36,0.58-1.36,0.97c0,0.59,0.39,0.98,0.39,1.37   c-0.39-0.2-0.79-0.78-1.18-0.78c-0.58,0-0.97,0.58-1.36,0.98c0.19-0.4,0.58-1.18,0.58-1.57c0-0.58-0.97-0.78-1.37-0.97   c0.79,0.19,2.15-0.59,2.15-1.57C293.28,222,294.65,222.78,295.62,222.59z M218.25,220.44c-0.59,0.39-2.15,0.97-2.15,1.56   c0,0.39,0.59,1.56,0.78,2.34c-0.58-0.58-1.56-1.56-1.95-1.56c-0.59,0-1.37,0.98-2.15,1.56c0.19-0.78,0.78-1.75,0.78-2.34   c0-0.39-1.37-1.17-1.95-1.56c0.78,0,1.56,0,2.34-0.2c0.39-0.59,0.78-1.56,0.98-2.34C214.73,219.46,216.1,221.02,218.25,220.44z    M312.23,219.65c-0.58,0.39-1.56,0.98-1.56,1.37c0,0.59,0.39,1.17,0.58,1.76c-0.58-0.39-1.17-1.17-1.75-1.17   c-0.39,0-0.98,0.78-1.57,1.17c0.2-0.59,0.59-1.37,0.59-1.95c0-0.39-1.17-0.79-1.76-1.18c0.78,0.2,2.93-0.19,2.74-1.95   C309.3,218.87,311.06,220.04,312.23,219.65z M250.88,213.01c0.78,0.19,1.76,0.19,2.54,0.19c-0.78,0.59-2.15,1.18-2.15,1.57   c0,0.58,0.59,1.56,0.78,2.34c-0.58-0.39-1.56-1.36-2.15-1.36c-0.39,0-1.37,0.97-1.95,1.36c0.19-0.78,0.78-1.76,0.78-2.34   c0-0.39-1.37-0.98-2.15-1.57c0.78,0,1.76,0,2.54-0.19c0.39-0.59,0.78-1.56,0.98-2.15C250.29,211.64,250.49,212.42,250.88,213.01z    M317.7,212.62c-0.58,0.39-1.76,0.78-1.76,1.17c0,0.59,0.39,1.37,0.59,1.96c-0.59-0.4-1.17-1.18-1.76-1.18   c-0.39,0-0.98,0.78-1.56,1.18c0.19-0.59,0.58-1.18,0.58-1.76c0-0.39-0.97-0.98-1.56-1.37c1.37,0.19,2.35-0.59,2.74-1.96   C314.77,211.84,316.14,213.01,317.7,212.62z M202.62,212.42c0.58,0.2,1.37,0.2,1.95,0.2c-0.58,0.39-1.56,0.98-1.56,1.37   c0,0.58,0.39,1.17,0.59,1.76c-0.59-0.4-1.18-1.18-1.76-1.18c-0.39,0-0.98,0.78-1.57,1.18c0.2-0.59,0.59-1.37,0.59-1.76   c0-0.59-1.17-0.98-1.76-1.37c0.78,0.19,2.93-0.2,2.74-1.96C202.03,211.25,202.42,212.03,202.62,212.42z M325.52,205.97   c-0.39,0.2-1.17,0.59-1.17,0.98c0,0.59,0.19,0.98,0.39,1.37c-0.39-0.2-0.79-0.78-1.18-0.78c-0.58,0-0.97,0.58-1.36,0.78   c0.19-0.39,0.39-0.78,0.39-1.37c0-0.39-0.78-0.78-1.18-0.98c1.37,0.59,1.57-1.17,2.15-1.56   C323.37,205.39,324.35,206.17,325.52,205.97z M312.23,204.41c0.78,0.2,1.76,0.2,2.54,0.2c-0.78,0.58-2.15,1.17-2.15,1.76   c0,0.39,0.39,1.36,0.78,2.14c-0.58-0.39-1.56-1.36-2.15-1.36c-0.39,0-1.36,0.97-1.95,1.36c0.2-0.78,0.78-1.75,0.78-2.34   c0-0.39-1.37-0.98-2.15-1.56c0.78,0,1.76,0,2.54-0.2c0.39-0.59,0.59-1.37,0.78-2.15C311.65,203.04,311.84,203.82,312.23,204.41z    M205.16,203.63c0.58,0.19,1.37,0.19,2.15,0.19c-0.59,0.4-1.76,0.98-1.76,1.37c0,0.59,0.39,1.37,0.59,1.96   c-0.4-0.39-1.18-1.18-1.57-1.18c-0.58,0-1.17,0.79-1.76,1.18c0.2-0.59,0.59-1.37,0.59-1.76c0-0.59-1.17-1.17-1.56-1.57   c1.36,0.4,2.54-0.78,2.73-1.95C204.57,202.46,204.96,203.24,205.16,203.63z M177.8,203.24c-0.39,0.19-1.36,0.58-1.36,1.17   c0,0.39,0.39,0.98,0.39,1.37c-0.39-0.39-0.78-0.98-1.37-0.98c-0.39,0-0.78,0.59-1.17,0.98c0.19-0.39,0.39-0.78,0.39-1.37   c0-0.39-0.78-0.78-1.37-1.17c0.78,0.19,2.34-0.59,2.34-1.56C175.07,202.65,177.02,203.43,177.8,203.24z M246.97,202.46   c-0.19,0.19-0.78,0.39-0.78,0.97c0,0.39,0.2,0.59,0.39,0.79c-0.19,0-0.59-0.59-0.98-0.59c-0.58,0-0.58,0.39-0.97,0.59   c0.19-0.2,0.39-0.4,0.39-0.98c0-0.39-0.59-0.59-0.98-0.78c0.2-0.2,1.56,0.19,1.56-0.98C245.41,202.07,246.39,202.65,246.97,202.46z    M241.5,196.2h1.76c-0.39,0.39-1.17,0.78-1.17,1.18c0,0.58,0.19,0.97,0.39,1.36c-0.39-0.39-0.78-0.97-1.37-0.97   c-0.39,0-0.78,0.58-1.17,0.97c0-0.39,0.39-0.97,0.39-1.36c0-0.59-0.78-0.79-1.37-1.18c0.59,0.2,2.54-0.58,2.15-1.56   C241.31,195.03,241.5,195.62,241.5,196.2z M262.8,196.01c-0.59,0.39-1.57,0.97-1.57,1.37c0,0.58,0.4,1.36,0.59,1.95   c-0.59-0.59-1.17-0.98-1.76-1.37c-0.39,0.39-0.97,0.78-1.56,1.17c0.19-0.58,0.59-1.17,0.59-1.75c0-0.4-1.18-0.98-1.76-1.37h2.34   c0-0.59,0.2-1.37,0.39-1.96C260.06,195.23,261.23,196.4,262.8,196.01z M187.18,194.84c0.78,0.19,1.57,0.19,2.35,0.19   c-0.59,0.39-1.96,1.17-1.96,1.56c0,0.59,0.59,1.57,0.78,2.35c-0.58-0.39-1.36-0.98-2.14-1.56c-0.59,0.58-1.37,1.17-1.96,1.56   c0.2-0.78,0.78-1.76,0.78-2.35c0-0.39-1.36-1.17-2.15-1.56c1.96,0.59,3.13-0.98,3.52-2.34   C186.6,193.47,186.79,194.25,187.18,194.84z M196.17,190.34c-0.2,0.2-0.78,0.2-0.78,0.59c0,0.58,0.19,0.78,0.39,0.97   c-0.2,0-0.39-0.58-0.98-0.58c-0.39,0-0.58,0.39-0.78,0.58c0.39-0.58,0.2-1.36-0.59-1.56c0.79,0.2,1.37-0.78,1.37-1.17   C195.39,190.34,194.8,190.15,196.17,190.34z M252.83,188.19c-0.58,0.39-1.76,0.78-1.76,1.37c0,0.39,0.4,1.17,0.59,1.76   c-0.59-0.39-1.17-1.17-1.76-1.17c-0.39,0-0.97,0.78-1.56,1.17c0.19-0.59,0.59-1.37,0.59-1.76c0-0.59-1.18-0.98-1.76-1.37   c1.36,0.39,2.73-0.78,2.93-1.95C249.51,187.41,251.47,188.58,252.83,188.19z M219.42,177.64c-0.58,0.39-1.76,0.78-1.76,1.37   c0,0.39,0.39,1.17,0.59,1.75c-0.39-0.19-1.17-0.97-1.56-0.97c-0.59,0-1.18,0.78-1.76,1.17c0.19-0.59,0.58-1.37,0.58-1.95   c0-0.39-0.97-0.98-1.56-1.37c0.59,0,1.37,0,1.95-0.2c0.4-0.39,0.59-1.17,0.79-1.76C216.49,176.86,217.86,178.03,219.42,177.64z    M275.89,169.82c-0.39,0.39-1.17,0.78-1.17,1.17c0,0.59,0.19,0.98,0.39,1.37c-0.39-0.19-0.78-0.78-1.37-0.78   c-0.39,0-0.78,0.59-1.17,0.78c0-0.39,0.39-0.98,0.39-1.37c0-0.58-0.78-0.78-1.37-1.17c0.59,0.2,1.17,0.2,1.56,0   c0.39-0.39,0.59-0.98,0.79-1.37C273.54,169.43,274.91,170.41,275.89,169.82z M181.71,158.29c-0.58,0.39-1.95,0.98-1.95,1.56   c0,0.4,0.58,1.37,0.78,2.15c-0.59-0.39-1.56-1.36-2.15-1.36c-0.39,0-1.37,0.97-1.95,1.56c0.39-0.78,0.78-1.95,0.78-2.35   c0-0.58-1.17-0.97-1.96-1.56c0.79,0,1.57,0,2.35-0.19c0.39-0.59,0.78-1.57,0.98-2.35C178.59,157.31,179.95,158.88,181.71,158.29z    M210.24,150.28c7.62,0.39,15.63,1.17,23.45,2.54c5.47,1.17,11.52,2.15,17.19,3.71c5.67,1.57,11.33,3.32,17,5.28   c3.52,1.17,7.23,2.73,10.94,4.3c10.55,4.49,21.69,10.36,32.63,17.78c3.52,2.35,7.03,4.89,10.55,7.62   c2.74,2.15,11.33,8.99,11.33,9.77c0,1.76-4.49,11.34-4.69,11.73c-5.27,12.7-21.49,30.49-34.78,37.52c-2.14,0.98-3.9,2.15-5.86,3.13   c-11.52,5.86-26.18,8.79-38.1,8.79c-32.24,0-70.53-18.76-84.01-63.32c-0.59-1.95-1.18-4.1-1.57-6.25   c-0.78-3.71-1.56-10.94-1.56-11.33v-13.1c0.19-2.15,0.59-4.49,0.78-6.64c0.59-2.93,1.17-5.86,1.95-8.79   c8.02-1.37,15.83-2.55,24.04-2.74H210.24z"/>
	<path fill-rule="evenodd" clip-rule="evenodd" fill="#008C39" d="M330.6,188.19c0,1.56-1.37,2.74-2.54,2.74   c-1.37,0-1.96-0.98-1.96-1.96c0-1.17,1.18-2.73,2.74-2.73C330.01,186.24,330.6,187.02,330.6,188.19z M332.16,188.19   c0,2.54-2.15,4.3-4.1,4.3c-2.35,0-3.32-1.56-3.32-3.52c0-2.34,1.17-4.1,3.9-4.1C331.18,184.87,332.16,186.24,332.16,188.19z    M323.95,181.35c0,0.39,0,1.17-0.58,1.17c-0.39,0-0.78-0.58-1.17-0.97v-0.79c0-0.97-1.76-1.75-2.15-1.75   c-0.39,0-0.2,0.19-0.59,0.19c0,0.2-0.19,0.2-0.19,0.59c0,1.17,2.93,2.73,2.93,4.69c0,1.37-1.37,1.95-2.15,1.95   c-1.96,0-4.5-2.34-4.5-3.91c0-0.58,0.2-0.78,0.39-1.17c0.39,0.2,0.98,0.78,1.18,0.98c-0.59,0.78,1.17,2.73,2.34,2.73   c0.39,0,0.98-0.19,0.98-0.78c0-0.39-2.93-4.1-2.93-4.69c0-1.37,1.17-1.76,2.15-1.76C321.02,177.83,323.95,179.59,323.95,181.35z    M314.97,175.1c0,0.58,0,1.17-0.59,1.17c-0.39,0-0.78-0.59-1.17-0.78c0.39-1.17-1.37-2.54-2.15-2.54c-0.39,0-0.78,0.39-0.78,0.78   c0,1.17,3.12,2.93,3.12,4.49c0,1.57-1.36,2.15-2.34,2.15c-2.15,0-4.3-2.34-4.3-3.9c0-0.4,0-0.59,0.2-0.98   c1.95,0.78,1.17,0.78,1.17,1.37c0,1.17,2.15,2.15,2.54,2.15s0.98-0.39,0.98-0.79c0-0.97-3.13-2.73-3.13-4.49   c0-1.56,0.98-1.95,1.95-1.95C312.23,171.78,314.97,173.34,314.97,175.1z M306.37,168.45c0,0.39-0.39,0.98-0.59,1.37l-4.88-2.73   c-0.39,0.39-0.78,0.97-0.98,1.36c1.37,0.79,2.74,1.57,4.11,2.54c-0.2,0.2-0.4,0.59-0.59,0.98l-4.1-2.34   c-0.4,0.58-0.79,1.36-1.18,1.95c1.76,0.98,3.52,2.15,5.28,3.13c-0.2,0.39-0.39,0.78-0.78,1.17c-0.78-0.59-6.06-3.13-6.06-3.91   c0-0.39,0.78-1.95,1.37-2.73c0.58-1.18,1.76-3.52,2.54-3.91L306.37,168.45z M294.65,164.35c0,0.78-0.79,1.17-1.18,1.17   c-0.39,0-2.15-1.17-3.12-1.56c0.39-0.59,0.58-1.17,0.97-1.76C291.91,162.4,294.65,163.18,294.65,164.35z M296.21,164.54   c0,0.59-0.2,1.57-1.37,2.15c-0.19,0.2-0.58,0.4-0.98,0.59c0,0.2,0.2,0,0.2,0.59c0,0.39-0.59,1.76-0.98,2.54   c-0.19,0-0.58-0.2-0.97-0.39c0.19-0.78,0.58-1.96,0.58-2.35c0-1.76-1.37-1.17-2.93-2.34c-0.58,0.78-1.17,1.76-1.56,2.73   c-0.39-0.19-0.98-0.58-0.98-0.97l3.52-6.84C292.69,161.81,296.21,161.42,296.21,164.54z M285.85,160.83   c-0.39-0.19-1.17-0.58-1.36-0.78c-0.2-0.39-0.2-0.98-0.59-1.17c-0.2-0.39-0.98-0.59-1.37-0.59c-1.95,0-2.54,1.56-2.54,2.74   c0,1.17,0.39,2.54,1.96,2.54c0.39,0,0.97-0.39,1.56-0.78c-0.2-0.2-0.59-0.39-0.98-0.59c0-0.2,0.2-0.59,0.39-0.98   c0.78,0.39,1.76,0.78,2.74,1.18c-0.59,1.17-1.17,2.54-1.76,3.71c-0.2-0.39-1.37-0.39-0.59-1.17c-3.51,0.19-4.69-1.57-4.69-3.91   c0-1.96,1.18-4.11,3.91-4.11C284.49,156.92,285.85,158.1,285.85,160.83z M274.33,156.53c0,1.37-0.98,2.74-2.54,2.74   c-0.98,0-1.76-1.37-1.76-2.15c0-1.17,0.78-2.74,2.54-2.74C273.94,154.38,274.33,155.75,274.33,156.53z M275.89,156.53   c0,1.96-1.56,4.3-3.91,4.3c-2.93,0-3.32-2.54-3.32-3.91c0-1.95,1.17-4.1,3.71-4.1S275.89,154.58,275.89,156.53z M264.36,152.04   c0,0.98-0.78,0.98-0.98,0.98c-0.58,0-2.15-0.59-3.12-0.98l0.58-1.76C261.63,150.47,264.36,150.47,264.36,152.04z M266.12,152.04   c0,0.98-1.17,1.95-1.95,2.73c0,0.39,0.19,0.59,0.19,0.98c0,0.59-0.19,1.56-0.59,2.35c-1.36,0-0.97-1.18-0.78-1.76v-0.59   c0-0.39,0-0.59-0.19-0.98c-0.78-0.39-2.54-1.17-2.93-1.17c-0.59,0-0.98,1.96-1.37,2.93c-0.78-0.58-0.98-0.39-0.98-0.97   c0-0.4,1.57-4.69,2.35-7.04C262.02,148.91,266.12,149.3,266.12,152.04z M254.01,149.11c0,0.39-0.59,0.97-0.98,0.97   c-0.59,0-2.15-0.58-3.32-0.97l0.58-1.76C250.29,147.35,254.01,147.54,254.01,149.11z M249.71,145.59c1.36,0.98,5.86,0,5.86,3.52   c0,1.56-1.37,2.54-2.54,2.54c-0.39,0-2.54-0.59-3.71-0.98c-0.39,0.78-0.59,1.76-0.79,2.93c-0.78,0-1.17-0.19-1.36-0.19l1.95-7.82   H249.71z M238.37,144.03c-0.19,0.19-0.19,0.58-0.19,1.17c-1.76-0.2-3.13-0.59-4.49-0.78c-0.2,0.19-0.2,0.58-0.4,1.36   c1.18,0.4,2.54,0.59,3.72,0.79v1.17c-1.76-0.2-2.93-0.39-3.91-0.59c-0.2,0.39-0.2,0.98-0.39,1.96c1.37,0.39,2.93,0.58,4.49,0.78   c0.2,0.39,0,0.98,0,1.37c-1.95-0.39-3.91-0.79-5.86-0.98c0.39-2.35,0.78-4.89,1.17-7.23C234.86,143.44,236.62,143.63,238.37,144.03   z M176.83,145.39c0,0.98-0.39,2.35-1.96,2.35c-1.56,0-2.15-1.76-2.15-2.54c0-1.17,0.39-2.35,1.96-2.35   C176.44,142.85,176.83,144.61,176.83,145.39z M187.38,142.46c0,1.17-2.74,1.37-3.13,1.37h-0.78c0-0.39,0-0.98-0.2-2.15   c0.79,0.2,1.96,0,2.35,0C186.79,141.68,187.38,141.68,187.38,142.46z M196.95,141.29c1.76,0.78,1.57,1.37,1.57,2.54   s-0.59,2.54-2.35,2.54h-1.95v-5.08H196.95z M178.39,145.39c0,1.96-1.17,3.91-3.52,3.91c-2.73,0-3.51-2.34-3.51-4.1   c0-1.57,0.39-3.91,3.32-3.91C177.41,141.29,178.39,143.44,178.39,145.39z M216.69,140.31c0.19,1.76,0.58,3.72,1.17,5.67   c0.78-1.76,1.56-3.52,2.15-5.28h1.95l-0.78,8.21c-0.78,0-0.98-0.19-1.17-0.19c0.19-1.57,0.19-2.54,0.19-5.09   c-0.58,1.57-1.36,3.33-1.95,4.89h-1.17l-1.18-5.28c-0.58,1.37-0.58,3.33-0.78,5.08h-0.97v-3.12c0.19-1.57,0.39-3.32,0.58-4.89   H216.69z M189.14,142.66c0,0.39-0.98,1.56-0.98,2.15c0,0.39,0.78,2.15,0.98,3.12l-1.37,0.2c-0.78-2.54,0-2.93-2.15-2.93   c-0.59,0-1.37,0.19-2.15,0.19v3.13h-1.56l0.19-0.2c0-1.36,0-2.93-0.19-8.2c1.36,0.19,3.71,0,4.1,0   C187.96,140.12,189.14,140.9,189.14,142.66z M210.63,139.73v1.36h-5.86v1.76c1.56,0.2,3.12,0.2,4.69,0v1.37h-4.69v2.35   c4.69,0,5.47,0.19,6.05,0.19c-0.19,0.39-0.19,0.98-0.19,1.37c-0.2,0-0.39,0-0.59-0.2c-4.3,0.2-6.05-0.39-6.64,0   c0.2-3.51,0.2-7.81,0-8.2C208.68,139.92,209.65,139.92,210.63,139.73z M197.15,139.73c2.34,0.39,2.93,2.73,2.93,4.1   c0,2.35-1.37,4.1-4.11,4.1h-3.12v-8.2H197.15z"/>
	<path fill-rule="evenodd" clip-rule="evenodd" fill="#FFFFFF" d="M330.6,188.19c0,1.56-1.37,2.74-2.54,2.74   c-1.57,0-1.76-0.98-1.76-1.96c0-1.37,0.59-2.54,2.54-2.54C330.01,186.43,330.6,186.82,330.6,188.19z M332.16,188.19   c0,2.54-2.15,4.3-4.1,4.3c-2.15,0-3.52-1.56-3.52-3.52c0-2.15,1.76-4.3,4.1-4.3C331.18,184.67,332.16,186.43,332.16,188.19z    M323.95,181.35c0,0.39,0,1.17-0.58,1.17c-0.39,0-0.78-0.58-1.17-0.97v-0.79c0-0.97-1.76-1.75-2.15-1.75   c-0.39,0-0.2,0.19-0.59,0.19c0,0.2-0.19,0.2-0.19,0.59c0,1.17,2.93,2.73,2.93,4.69c0,1.37-1.37,1.95-2.15,1.95   c-1.96,0-4.5-2.34-4.5-3.91c0-0.58,0.2-0.78,0.39-1.17c0.39,0.2,0.98,0.78,1.18,0.98c-0.59,0.78,1.17,2.73,2.34,2.73   c0.39,0,0.98-0.19,0.98-0.78c0-0.39-2.93-4.1-2.93-4.69c0-1.17,1.36-1.95,1.95-1.95C321.22,177.64,323.95,179.79,323.95,181.35z    M314.97,175.1c0,0.58,0,1.17-0.59,1.17c-0.39,0-0.78-0.59-1.17-0.78c0.39-1.17-1.37-2.54-2.15-2.54c-0.39,0-0.78,0.39-0.78,0.78   c0,1.17,3.12,2.93,3.12,4.49c0,1.57-1.36,2.15-2.34,2.15c-1.95,0-4.49-2.34-4.49-3.9c0-0.4,0.19-0.59,0.39-0.98   c0.39,0.19,0.97,0.58,1.17,0.98c0,1.17,1.56,2.54,2.54,2.54c0.39,0,0.98-0.39,0.98-0.79c0-0.97-3.13-2.73-3.13-4.49   c0-1.37,0.98-2.15,1.95-2.15C312.23,171.58,314.97,173.53,314.97,175.1z M306.37,168.45c0,0.39-0.39,0.98-0.59,1.37l-4.88-2.73   c-0.39,0.39-0.78,0.97-0.98,1.36l4.11,2.35l-0.59,1.17l-4.1-2.34c-0.4,0.58-0.79,1.36-1.18,1.95c1.76,0.98,3.52,2.15,5.28,3.13   c-0.2,0.39-0.39,0.78-0.78,1.17l-6.26-3.71l3.91-7.04L306.37,168.45z M291.52,162.4c0.2,0,3.13,0.97,3.13,1.95   c0,0.78-0.79,1.17-1.18,1.17c-0.39,0-2.93-1.37-2.93-1.76c0-0.58,0.39-0.97,0.59-1.36H291.52z M296.21,164.54   c0,0.59-0.2,1.57-1.37,2.15c-0.19,0.2-0.58,0.4-0.98,0.59c0,0.2,0.2,0,0.2,0.59c0,0.39-0.59,1.76-0.98,2.54   c-0.19,0-0.58-0.2-0.97-0.39c0.19-0.78,0.58-1.96,0.58-2.35c0-1.76-1.37-1.17-2.93-2.34c-0.58,0.78-1.17,1.76-1.56,2.73l-1.17-0.58   c1.17-2.35,2.34-4.89,3.71-7.23C292.69,161.81,296.21,161.42,296.21,164.54z M286.05,160.25v0.58c-2.74-0.98-1.17-2.54-3.52-2.54   c-1.95,0-2.54,1.56-2.54,2.74c0,1.17,0.39,2.54,1.96,2.54c0.39,0,0.97-0.39,1.56-0.78c-0.2-0.2-0.59-0.39-0.98-0.59   c0-0.2,0.2-0.59,0.39-0.98c0.78,0.39,1.76,0.78,2.74,1.18c-0.59,1.17-1.17,2.54-1.76,3.71c-0.2-0.39-1.37-0.39-0.59-1.17   c-3.51,0.19-4.69-1.57-4.69-3.91c0-1.96,1.18-4.11,3.91-4.11C284.29,156.92,285.46,157.71,286.05,160.25z M274.33,156.53   c0,1.37-0.98,2.74-2.54,2.74c-1.37,0-1.57-1.37-1.57-2.15c0-1.17,0.39-2.74,2.35-2.74C273.94,154.38,274.33,155.75,274.33,156.53z    M275.89,156.53c0,1.96-1.56,4.3-3.91,4.3c-2.15,0-3.52-1.95-3.52-3.71c0-2.15,1.76-4.3,3.91-4.3   C274.91,152.82,275.89,154.58,275.89,156.53z M261.63,150.47c1.36,0.4,2.73,0.4,2.73,1.57c0,0.98-0.78,0.98-0.98,0.98   c-0.58,0-2.15-0.59-3.12-0.98c0-0.39,0.19-0.98,0.39-1.57H261.63z M266.12,152.04c0,0.98-1.17,1.95-1.95,2.73   c0,0.39,0.19,0.59,0.19,0.98c0,0.59-0.19,1.56-0.39,2.35c-1.56,0.39-0.98-1.37-0.98-2.35c0-0.39,0-0.59-0.19-0.98   c-0.78-0.39-2.54-1.17-2.93-1.17c-0.59,0-0.98,1.96-1.37,2.93c-0.39-0.19-0.78-0.39-1.17-0.39l2.54-7.82   C262.02,149.11,266.12,149.3,266.12,152.04z M251.07,147.54c0.98,0.39,2.94,0,2.94,1.57c0,0.39-0.59,0.97-0.98,0.97   c-0.59,0-2.15-0.58-3.13-0.78c0-0.98,0.2-1.37,0.2-1.76H251.07z M249.71,145.59c1.36,0.98,5.86,0,5.86,3.52   c0,1.56-1.37,2.54-2.54,2.54c-0.39,0-2.54-0.59-3.71-0.98c-0.39,0.78-0.59,1.76-0.79,2.93c-0.78,0-1.17-0.19-1.36-0.19l1.95-7.82   H249.71z M238.37,144.03c-0.19,0.39-0.19,0.78-0.19,1.17c-1.76-0.2-3.13-0.59-4.49-0.78c-0.2,0.19-0.2,0.58-0.4,1.36   c1.18,0.4,2.54,0.59,3.72,0.79v1.17c-1.76-0.2-3.13-0.59-3.72-0.59l-0.39,0.2c0,0.39-0.19,0.78-0.19,1.37   c0,0.97,3.52,1.17,4.49,1.17c0.2,0.39,0,0.98,0,1.37c-1.95-0.39-3.91-0.79-5.86-0.98c0.39-2.35,0.78-4.89,1.17-7.23   C234.86,143.44,236.62,143.63,238.37,144.03z M176.83,145.39c0,0.98-0.39,2.35-1.96,2.35c-1.76,0-1.95-1.76-1.95-2.54   c0-1.17,0-2.35,1.76-2.35C176.44,142.85,176.83,144.61,176.83,145.39z M187.38,142.46c0,1.17-2.74,1.37-3.13,1.37h-0.78v-1.95   c0.78,0,1.76-0.2,2.15-0.2C186.79,141.68,187.38,141.68,187.38,142.46z M196.95,141.29c1.76,0.78,1.57,1.37,1.57,2.54   s-0.59,2.54-2.35,2.54h-1.76v-5.08H196.95z M178.39,145.39c0,1.96-1.17,3.91-3.52,3.91c-2.73,0-3.71-2.93-3.71-4.3   c0-1.95,1.37-3.71,3.52-3.71C177.41,141.29,178.39,143.44,178.39,145.39z M216.69,140.31c0.19,1.76,0.58,3.72,1.17,5.67   c0.78-1.76,1.56-3.52,2.15-5.28h1.95l-0.78,8.21c-0.78,0-0.98-0.19-1.17-0.19c0.19-1.57,0.19-2.54,0.39-4.11l-0.39-0.39   c-0.59,1.37-1.17,2.93-1.76,4.3h-1.17c-0.39-1.56-0.78-3.32-1.18-4.89c-0.58,1.57-0.58,3.13-0.78,4.69h-1.17l0.78-8.2   C215.51,140.31,216.1,140.31,216.69,140.31z M189.14,142.66c0,0.39-0.98,1.56-0.98,2.15c0,0.39,0.39,0.58,0.39,0.97   c0.2,0.59,0.39,1.37,0.59,2.35h-1.37c-0.78-2.54,0-2.93-2.15-2.93c-0.59,0-1.37,0.19-2.15,0.19v3.13h-1.17   c-0.2-2.54-0.39-5.28-0.59-8.01c1.37-0.2,3.91-0.39,4.3-0.39C187.96,140.12,189.14,140.9,189.14,142.66z M210.63,139.73v1.36h-5.86   v1.76c1.56,0.2,3.12,0.2,4.69,0v1.37h-4.69v2.35c4.69,0,5.47,0.19,6.05,0.19c-0.19,0.39-0.19,0.98-0.19,1.37   c-0.2,0-0.39,0-0.59-0.2c-4.3,0.2-6.05-0.39-6.64,0c0.2-3.51,0.2-7.81,0-8.2C208.68,139.92,209.65,139.92,210.63,139.73z    M197.15,139.73c2.34,0.39,2.93,2.73,2.93,4.1c0,2.35-1.37,4.1-4.11,4.1h-3.32v-8.2H197.15z M210.63,137.77   c8.6,0.59,17.58,1.37,26.38,2.93c5.66,0.98,11.33,2.15,17,3.72c5.27,1.36,10.74,3.12,16.02,4.88c13.28,4.5,26.57,10.75,39.86,18.76   c2.34,1.37,26.76,17.79,26.76,19.35c0,2.74-3.12,13.29-3.12,13.48c-3.71-3.12-7.82-6.64-11.53-9.57   c-33.02-25.02-66.43-36.55-99.45-40.26c-3.91-0.39-11.73-0.98-12.31-0.98h-20.71c-8.21,0.2-15.24,1.37-24.04,2.74v-0.59   c1.18-3.91,2.54-8.79,4.5-12.5c6.06-0.98,12.7-1.57,19.15-1.96H210.63z"/>
	<path fill-rule="evenodd" clip-rule="evenodd" fill="#FFFFFF" d="M295.62,239.98c-0.19,0.19-0.78,0.39-0.97,0.97   c-0.2,0.2,0.19,0.79,0,1.18c-0.2,0-0.39-0.59-0.98-0.59c-0.39,0-1.17,0-1.17,0.39c0-0.39,0.39-0.39,0.39-0.98   c0-0.39-0.78-0.58-0.98-0.97c1.17,0.39,0.98-0.78,1.95-1.37C293.67,239.39,294.84,240.17,295.62,239.98z M277.06,232.94   c0.59,0.2,1.17,0.2,1.76,0.2c-0.59,0.39-1.56,0.78-1.56,1.17c0,0.59,0.39,1.17,0.58,1.56c-0.78-0.19-1.56-0.78-1.76-0.78   c-0.39,0-0.97,0.78-1.56,0.98c0.2-0.39,0.59-1.17,0.59-1.56c0-0.59-0.78-0.79-1.17-1.37c0.78,0.19,2.14-0.59,2.14-1.57   C276.48,231.97,276.67,232.55,277.06,232.94z M294.45,230.79c0.59,0.2,1.37,0.2,1.95,0.2c-0.58,0.58-1.56,0.78-1.56,1.17   c0,0.59,0.39,1.17,0.39,1.76c-0.39-0.2-0.97-0.98-1.56-0.98c-0.39,0-1.37,0.2-1.37,0.59c0-0.39,0.39-0.59,0.39-1.17   c0-0.39-0.78-0.79-1.17-1.37c0.78,0.19,2.15-0.39,2.15-1.76C294.06,229.62,294.26,230.21,294.45,230.79z M285.66,225.71   c-0.39,0.2-1.17,0.39-1.17,0.78c0,0.59,0.19,0.98,0.39,0.98c0,0,0,0.2-0.2,0.39c-0.19-0.19-0.58-0.78-0.98-0.78   c-0.58,0-1.17,0-1.17,0.39c0-0.39,0.39-0.39,0.39-0.98c0-0.39-0.78-0.58-0.97-0.97c1.36,0.39,1.17-0.79,1.95-1.18   C283.51,225.32,285.07,225.52,285.66,225.71z M304.42,224.34c-0.39,0.39-0.98,0.59-0.98,0.98c0,0.59,0.19,0.78,0.19,1.37   c-0.39-0.39-0.78-0.78-1.17-0.78c-0.58,0-0.78,0.39-1.17,0.39c0.19-0.2,0.39-0.59,0.39-0.98c0-0.59-0.59-0.59-0.98-1.17   c1.18,0.39,1.37-0.98,1.96-1.17C302.27,223.95,303.83,224.15,304.42,224.34z M271.2,223.56c-1.37,0.39-0.98,1.37-0.78,2.15   c-0.39-0.19-0.78-0.78-1.17-0.78c-0.59,0-1.18,0-1.18,0.39c0-0.39,0.39-0.39,0.39-0.98c0-0.39-0.78-0.58-0.97-0.97   c1.17,0.39,1.37-0.98,1.95-1.18C269.05,223.17,270.61,223.37,271.2,223.56z M293.47,221.41c-0.19,0.78,1.18,1.37,1.96,1.18   c-0.39,0.39-0.78,0.58-1.17,0.97c0.19,0.2,0.19,0.59,0.39,1.37c-0.39-0.2-0.79-0.78-1.18-0.78c-0.58,0-0.78,0.58-1.17,0.78   c0-0.39,0.2-0.98,0.39-1.37c-0.39-0.39-0.78-0.58-0.97-0.97c0.78,0.19,1.56-0.2,1.56-1.18H293.47z M215.51,220.04   c0.39,0.59,1.96,0.4,2.54,0.4c-0.58,0.39-1.95,0.97-1.95,1.56c0,0.39,0.59,1.37,0.59,2.15c-0.59-0.39-1.18-0.78-1.76-1.37   c-0.59,0.39-1.37,0.98-1.96,1.37c0-0.59,0.59-1.56,0.59-2.15c0-0.39-1.17-0.98-1.56-1.56c1.36,0.39,2.54-0.59,2.73-2.15   C215.12,218.68,215.12,219.46,215.51,220.04z M312.04,219.65c-0.39,0.39-1.37,0.79-1.37,1.37c0,0.39,0.19,0.98,0.19,1.57   c-0.39-0.4-0.97-0.98-1.36-0.98c-0.59,0-0.2,0.58-1.57,0.78c0.2-0.39,0.59-0.98,0.59-1.56c0-0.39-0.98-0.59-1.37-1.18   c0.2,0,1.56,0.2,1.76-0.39c0.2-0.39,0.39-0.97,0.78-1.36C309.5,219.26,310.67,219.85,312.04,219.65z M250.88,213.01   c0.59,0.19,1.37,0.19,2.15,0.39c-0.59,0.39-1.76,0.98-1.76,1.37c0,0.58,0.39,1.17,0.59,2.15c-0.59-0.39-1.37-1.17-1.96-1.17   c-0.39,0-1.17,0.78-1.76,1.17c0.2-0.98,0.59-1.57,0.59-2.15c0-0.39-0.98-0.78-1.56-1.57c0.58,0,1.36,0,1.95-0.19   c0.39-0.39,0.59-1.17,0.78-1.76C250.29,211.64,250.49,212.42,250.88,213.01z M204.57,212.62c-0.58,0.39-1.56,0.78-1.56,1.37   c0,0.39,0.19,0.97,0.19,1.56c-0.39-0.39-0.97-0.98-1.36-0.98c-0.59,0-0.2,0.59-1.57,0.78c0.2-0.39,0.59-0.97,0.59-1.36   c0-0.59-0.98-0.79-1.37-1.37c0.2,0,1.57,0.19,1.76-0.39c0.2-0.39,0.39-0.98,0.78-1.37C202.03,212.23,202.81,212.81,204.57,212.62z    M325.32,205.97c-0.19,0.2-0.97,0.59-0.97,0.98c0,0.59,0.19,0.98,0.39,1.17c-0.39,0-0.79-0.58-1.18-0.58   c-0.58,0-0.97,0.58-1.36,0.58c0.19-0.39,0.39-0.58,0.39-1.17c0-0.39-0.59-0.58-0.78-0.98c0.39,0,0.97,0,1.17-0.39   c0.19-0.19,0.19-0.58,0.39-0.78C323.95,205.58,324.15,205.97,325.32,205.97z M312.23,204.41c0.59,0.2,1.37,0.2,2.15,0.39   c-0.59,0.39-1.76,0.98-1.76,1.37c0,0.59,0.39,1.17,0.59,2.15c-0.59-0.39-1.37-1.17-1.96-1.17c-0.39,0-1.36,0.97-1.95,1.17   c0.2-0.59,0.78-1.56,0.78-2.15c0-0.39-1.37-0.98-1.76-1.56c0.59,0,1.37,0,2.15-0.2c0.2-0.39,0.59-1.17,0.78-1.76   C311.65,203.04,311.84,203.82,312.23,204.41z M204.96,203.82c0.59,0,1.37,0,2.15,0.2c-0.58,0.39-1.56,0.78-1.56,1.17   c0,0.59,0.39,1.18,0.39,1.76c-0.39-0.39-0.98-0.98-1.37-0.98c-0.58,0-0.97,0.59-1.56,0.98c0-0.39,0.39-1.17,0.39-1.56   c0-0.59-0.98-0.98-1.37-1.57c0.78,0,2.35,0,2.35-1.56C204.57,202.46,204.77,202.85,204.96,203.82z M176.24,203.04   c0.39,0.2,0.78,0.2,1.17,0.39c-0.39,0.39-0.97,0.39-0.97,0.98c0,0.39,0.19,0.59,0.19,1.17c-0.39-0.19-0.58-0.78-1.17-0.78   c-0.39,0-0.78,0.59-1.17,0.59c0.19-0.2,0.39-0.59,0.39-0.98c0-0.59-0.39-0.59-0.78-1.17c0.19,0,1.56-0.2,1.56-1.17   C175.65,202.26,175.85,202.85,176.24,203.04z M246.97,202.65c-0.98,0.2-0.39,0.78-0.78,1.37c-0.2-0.2-0.2-0.39-0.78-0.39   c-0.39,0-0.2,0.19-0.39,0.39c-0.2-0.2,0-0.2,0-0.78c0-0.39-0.39-0.39-0.59-0.59c0-0.19,0.39-0.19,0.98-0.19v-0.59   C245.8,202.07,246.39,202.46,246.97,202.65z M241.89,196.01c0.39,0.19,0.78,0.19,1.17,0.39c-1.36,0.39-0.78,1.37-0.78,2.15   c-0.39-0.2-0.78-0.78-1.17-0.78c-0.59,0-0.78,0.58-1.17,0.58c0.19-0.19,0.39-0.58,0.39-0.97c0-0.59-0.39-0.59-0.78-1.18   c0.19,0,1.56-0.19,1.56-1.17C241.31,195.23,241.5,195.81,241.89,196.01z M260.84,195.81c0.59,0.2,1.18,0.2,1.76,0.39   c-0.58,0.39-1.37,0.78-1.37,1.18c0,0.58,0.2,0.97,0.2,1.56c-0.39-0.2-0.98-0.78-1.37-0.78c-0.58,0-0.97,0.58-1.56,0.78   c0.19-0.39,0.59-1.17,0.59-1.56c0-0.59-0.98-0.79-1.37-1.37c0.78,0.19,2.34-0.59,2.34-1.57   C260.45,194.84,260.65,195.42,260.84,195.81z M189.53,195.03c-0.59,0.39-1.96,1.17-1.96,1.56c0,0.59,0.39,1.18,0.59,2.15   c-0.59-0.39-1.37-1.17-1.95-1.17c-0.4,0-1.18,0.78-1.76,1.17c0-0.58,0.58-1.76,0.58-2.15c0-0.58-1.36-0.97-1.76-1.56   c0.59,0,1.37,0,2.15-0.19c0.2-0.4,0.2-1.57,1.18-1.76C186.79,195.81,188.16,194.84,189.53,195.03z M196.17,190.34   c-0.78,0.39-0.59,0.78-0.78,1.37c-0.2-0.2,0-0.39-0.59-0.39c-0.39,0-0.58,0.39-0.78,0.39c0-0.39,0.2-0.78-0.19-1.17   c0.19-0.2,0.78-0.59,0.97-0.98C195,189.56,195.39,190.54,196.17,190.34z M250.49,188.19h2.15c-0.59,0.39-1.57,0.78-1.57,1.37   c0,0.39,0.4,0.98,0.4,1.76c-0.4-0.39-0.98-1.17-1.57-1.17c-0.39,0-0.97,0.78-1.56,0.97c0.19-0.39,0.59-1.17,0.59-1.56   c0-0.59-0.98-0.98-1.37-1.37h1.95c0-0.39,0.2-0.98,0.39-1.56C250.1,186.82,250.29,187.21,250.49,188.19z M217.47,177.44   c0.58,0.2,1.17,0.2,1.76,0.39c-0.39,0.2-0.98,0.79-1.57,1.18c0.2,0.39,0.39,0.97,0.39,1.75c-0.39-0.39-0.97-0.97-1.36-0.97   c-0.59,0-0.98,0.58-1.57,0.97c0-0.58,0.39-1.17,0.39-1.75c0-0.39-0.78-0.79-1.17-1.37c0.78,0.19,2.35-0.59,2.15-1.57   C216.88,176.47,217.08,177.05,217.47,177.44z M274.52,169.63c0.39,0.19,0.98,0.19,1.37,0.39c-0.39,0.19-1.17,0.58-1.17,0.97   c0,0.59,0.19,0.79,0.39,1.18c-0.39,0-0.98-0.59-1.37-0.59c-0.59,0-0.78,0.59-1.17,0.59c0.19-0.39,0.39-0.79,0.39-1.18   c0-0.58-0.59-0.58-0.98-1.17c0.78,0,1.37,0,1.76-0.98C274.13,169.04,274.13,169.43,274.52,169.63z M179.17,157.9   c0.39,0.59,1.96,0.39,2.54,0.39c-0.58,0.39-1.76,1.17-1.76,1.76c0,0.39,0.39,1.17,0.39,1.95c-0.58-0.58-1.36-1.36-1.95-1.36   c0,0-1.76,1.36-1.76,0.78c0-0.39,0.59-1.17,0.59-1.57c0-0.58-1.17-0.97-1.57-1.56c1.37,0.39,2.54-0.58,2.74-2.15   C178.78,156.53,178.78,157.31,179.17,157.9z M278.04,146.57c0.58,0.19,1.37,0.19,2.15,0.39c-0.59,0.39-1.76,0.97-1.76,1.36   c0,0.59,0.59,1.57,0.78,2.15c-0.59-0.19-1.76-1.17-2.15-1.17c-0.58,0-1.17,0.78-1.76,1.17c0.2-0.97,0.59-1.56,0.59-2.15   c0-0.39-0.98-0.78-1.56-1.56c0.58,0,1.36,0,1.95-0.19c0.2-0.39,0.59-1.18,0.78-1.76C277.45,145.2,277.65,145.98,278.04,146.57z"/>
	<path fill-rule="evenodd" clip-rule="evenodd" fill="#FFFFFF" d="M250.88,243.3c-0.2,0-0.39,0.39-0.59,0.78h-0.58   c-0.2-0.19-0.2-0.58-0.39-0.78c0-0.2,0.19-0.39,0.58-0.39C250.49,242.91,250.68,243.1,250.88,243.3z"/>
</g>
<g id="Capa_1">
</g>
</svg>