<?xml version="1.0" encoding="UTF-8"?>
<!-- Generator: Adobe Illustrator 16.0.0, SVG Export Plug-In . SVG Version: 6.00 Build 0)  -->
<!DOCTYPE svg PUBLIC "-//W3C//DTD SVG 1.1//EN" "http://www.w3.org/Graphics/SVG/1.1/DTD/svg11.dtd">
<svg version="1.1" id="svg2" xmlns:inkscape="http://www.inkscape.org/namespaces/inkscape" xmlns:rdf="http://www.w3.org/1999/02/22-rdf-syntax-ns#" xmlns:cc="http://creativecommons.org/ns#" xmlns:dc="http://purl.org/dc/elements/1.1/" xmlns:svg="http://www.w3.org/2000/svg" xmlns="http://www.w3.org/2000/svg" xmlns:xlink="http://www.w3.org/1999/xlink" x="0px" y="0px" width="625px" height="415.687px" viewBox="0 -1 625 415.687" enable-background="new 0 -1 625 415.687" xml:space="preserve">
<rect x="0" y="-1" fill="#006C35" width="625" height="416.667"/>
<path fill="#FFFFFF" d="M269.4,97.408c-0.323-0.009-0.807,0.171-1.483,0.573c-1.524,1.021-4.543,4.167-4.636,7.787  c-0.093,2.042-0.479,2.035,0.859,3.333c0.966,1.393,1.931,1.256,3.88,0.234c1.12-0.825,1.499-1.351,1.875-2.734  c0.465-2.32-2.44,1.097-2.812-1.484c-0.648-2.397,1.206-3.384,2.969-5.703C270.092,98.321,270.111,97.429,269.4,97.408L269.4,97.408  z M297.785,97.564c-0.544,0.074-1.211,0.771-2.135,2.448c-0.663,1.757-3.521,4.415-1.458,9.896c1.687,3.476,2.38,9.125,1.615,15.417  c-1.169,1.789-1.436,2.405-2.969,4.193c-2.153,2.316-4.486,1.724-6.276,0.859c-1.672-1.127-2.987-1.706-3.75-5.287  c0.137-5.707,0.47-15.049-0.573-17.031c-1.538-3.07-4.073-1.969-5.156-1.042c-5.206,4.76-7.777,12.797-9.349,19.193  c-1.444,4.661-2.983,3.312-4.062,1.432c-2.63-2.465-2.815-21.736-5.99-18.568c-5.085,14.533,2.918,30.454,8.463,28.906  c4.001,1.657,6.539-5.958,8.177-14.296c1.12-2.34,1.977-2.609,2.552-1.406c-0.148,11.088,0.794,13.561,3.646,16.926  c6.359,4.906,11.619,0.622,12.031,0.208c0.413-0.413,4.948-4.948,4.948-4.948c1.102-1.159,2.558-1.229,4.114-0.208  c1.513,1.375,1.318,3.743,4.558,5.391c2.725,1.09,8.545,0.265,9.896-2.083c1.816-3.114,2.257-4.184,3.099-5.365  c1.297-1.726,3.516-0.962,3.516-0.417c-0.207,0.963-1.511,1.913-0.625,3.646c1.542,1.156,1.9,0.413,2.812,0.156  c3.227-1.542,5.651-8.542,5.651-8.542c0.143-2.61-1.343-2.412-2.292-1.875c-1.237,0.757-1.314,1.014-2.552,1.771  c-1.577,0.234-4.633,1.275-6.146-1.068c-1.544-2.816-1.553-6.742-2.734-9.583c0-0.207-2.063-4.466-0.156-4.74  c0.963,0.179,3.033,0.714,3.359-1.016c1.01-1.686-2.178-6.468-4.349-8.88c-1.884-2.068-4.485-2.319-7.005-0.208  c-1.764,1.624-1.503,3.438-1.849,5.156c-0.449,1.975-0.364,4.42,1.641,7.031c1.761,3.473,4.961,7.93,3.906,14.219  c0,0-1.86,2.993-5.13,2.604c-1.363-0.298-3.585-0.888-4.766-9.609c-0.894-6.602,0.224-15.851-2.578-20.182  C299.236,99.029,298.693,97.442,297.785,97.564L297.785,97.564z M288.802,98.265c-0.847,0.074-1.786,1.061-2.552,2.969  c-0.657,1.45-1.459,9.037-1.328,9.037c-0.524,2.257,2.359,3.214,3.672,0.312c1.968-5.321,1.978-7.587,2.109-9.844  C290.396,99.02,289.65,98.191,288.802,98.265L288.802,98.265z M321.979,98.864c-0.871,0.079-1.564,0.588-1.823,1.875  c-0.348,3.024-0.17,4.668,0.339,7.188c0.39,1.679,2.834,4.49,4.036,6.12c5.746,7.724,11.276,15.486,16.614,23.516  c0.84,5.963,1.455,11.795,1.85,17.604c0.865,12.737,1.129,28.591,0.338,42.005c2.388,0.094,6.211-3.854,7.553-9.635  c0.872-7.998-0.311-24.316-0.391-29.037c-0.057-1.959-0.177-4.298-0.312-6.745c6.211,10.149,12.236,20.901,18.15,32.708  c2.156-1.024,1.679-13.165,0.417-14.87c-4.733-10.189-11.274-20.248-13.359-24.115c-0.753-1.396-3.316-5.295-6.354-9.792  c-0.559-6.415-1.166-11.849-1.562-13.489c-0.977-6.782,2.788,0.764,2.266-3.177c-1.221-6.773-4.959-11.375-9.375-17.579  c-1.423-2.017-1.395-2.429-3.594,0.495c-1.312,2.981-1.295,5.46-0.911,7.786c-0.577-0.84-1.292-1.836-2.317-3.073  c-3.812-3.271-4.048-3.451-7.214-6.12c-0.997-0.708-2.897-1.798-4.349-1.667V98.864z M420.311,99.88  c-0.423-0.066-0.885,0.142-1.406,0.911c-0.994,0.872-2.063,2.451-2.031,4.479c0.243,3.573,0.879,7.233,1.121,10.807  c0.084,0.479,0.175,0.954,0.26,1.432c-0.384-0.49-0.719-0.872-0.912-1.067c-6.966-7.319,3.202-1.196-1.328-6.849  c-3.829-4.206-4.95-5.543-8.229-8.073c-1.645-1.063-2.637-3.093-3.178,0.364c-0.215,3.037-0.438,6.555-0.234,9.116  c-0.011,1.422,1.463,4.101,2.734,5.677c4.648,5.71,9.395,11.785,14.167,18.125c1.004,12.93,1.272,24.782,2.292,37.734  c-0.145,5.54-1.849,12.897-3.464,13.594c0,0-2.466,1.417-4.114-0.156c-1.198-0.482-5.99-7.995-5.99-7.995  c-2.451-2.249-4.088-1.606-5.833,0c-4.812,4.647-6.989,13.352-10.26,19.349c-0.843,1.338-3.219,2.477-5.859-0.104  c-6.707-9.164-2.784-22.207-3.62-18.854c-5.974,6.732-3.328,17.888-1.979,20.287c1.969,3.94,3.562,6.463,7.396,8.412  c3.49,2.57,6.21,0.966,7.708-0.833c3.513-3.64,3.561-12.95,5.209-14.792c1.156-3.383,4.055-2.801,5.469-1.302  c1.369,1.97,2.987,3.251,5,4.323c3.276,2.891,7.188,3.416,11.041,0.781c2.635-1.477,4.344-3.397,5.886-7.188  c1.654-4.425,0.837-27.618,0.469-40.521c2.475,3.486,4.917,7.047,7.344,10.651c1.065,11.326,1.549,22.48,1.198,33.177  c-0.252,2.126,7.422-6.35,7.369-10.366c-0.034-3.513,0.007-6.697,0-9.661c3.722,5.942,7.324,11.983,10.729,18.099  c2.11-1.118,1.387-13.064,0.052-14.713c-3.564-5.981-8.13-12.446-11.666-17.448c-0.699-6.313-1.65-13.76-2.084-16.042  c-0.674-3.558-1.35-8.903-2.369-13.125c-0.28-1.648-1.124-6.916-0.859-7.422c0.416-1.178,1.986,0.038,2.76-1.328  c1.158-1.262-4.014-14.665-6.641-18.49c-0.943-1.714-2.65-1.121-4.766,1.667c-1.96,1.834-1.243,6.02-0.494,10  c1.944,10.146,3.679,20.477,5.052,30.782c-2.541-3.778-5.644-8.351-8.698-12.76c-0.082-0.425-0.391-1.983-0.391-2.005  c0-0.182-0.421-8.299-0.781-10.233c-0.062-0.786-0.25-1.012,0.572-0.912c0.873,0.734,0.991,0.773,1.537,1.016  c0.881,0.161,1.651-1.329,1.119-2.708c-2.725-5.027-5.45-10.077-8.177-15.104C421.103,100.285,420.735,99.946,420.311,99.88  L420.311,99.88z M166.537,100.14c-1.511-0.043-3.176,0.893-2.526,2.708c-0.378,0.989,2.957,4.333,3.542,6.172  c0.525,1.309-0.521,5.522,0.573,5.911c1.006,0.436,2.39-2.917,2.917-6.016c0.292-1.697,0.071-7.507-3.88-8.699  C166.959,100.172,166.752,100.146,166.537,100.14L166.537,100.14z M455.628,100.173c-0.344,0.034-0.764,0.59-1.406,1.953  c-1.546,2.531-2.077,7.065-1.458,11.067c3.721,25.169,6.486,49.541,7.058,71.85c-0.321,2.117-0.414,3.244-1.406,5.911  c-2.196,2.815-4.619,6.345-6.901,8.047c-2.282,1.701-7.137,3.322-8.724,4.583c-5.037,2.911-5.062,6.259-0.99,6.38  c7.018-0.815,15.321-1.391,21.042-10.026c1.53-2.42,3.332-8.98,3.411-12.995c0.535-23.539-0.302-46.555-3.828-63.568  c-0.226-1.658-0.958-5.466-0.677-5.963c0.454-1.166,2.75,0.116,3.566-1.224c1.2-1.225-5.938-10.364-8.438-14.271  C456.379,100.937,456.071,100.129,455.628,100.173L455.628,100.173z M382.034,100.564c-0.289,0.05-0.718,0.491-1.51,1.537  c-1.961,6.41-2.649,11.644-1.901,15.625c5.036,26.278,10.195,50.219,9.375,75.233c2.389,0.017,5.148-5.462,6.328-10.884  c0.646-7.47-0.431-12.016-0.625-16.407c-0.193-4.391-4.97-40.011-5.938-43.333c-1.167-6.281,4.646-0.826,4.011-4.479  c-2.01-4.605-7.024-11.311-8.593-15.312C382.591,101.471,382.518,100.48,382.034,100.564L382.034,100.564z M202.844,101.059  c-0.619,0.106-1.216,0.617-1.432,1.458c-0.137,0.551,0.238,1.467-0.26,1.745c-0.287,0.289-1.374,0.094-1.328-1.433  c0-0.486-0.357-0.994-0.573-1.302c-0.217-0.143-0.363-0.183-0.755-0.183c-0.479,0.019-0.467,0.145-0.729,0.547  c-0.117,0.408-0.267,0.808-0.267,1.274c-0.06,0.544-0.278,0.728-0.677,0.808c-0.447,0-0.341,0.049-0.703-0.183  c-0.215-0.235-0.469-0.327-0.469-0.729c0-0.416-0.109-1.079-0.234-1.354c-0.189-0.25-0.49-0.38-0.833-0.469  c-1.873,0.007-2.008,2.158-1.901,2.969c-0.14,0.153-0.21,3.966,2.344,5.026c3.428,1.635,9.856,0.944,9.583-4.583  c0-0.488-0.107-2.13-0.156-2.578c-0.35-0.814-0.996-1.123-1.615-1.016L202.844,101.059z M248.833,101.111  c-1.185,0.061-2.23,0.4-3.125,0.859c-2.272,2.175-2.804,5.663-1.016,7.838c1.742,0.823,3.478,2.576,2.318,3.542  c-4.924,5.26-17.739,14.048-18.385,15.651c-0.006,0.013-0.023,0.04-0.026,0.052c-0.002,0.012,0,0.042,0,0.052  c0,0.005-0.001,0.021,0,0.026c0.004,0.013,0.017,0.042,0.026,0.052c0.003,0.003,0.022,0.023,0.025,0.026  c0.005,0.002,0.022-0.002,0.026,0c0.006,0.002,0.021,0.024,0.026,0.026c0.006,0.001,0.02-0.002,0.026,0  c0.001,0.001,0.024,0.024,0.026,0.026c0.651,0.437,8.67,0.426,9.557,0.026c0.007-0.003,0.021-0.022,0.026-0.026  c0.002-0.001,0.024,0.001,0.026,0s-0.001-0.024,0-0.026c2.756-1.016,15.833-15.964,15.833-15.964  c-0.678-0.58-1.302-1.007-1.979-1.588c-0.725-0.628-0.652-1.246,0-1.875c3.239-1.885,2.213-6.032,0.521-7.917  C251.337,101.263,250.018,101.05,248.833,101.111L248.833,101.111z M369.041,101.163c-0.344,0.034-0.763,0.564-1.406,1.927  c-1.545,2.531-2.596,6.94-2.474,11.067c3.348,23.179,4.374,43.462,6.562,66.641c0.179,2.241-0.15,5.498-1.641,6.797  c-5.512,5.755-13.46,12.854-22.109,16.12c-0.931,1.045,2.314,5.499,6.511,5.495c7.018-0.814,13.186-4.753,18.906-15.13  c1.529-2.419,4.219-7.599,4.297-11.614c0.535-23.54-1.187-41.841-4.713-58.854c-0.227-1.658-0.072-3.617,0.208-4.114  c0.454-0.543,1.995,0.012,2.812-1.328c1.199-1.225-3.204-11.379-5.704-15.288C369.793,101.899,369.485,101.118,369.041,101.163  L369.041,101.163z M182.817,101.871c-0.968,0.113-1.88,0.902-2.317,1.953c-0.162,3.717-0.184,7.433,0.234,10.859  c1.691,6.009,2.227,11.294,3.047,17.448c0.228,8.243-4.76,3.566-4.531-0.521c1.151-5.308,0.84-13.663-0.183-15.781  c-0.811-2.118-1.751-2.641-3.724-2.292c-1.567-0.096-5.614,4.314-6.745,11.615c0,0-0.942,3.748-1.354,7.083  c-0.553,3.771-3.052,6.441-4.792-0.521c-1.505-5.06-2.429-17.526-4.948-14.608c-0.722,9.734-1.579,26.862,6.693,28.62  c10.004,0.962,4.478-16.912,8.099-20.157c0.684-1.603,1.953-1.631,2.057,0.391v15.183c-0.092,4.935,3.156,6.402,5.677,7.422  c2.623-0.203,4.362-0.131,5.391,2.421c0.41,8.752,0.84,17.525,1.25,26.276c0,0,6.064,1.743,6.354-14.766  c0.291-9.693-1.93-17.827-0.625-19.713c0.046-1.853,2.421-1.944,4.062-1.042c2.615,1.845,3.774,4.115,7.838,3.203  c6.184-1.703,9.908-4.705,10-9.453c-0.361-4.512-0.883-9.029-2.838-13.542c0.272-0.82-1.184-2.956-0.912-3.776  c1.111,1.741,2.792,1.596,3.177,0c-1.053-3.469-2.691-6.792-5.338-8.229c-2.188-1.928-5.39-1.52-6.562,2.5  c-0.544,4.632,1.679,10.123,5.052,14.609c0.716,1.753,1.719,4.668,1.276,7.292c-1.795,1.023-3.575,0.598-5.078-0.99  c0,0-4.922-3.685-4.922-4.505c1.306-8.362,0.281-9.32-0.443-11.641c-0.506-3.204-2.024-4.219-3.255-6.406  c-1.231-1.305-2.902-1.305-3.698,0c-2.175,3.771-1.155,11.868,0.417,15.495c1.135,3.335,2.877,5.417,2.058,5.417  c-0.676,1.885-2.083,1.446-3.099-0.729c-1.45-4.497-1.745-11.198-1.745-14.219c-0.436-3.745-0.92-11.746-3.386-13.775  C184.347,102.095,183.571,101.783,182.817,101.871L182.817,101.871z M217.947,101.923c-0.497,0.062-1.046,0.345-1.693,0.495  c-2.127,0.677-4.118,2.516-3.489,6.094c2.514,15.277,4.152,26.936,6.667,42.213c0.386,1.789-1.113,4.147-3.047,3.906  c-3.288-2.224-4.104-6.729-9.713-6.536c-4.061,0.049-8.692,4.468-9.271,8.724c-0.677,3.382-0.918,7.05,0,10  c2.854,3.432,6.273,3.066,9.271,2.292c2.465-1.015,4.494-3.444,5.364-2.865c0.002,0.002,0.024-0.003,0.026,0s-0.002,0.023,0,0.026  c0.538,0.94-0.051,8.886-11.616,15.026c-7.106,3.191-12.763,3.953-15.807-1.849c-1.886-3.626,0.138-17.438-4.505-14.246  c-13.729,35.39,32.166,40.33,37.292,1.458c0.332-1.096,1.343-2.197,2.057-1.927c0.313,0.133,0.601,0.559,0.703,1.354  c-1.063,35.196-35.504,37.608-41.354,26.538c-1.45-2.61-1.886-8.42-2.031-11.901c-0.266-2.106-0.793-3.321-1.406-3.802  c-1.395-1.049-3.271,1.685-3.672,6.432c-0.581,3.819-0.417,4.867-0.417,8.542c1.838,27.799,46.157,15.855,53.359-7.109  c3.565-11.872-0.072-20.828,1.12-21.927c0.01-0.008,0.042-0.018,0.052-0.025c0.012-0.007,0.04-0.021,0.052-0.026  c0.012-0.006,0.039-0.022,0.052-0.026c0.041-0.011,0.109-0.026,0.156-0.026c4.399,4.739,10.574,0.602,11.927-1.042  c0.581-0.823,2.032-1.35,3.047-0.287c3.432,2.467,9.448,1.304,10.703-3.047c0.726-4.254,1.339-8.634,1.484-13.177  c-2.235,0.694-4.04,1.214-4.766,1.979c-0.173,0.188-0.301,0.398-0.338,0.625c-0.194,1.257-0.379,2.519-0.573,3.776  c-0.021,0.104-0.055,0.2-0.104,0.287c-0.095,0.154-0.253,0.297-0.417,0.391c-0.79,0.431-2.169,0.185-2.24-0.964  c-1.063-4.834-5.44-5.463-8.099,2.031c-1.79,1.45-5.051,1.733-5.391-0.442c0.435-5.028-1.591-5.703-5.651-3.333  c-1.305-9.959-2.6-19.467-3.906-29.426c1.692-0.049,3.244,1.178,4.792-0.755c-1.675-5.208-5.217-15.802-7.214-16.797  c-0.016-0.007-0.037-0.02-0.052-0.026c-0.091-0.109-0.198-0.209-0.287-0.287c-0.038-0.031-0.094-0.078-0.13-0.104  c-0.037-0.025-0.094-0.057-0.13-0.078c-0.081-0.044-0.181-0.08-0.261-0.104c-0.182-0.051-0.359-0.076-0.547-0.052L217.947,101.923z   M354.897,102.001c-1.757-0.052-3.7,1.055-2.942,3.255c-0.441,1.201,3.773,5.272,4.453,7.5c1.222,3.424-0.935,6.689,0.339,7.162  c1.17,0.528,2.799-3.534,3.411-7.292c0.706-3.037-1.461-9.262-4.531-10.547C355.39,102.024,355.148,102.009,354.897,102.001  L354.897,102.001z M248.205,105.751c0.8-0.082,1.766,0.653,2.24,1.692c0.504,1.108,0.251,2.168-0.573,2.37  c-0.825,0.202-1.892-0.532-2.396-1.641s-0.251-2.194,0.573-2.396C248.1,105.764,248.152,105.757,248.205,105.751z M446.121,110.881  c-1.602-0.056-3.346,1.16-2.656,3.542c-0.401,1.299,3.418,5.713,4.037,8.125c0.557,1.717-0.849,7.249,0.312,7.76  c1.067,0.572,2.568-3.822,3.125-7.891c0.309-2.227-1.342-10.041-4.141-11.432C446.584,110.925,446.35,110.888,446.121,110.881  L446.121,110.881z M336.698,113.59c0.146,0.653,0.292,1.31,0.391,1.979c0.327,1.443,0.61,2.877,0.911,4.297  c-1.265-1.741-2.311-3.147-2.761-3.646C332.378,112.821,335.303,113.988,336.698,113.59L336.698,113.59z M361.905,125.986  c-0.618,0.107-1.216,0.643-1.433,1.484c-0.136,0.551,0.265,1.441-0.234,1.719c-0.286,0.289-1.398,0.12-1.354-1.406  c0-0.487-0.356-1.02-0.573-1.328c-0.217-0.143-0.363-0.183-0.755-0.183c-0.478,0.02-0.468,0.145-0.729,0.547  c-0.11,0.409-0.261,0.812-0.261,1.276c-0.06,0.543-0.25,0.728-0.65,0.807c-0.447,0-0.367,0.049-0.729-0.182  c-0.215-0.235-0.469-0.328-0.469-0.729c0-0.416-0.109-1.08-0.234-1.354c-0.189-0.25-0.49-0.355-0.833-0.443  c-1.872,0.007-1.982,2.132-1.875,2.943c-0.141,0.153-0.235,3.992,2.317,5.052c3.428,1.634,9.882,0.917,9.609-4.609  c0-0.489-0.134-2.131-0.183-2.578C363.169,126.186,362.523,125.878,361.905,125.986L361.905,125.986z M246.805,127.131  c-0.423-0.043-0.977,0.112-1.615,0.495c-3.031,1.64-4.205,6.503-2.318,9.349c1.763,2.507,4.551,1.589,4.922,1.589  c2.97,0.371,4.74-5.573,4.74-5.573s0.089-1.671-3.438,1.484c-1.484,0.278-1.686-0.258-2.057-1.094  c-0.31-1.546-0.244-3.114,0.469-4.661C247.836,127.792,247.51,127.203,246.805,127.131L246.805,127.131z M409.514,127.886  c-1.684-0.082-3.475,1.007-3.934,3.307c0.008,1.357,0.613,2.102,0.495,3.333c-0.175,0.704-0.9,1.167-2.63,0.338  c0.271-0.249-1.12-2.213-1.12-2.213c-1.349-0.821-3.15,0.045-4.323,0.807c-0.645,1.173-1.122,3.183-0.391,5.234  c1.937,3.578,8.578,9.682,11.746,9.74c0.059-3.225,0.371-7.514,0.547-10.182c0.074-1.007,0.311-2.117,1.275-2.37  c0.964-0.251,2.638,0.97,2.656-0.078c-0.176-2.051-0.586-5.08-1.744-6.51C411.497,128.413,410.523,127.936,409.514,127.886  L409.514,127.886z M274.83,139.111c-0.045,0.016-0.09,0.054-0.13,0.078c-0.021,0.012-0.058,0.037-0.078,0.052  c-0.335,0.251-0.731,0.833-1.615,1.458c-1.491,1.696-1.758,2.877-1.667,6.276c0.084,0.36,2.831,7.993,5.156,13.359  c1.568,5.577,3.019,11.963,1.953,17.995c-3.671,7.974-11.052,15.125-18.177,19.01c-3.629,1.162-6.764,0.767-7.604-0.026  c-0.006-0.007-0.02-0.021-0.025-0.026c-2.085-1.402-2.133-3.896-2.005-4.323c0-0.002,0-0.023,0-0.026  c0.005-0.005,0.021-0.022,0.026-0.026c6.011-4.187,12.877-7.576,18.254-18.88c1.588-4.32,2.073-6.914,0.495-13.594  c-0.614-2.489-1.375-4.537-3.073-6.302c0.004-0.005,0.022-0.021,0.026-0.025c1.024-0.49,3.679,1.466,4.089,0.234  c-0.628-3.189-2.788-7.471-5.234-9.662c-2.142-1.945-4.472-2.17-6.433-0.391c-2.208,1.229-2.677,5.642-1.614,9.505  c1.181,2.908,4.369,3.418,6.641,9.271c0,0.006,0,0.024,0,0.026c0.047,0.367,0.779,4.368-0.365,5.989  c-0.929,2.896-12.853,12.299-13.698,12.866c-0.01,0.009-0.069,0.043-0.078,0.052c-0.005,0.005-0.022,0.021-0.026,0.025  c-0.002,0.002-0.02,0.021-0.026,0.026c-0.002,0.002-0.023,0.024-0.026,0.026c-0.002,0-0.023,0-0.026,0c-0.001,0-0.02,0-0.026,0  c-0.005-0.004-0.021-0.021-0.026-0.026c0-0.002,0-0.023,0-0.026c-0.005-0.009-0.021-0.042-0.026-0.052  c-0.036-0.234,0.028-0.833,0-1.796c-0.078-1.763,0.651-5.749,0.599-6.433c0-0.002,0-0.023,0-0.025  c-0.005-0.005-0.021-0.022-0.026-0.026c0-0.003,0-0.023,0-0.026c-0.006,0-0.025,0-0.026,0c-3.941,2.544-5.243,10.347-5.963,12.656  c-9.979,6.895-21.311,12.024-27.838,19.01c-3.399,5.308,23.42-6.096,26.537-7.474c0.027,0.02,0.054,0.052,0.078,0.078  c0.592,0.652,0.643,2.925,2.422,4.974c2.787,3.776,8.713,6.102,14.479,4.662c9.669-3.496,15.24-10.085,20.912-17.396  c0.811-1.179,2.081-2.108,3.255-1.198c3.897,8.725,15.134,14.933,29.662,15.573c3.361-4.088,1.753-6.098,0.391-6.953  c-0.42-0.279-7.225-2.932-8.282-5.573c-0.665-2.458,0.952-4.637,4.193-6.276c9.328-1.128,18.497-2.381,27.37-5.234  c0.09-2.981,1.846-7.439,3.021-9.375c0.816-1.343,1.341-1.476,1.536-1.667c0.008-0.006,0.021-0.019,0.026-0.026  c0.002-0.003,0.024-0.022,0.026-0.026c0.005-0.004,0.021-0.021,0.025-0.026c0-0.009,0.001-0.042,0-0.052  c0.005-0.059,0-0.16-0.025-0.26l-1.511-0.885l-29.766-0.13c-0.368-0.142-0.641-0.283-0.807-0.417  c-0.012-0.011-0.041-0.042-0.052-0.052c-0.005-0.005-0.021-0.021-0.026-0.026c-0.005-0.005-0.022-0.021-0.026-0.026  c-0.004-0.009-0.022-0.042-0.026-0.052c-0.002-0.002-0.023-0.023-0.026-0.026c0-0.002,0-0.022,0-0.026  c-0.002-0.002-0.023-0.023-0.026-0.025c0-0.003,0-0.023,0-0.026s0-0.023,0-0.026s0-0.024,0-0.026c0-0.004,0.001-0.022,0-0.026  c0.001-0.001,0.001-0.021,0-0.026c0-0.002,0.001-0.024,0-0.026c0-0.002,0.001-0.023,0-0.026c0-0.002,0.001-0.023,0-0.026  c0.006-0.005,0.021-0.021,0.026-0.026c0.007-0.014,0.017-0.038,0.026-0.052c0.146-0.196,0.498-0.381,0.938-0.547  c7.107-0.969,19.735-3.039,20.574-15.183c-0.132-6.326-2.707-10.468-10.469-11.615c-5.703,0.441-9.771,5.958-9.115,12.032  c-0.273,1.635,0.554,4.844-1.12,5.208c-10.94,1-22.881,7.854-23.282,12.76c-0.002,0-0.023,0-0.026,0  c-0.004,0.005-0.021,0.021-0.026,0.026c-0.008,0.004-0.039,0.02-0.052,0.026c-0.009,0-0.042,0-0.052,0  c-0.017,0.005-0.06,0.021-0.078,0.026c-0.005,0.001-0.019,0-0.026,0c-0.015,0-0.042,0-0.052,0c-0.005,0-0.019,0-0.025,0  c-0.012,0-0.043,0.001-0.052,0c-0.028-0.006-0.08-0.02-0.104-0.026c-0.712-0.198-1.628-1.372-1.484-3.021  c-0.417-8.48-3.177-18.078-7.5-25.468c-1.543-1.543-2.215-2.168-2.656-2.24c-0.015-0.001-0.039,0-0.052,0c-0.019,0-0.055,0-0.078,0  c-0.004,0-0.022-0.001-0.026,0c-0.002,0-0.024,0-0.026,0c-0.003,0.001-0.022-0.001-0.026,0L274.83,139.111z M303.32,143.59  c-0.618,0.107-1.216,0.617-1.432,1.458c-0.136,0.551,0.265,1.468-0.234,1.745c-0.287,0.289-1.399,0.121-1.354-1.406  c0-0.486-0.356-1.02-0.573-1.328c-0.216-0.142-0.337-0.182-0.729-0.182c-0.478,0.02-0.493,0.146-0.755,0.547  c-0.11,0.409-0.26,0.812-0.26,1.276c-0.06,0.543-0.25,0.728-0.651,0.807c-0.447,0-0.341,0.049-0.703-0.182  c-0.215-0.235-0.495-0.328-0.495-0.729c0-0.416-0.083-1.079-0.208-1.354c-0.19-0.25-0.516-0.354-0.859-0.442  c-1.872,0.006-1.982,2.132-1.875,2.942c-0.14,0.153-0.235,3.993,2.317,5.052c3.428,1.635,11.597,0.672,9.609-4.609  c0-0.489-0.133-2.13-0.182-2.578C304.584,143.791,303.938,143.482,303.32,143.59L303.32,143.59z M418.294,148.303  c-0.085-0.015-0.185-0.01-0.286,0.026c0,0-15.882,11.299-16.275,11.692c-1.575,1.4-0.787,6.324,0,5.755  c1.138,0.437,17.128-10.399,16.823-11.667C419.253,154.151,419.588,148.536,418.294,148.303L418.294,148.303z M318.328,149.978  c0.648-0.068,1.498,0.151,2.318,0.625c1.185,0.686,1.916,1.722,1.822,2.474c-0.004,0.021,0.004,0.059,0,0.078  c-0.006,0.021-0.046,0.06-0.052,0.078c-0.007,0.02-0.019,0.06-0.026,0.078c-0.006,0.012-0.02,0.04-0.025,0.052  s-0.02,0.041-0.026,0.052c-0.039,0.063-0.104,0.13-0.156,0.183c-0.57,0.532-1.886,0.457-3.125-0.261  c-1.175-0.679-1.901-1.723-1.823-2.474c0.003-0.021,0.022-0.058,0.026-0.078c0.02-0.093,0.056-0.178,0.104-0.261  c0.017-0.029,0.031-0.077,0.052-0.104c0.004-0.005,0.021-0.021,0.026-0.026c0.035-0.041,0.088-0.095,0.13-0.13  C317.762,150.116,318.03,150.01,318.328,149.978L318.328,149.978z M179.237,152.843c-8.23,0.15-20.282,10.788-20.599,16.693  c8.684-4.17,17.213-8.185,26.042-12.5C183.255,154.909,184.593,152.992,179.237,152.843L179.237,152.843z M205.904,156.54  c0.807,0.009,1.658,0.408,2.109,1.537c0.406,1.036,0.019,2.119-0.469,2.656c-0.002,0.005,0.002,0.022,0,0.026  c-0.007,0.012-0.018,0.042-0.026,0.052c-0.346,0.445-1.559,0.26-2.422,0.26c-1.045-0.045-1.56-0.217-2.188-1.067  c-0.3-0.945,0.613-1.874,1.016-2.578c0.004-0.007,0.022-0.02,0.026-0.026c0.043-0.065,0.115-0.144,0.182-0.208  c0.312-0.286,0.853-0.554,1.433-0.625C205.677,156.552,205.788,156.54,205.904,156.54L205.904,156.54z M415.203,159.816  c-1.464,0.18-2.854,1.564-2.214,3.776c-0.401,1.299,1.985,5.842,2.604,8.255c0.557,1.716-0.718,6.572,0.442,7.083  c1.067,0.571,3.875-2.883,3.776-7.213c0.309-2.228-0.795-10.431-3.594-11.824C415.897,159.804,415.54,159.774,415.203,159.816  L415.203,159.816z M237.445,167.837c-1.293,0.09-2.447,0.781-1.927,2.604c-0.078,1.321,3.655,2.93,3.88,5.989  c0.534,1.262-0.798,5.301,0.312,5.677c1.02,0.42,2.435-2.793,2.969-5.781c0.295-1.637-1.28-7.363-3.958-8.385  C238.31,167.853,237.876,167.807,237.445,167.837L237.445,167.837z M290.648,175.102c0.098-0.006,0.185,0,0.286,0  c0.017,0,0.035,0,0.052,0c3.316,0.901,8.205,0.995,12.449,1.433c3.456,0.219,5.165,2.925,1.927,4.062  c-3.193,1.094-6.262,1.947-6.276,6.562c0.42,2.286,0.332,3.485-0.026,4.036c-0.028,0.042-0.073,0.096-0.104,0.13  c-0.004,0.005-0.021,0.021-0.026,0.026c-0.005,0.004-0.021,0.021-0.026,0.026c-0.005,0.004-0.021,0.022-0.026,0.026l-0.026,0.026  c-0.009,0.004-0.042,0.021-0.052,0.026c-0.046,0.028-0.106,0.059-0.156,0.078c-0.045,0.015-0.108,0.018-0.156,0.025  c-0.759,0.112-1.861-0.612-2.683-1.042c-1.968-1.414-7.494-4.837-8.281-12.188C287.412,176.672,288.654,175.242,290.648,175.102  L290.648,175.102z M160.698,180.754c-0.208,0.006-0.622,0.625-1.172,1.328c-4.896,7.799-5.331,19.442-2.63,22.917  c1.436,1.641,3.802,2.362,5.547,1.849c3.076-1.334,4.428-7.564,3.698-9.844c-1.026-1.606-1.84-1.861-2.865-0.495  c-2.165,4.395-3.065,1.389-3.255-1.067c-0.332-4.658,0.12-8.946,0.625-12.343C160.916,181.357,160.906,180.748,160.698,180.754  L160.698,180.754z M327.498,190.995c-0.364-0.02-0.752,0.037-1.146,0.234c-0.077,0-3.505,2.317-4.609,3.932  c-0.674,0.512-0.598,0.958-0.391,1.849c0.524,1.207,1.45,0.828,2.5,0.26c1.394-0.19,2.067,0.723,1.953,2.396  c-0.644,2.085,0.286,2.864,0.286,2.995s1.342,1.283,2.917,0.365c3.324-1.27,5.396-2.504,10.052-3.516  c1.222-0.024,1.151-3.295-0.781-3.412c-2.521,0.127-4.849,0.255-7.37,2.24c-1.552,0.358-1.817-0.586-2.161-1.433  c-0.395-2.101,0.887-3.582,0.625-5.156C329.443,191.82,328.59,191.053,327.498,190.995L327.498,190.995z M434.298,194.98  c-0.618,0.019-1.27,0.105-2.214,0.182c-1.021,0.216-1.376,0.663-1.562,1.901c0.073,1.876,1.221,1.783,2.396,2.525  c0.68,0.867,1.123,1.65-0.053,3.073c-1.113,1.021-1.906,1.584-3.021,2.604c-0.526,0.897-0.853,2.275,0.755,2.708  c2.971,0.835,9.844-3.63,9.844-3.724c1.113-0.835,0.744-2.422,0.651-2.422c-0.649-0.742-2.114-0.296-3.099-0.417  c-0.469,0-2.008-0.227-1.276-1.587c0.61-0.847,0.836-1.354,1.25-2.396c0.464-1.021,0.056-1.709-1.614-2.267  C435.504,195.007,434.916,194.96,434.298,194.98L434.298,194.98z M389.681,285.312c-0.006,0.003-0.02,0.022-0.025,0.026  c-4.94,1.268-4.786,6.396-1.615,8.646c-52.161,0-132.208-0.886-149.374-0.886c-9.604,0-39.989-1.146-40.574-1.146  c6.516,9.531,15.957,11.473,28.308,11.667c23.169,0,130.516-0.287,161.067-0.287c-2.172,3.857,0.197,10.062,1.9,11.199  c0.036,0.022,0.095,0.06,0.131,0.078c0.063,0.031,0.147,0.062,0.208,0.078c0.021,0.005,0.058-0.002,0.078,0  c2.022,0.477,2.913-0.987,3.594-2.058c3.28,0.289,21.747,0.556,23.438-0.025c0.006-0.003,0.021-0.024,0.026-0.026  c1.143,1.682,2.277,3.271,4.453,2.995c3.807-0.816,6.806-1.231,6.9-8.959c0,0-0.39-13.168-9.037-12.344  c-2.046,0.31-7.786,0.886-7.786,0.886c-6.644-0.79-11.516-0.871-18.983-1.146c0.689-0.875,1.906-4.419,0.416-5.703  c-0.389-0.323-0.968-0.503-1.771-0.443c-0.007,0.001-0.021,0-0.026,0c-0.011,0-0.041,0.002-0.052,0  c-0.006-0.001-0.021-0.024-0.026-0.025c-0.021-0.008-0.058-0.014-0.078-0.026c-0.04-0.027-0.093-0.086-0.13-0.13  c-0.009-0.012-0.043-0.039-0.052-0.053c-0.378-0.549-0.584-1.897-0.834-2.239c-0.003-0.003-0.023-0.021-0.025-0.026  c-0.004-0.002-0.023-0.022-0.026-0.025c-0.009-0.006-0.043-0.023-0.052-0.025c-0.004-0.001-0.023-0.001-0.026,0  s-0.022-0.001-0.026,0L389.681,285.312z M393.223,304.141c0.01-0.005,0.018,0.004,0.026,0c7.609,0.371,14.76,0.07,22.37,0.442  c1.206,1.024,0.603,3.374-0.182,3.803c-0.036,0.017-0.096,0.042-0.131,0.052c-0.029,0.007-0.075-0.001-0.104,0  c-0.029-0.001-0.076,0.007-0.104,0c-2.475-0.062-3.906-0.12-6.38-0.183c-0.006-0.123-0.019-0.256-0.053-0.364  c-0.587-1.738-4.834-1.622-5.833-0.261c-0.014,0.02-0.04,0.058-0.052,0.078c-0.017,0.027-0.039,0.076-0.053,0.104  c-0.016,0.035-0.041,0.094-0.052,0.13c-0.017,0.052-0.02,0.128-0.026,0.183c-0.007,0.062-0.031,0.143-0.025,0.208  c-3.341,0.401-6.348-0.111-9.688-0.234C391.956,306.879,392.072,304.671,393.223,304.141L393.223,304.141z"/>
</svg>